<svg width="100" height="100" viewBox="0 0 100 100" fill="none" xmlns="http://www.w3.org/2000/svg">
<circle cx="50" cy="50" r="50" fill="#D6EEFB"/>
<path d="M30 61.6641V65C30 67.7578 36.7188 70 45 70C53.2812 70 60 67.7578 60 65V61.6641C56.7734 63.9375 50.875 65 45 65C39.125 65 33.2266 63.9375 30 61.6641ZM55 40C63.2812 40 70 37.7578 70 35C70 32.2422 63.2812 30 55 30C46.7188 30 40 32.2422 40 35C40 37.7578 46.7188 40 55 40ZM30 53.4688V57.5C30 60.2578 36.7188 62.5 45 62.5C53.2812 62.5 60 60.2578 60 57.5V53.4688C56.7734 56.125 50.8672 57.5 45 57.5C39.1328 57.5 33.2266 56.125 30 53.4688ZM62.5 54.3281C66.9766 53.4609 70 51.8516 70 50V46.6641C68.1875 47.9453 65.5234 48.8203 62.5 49.3594V54.3281ZM45 42.5C36.7188 42.5 30 45.2969 30 48.75C30 52.2031 36.7188 55 45 55C53.2812 55 60 52.2031 60 48.75C60 45.2969 53.2812 42.5 45 42.5ZM62.1328 46.8984C66.8203 46.0547 70 44.3984 70 42.5V39.1641C67.2266 41.125 62.4609 42.1797 57.4453 42.4297C59.75 43.5469 61.4453 45.0469 62.1328 46.8984Z" fill="#4662B7"/>
</svg>
