<svg width="57" height="48" viewBox="0 0 57 48" fill="none" xmlns="http://www.w3.org/2000/svg">
<path d="M22.5334 1.64154C24.2057 0.569703 26.1503 0 28.1366 0C30.1229 0 32.0676 0.569703 33.7399 1.64154L55.3488 15.4928C55.631 15.674 55.8634 15.9229 56.0248 16.2169C56.1862 16.5109 56.2714 16.8406 56.2727 17.176C56.2741 17.5114 56.1914 17.8418 56.0324 18.137C55.8734 18.4323 55.643 18.6831 55.3622 18.8665L46.8944 24.4001V39.291C46.8944 39.7259 46.7534 40.149 46.4925 40.4969L46.4898 40.4996L46.4871 40.5049L46.479 40.5157L46.4549 40.5424L46.4147 40.596C45.1223 42.0591 43.6217 43.324 41.9611 44.3503C38.9518 46.2046 34.4044 48 28.1366 48C21.8689 48 17.3215 46.2046 14.3122 44.353C13.1079 43.6192 11.9851 42.7596 10.9626 41.7885C10.6678 41.506 10.3853 41.211 10.1158 40.9042C10.0003 40.7742 9.88944 40.6402 9.78351 40.5023L9.78083 40.4969C9.51992 40.149 9.37888 39.7259 9.37888 39.291V24.4001L4.01952 20.8977V35.2715C4.01952 35.8045 3.80778 36.3157 3.43088 36.6926C3.05397 37.0695 2.54278 37.2813 2.00976 37.2813C1.47674 37.2813 0.965549 37.0695 0.588646 36.6926C0.211743 36.3157 6.36892e-07 35.8045 6.36892e-07 35.2715V17.1837C-0.000273249 16.8396 0.0877926 16.5012 0.255765 16.2009C0.423737 15.9007 0.665991 15.6485 0.959326 15.4687L22.5308 1.64154H22.5334ZM33.8149 32.9429C32.1264 34.0457 30.1534 34.633 28.1366 34.633C26.1199 34.633 24.1469 34.0457 22.4584 32.9429L13.3984 27.0235V38.5381C14.3043 39.4552 15.3185 40.2587 16.4184 40.931C18.8542 42.4263 22.6808 43.9805 28.1366 43.9805C33.5925 43.9805 37.4191 42.4263 39.8549 40.9283C40.9547 40.2569 41.9688 39.4542 42.8749 38.5381V27.0235L33.8176 32.9456L33.8149 32.9429ZM31.572 5.02329C29.4792 3.68345 26.7941 3.68345 24.7013 5.02329L5.70772 17.1998L24.6557 29.5799C26.7727 30.9599 29.5033 30.9599 31.6175 29.5799L50.5629 17.1998L31.572 5.02329Z" fill="#4662B7"/>
</svg>
