<svg width="100" height="100" viewBox="0 0 100 100" fill="none" xmlns="http://www.w3.org/2000/svg">
<circle cx="50" cy="50" r="50" fill="#D6EEFB"/>
<path d="M36.6667 46C35.2667 46 33.968 46.432 32.896 47.168C33.5692 43.1179 35.6577 39.4381 38.7898 36.7837C41.9219 34.1292 45.8944 32.6723 50 32.6723C54.1056 32.6723 58.0781 34.1292 61.2102 36.7837C64.3423 39.4381 66.4308 43.1179 67.104 47.168C65.9947 46.4051 64.6796 45.9978 63.3333 46C62.2725 46 61.2551 46.4214 60.5049 47.1716C59.7548 47.9217 59.3333 48.9391 59.3333 50V60.6667C59.333 61.4684 59.5736 62.2517 60.0239 62.9151C60.4742 63.5784 61.1134 64.0911 61.8587 64.3867C61.6276 65.233 61.1248 65.9799 60.4275 66.5124C59.7303 67.0448 58.8773 67.3333 58 67.3333H51.3333V70H58C59.5564 70.0002 61.0638 69.4558 62.2609 68.4613C63.4581 67.4668 64.2695 66.0847 64.5547 64.5547C66.0847 64.2695 67.4668 63.4581 68.4613 62.2609C69.4558 61.0638 70.0002 59.5564 70 58V50C70 44.6957 67.8929 39.6086 64.1421 35.8579C60.3914 32.1071 55.3043 30 50 30C44.6957 30 39.6086 32.1071 35.8579 35.8579C32.1071 39.6086 30 44.6957 30 50L30 58C30 59.7681 30.7024 61.4638 31.9526 62.714C33.2029 63.9643 34.8986 64.6667 36.6667 64.6667C37.7275 64.6667 38.7449 64.2452 39.4951 63.4951C40.2452 62.7449 40.6667 61.7275 40.6667 60.6667V50C40.6667 48.9391 40.2452 47.9217 39.4951 47.1716C38.7449 46.4214 37.7275 46 36.6667 46Z" fill="#4662B7"/>
</svg>
