<svg width="202" height="202" viewBox="0 0 202 202" fill="none" xmlns="http://www.w3.org/2000/svg">
<circle cx="3.86677" cy="3.86677" r="3.86677" fill="#FFCC01" fill-opacity="0.5"/>
<circle cx="3.86677" cy="23.2005" r="3.86677" fill="#FFCC01" fill-opacity="0.5"/>
<circle cx="3.86677" cy="42.5343" r="3.86677" fill="#FFCC01" fill-opacity="0.5"/>
<circle cx="3.86677" cy="61.8685" r="3.86677" fill="#FFCC01" fill-opacity="0.5"/>
<circle cx="3.86677" cy="81.2025" r="3.86677" fill="#FFCC01" fill-opacity="0.5"/>
<circle cx="3.86677" cy="100.536" r="3.86677" fill="#FFCC01" fill-opacity="0.5"/>
<circle cx="3.86677" cy="119.87" r="3.86677" fill="#FFCC01" fill-opacity="0.5"/>
<circle cx="3.86677" cy="139.204" r="3.86677" fill="#FFCC01" fill-opacity="0.5"/>
<circle cx="3.86677" cy="158.538" r="3.86677" fill="#FFCC01" fill-opacity="0.5"/>
<circle cx="3.86677" cy="177.872" r="3.86677" fill="#FFCC01" fill-opacity="0.5"/>
<circle cx="3.86677" cy="197.205" r="3.86677" fill="#FFCC01" fill-opacity="0.5"/>
<circle cx="23.2008" cy="3.86677" r="3.86677" fill="#FFCC01" fill-opacity="0.5"/>
<circle cx="23.2008" cy="23.2005" r="3.86677" fill="#FFCC01" fill-opacity="0.5"/>
<circle cx="23.2008" cy="42.5343" r="3.86677" fill="#FFCC01" fill-opacity="0.5"/>
<circle cx="23.2008" cy="61.8685" r="3.86677" fill="#FFCC01" fill-opacity="0.5"/>
<circle cx="23.2008" cy="81.2025" r="3.86677" fill="#FFCC01" fill-opacity="0.5"/>
<circle cx="23.2008" cy="100.536" r="3.86677" fill="#FFCC01" fill-opacity="0.5"/>
<circle cx="23.2008" cy="119.87" r="3.86677" fill="#FFCC01" fill-opacity="0.5"/>
<circle cx="23.2008" cy="139.204" r="3.86677" fill="#FFCC01" fill-opacity="0.5"/>
<circle cx="23.2008" cy="158.538" r="3.86677" fill="#FFCC01" fill-opacity="0.5"/>
<circle cx="23.2008" cy="177.872" r="3.86677" fill="#FFCC01" fill-opacity="0.5"/>
<circle cx="23.2008" cy="197.205" r="3.86677" fill="#FFCC01" fill-opacity="0.5"/>
<circle cx="42.5357" cy="3.86677" r="3.86677" fill="#FFCC01" fill-opacity="0.5"/>
<circle cx="42.5357" cy="23.2005" r="3.86677" fill="#FFCC01" fill-opacity="0.5"/>
<circle cx="42.5357" cy="42.5343" r="3.86677" fill="#FFCC01" fill-opacity="0.5"/>
<circle cx="42.5357" cy="61.8685" r="3.86677" fill="#FFCC01" fill-opacity="0.5"/>
<circle cx="42.5357" cy="81.2025" r="3.86677" fill="#FFCC01" fill-opacity="0.5"/>
<circle cx="42.5357" cy="100.536" r="3.86677" fill="#FFCC01" fill-opacity="0.5"/>
<circle cx="42.5357" cy="119.87" r="3.86677" fill="#FFCC01" fill-opacity="0.5"/>
<circle cx="42.5357" cy="139.204" r="3.86677" fill="#FFCC01" fill-opacity="0.5"/>
<circle cx="42.5357" cy="158.538" r="3.86677" fill="#FFCC01" fill-opacity="0.5"/>
<circle cx="42.5357" cy="177.872" r="3.86677" fill="#FFCC01" fill-opacity="0.5"/>
<circle cx="42.5357" cy="197.205" r="3.86677" fill="#FFCC01" fill-opacity="0.5"/>
<circle cx="61.8678" cy="3.86677" r="3.86677" fill="#FFCC01" fill-opacity="0.5"/>
<circle cx="61.8678" cy="23.2005" r="3.86677" fill="#FFCC01" fill-opacity="0.5"/>
<circle cx="61.8678" cy="42.5343" r="3.86677" fill="#FFCC01" fill-opacity="0.5"/>
<circle cx="61.8678" cy="61.8685" r="3.86677" fill="#FFCC01" fill-opacity="0.5"/>
<circle cx="61.8678" cy="81.2025" r="3.86677" fill="#FFCC01" fill-opacity="0.5"/>
<circle cx="61.8678" cy="100.536" r="3.86677" fill="#FFCC01" fill-opacity="0.5"/>
<circle cx="61.8678" cy="119.87" r="3.86677" fill="#FFCC01" fill-opacity="0.5"/>
<circle cx="61.8678" cy="139.204" r="3.86677" fill="#FFCC01" fill-opacity="0.5"/>
<circle cx="61.8678" cy="158.538" r="3.86677" fill="#FFCC01" fill-opacity="0.5"/>
<circle cx="61.8678" cy="177.872" r="3.86677" fill="#FFCC01" fill-opacity="0.5"/>
<circle cx="61.8678" cy="197.205" r="3.86677" fill="#FFCC01" fill-opacity="0.5"/>
<circle cx="81.2017" cy="3.86677" r="3.86677" fill="#FFCC01" fill-opacity="0.5"/>
<circle cx="81.2017" cy="23.2005" r="3.86677" fill="#FFCC01" fill-opacity="0.5"/>
<circle cx="81.2017" cy="42.5343" r="3.86677" fill="#FFCC01" fill-opacity="0.5"/>
<circle cx="81.2017" cy="61.8685" r="3.86677" fill="#FFCC01" fill-opacity="0.5"/>
<circle cx="81.2017" cy="81.2025" r="3.86677" fill="#FFCC01" fill-opacity="0.5"/>
<circle cx="81.2017" cy="100.536" r="3.86677" fill="#FFCC01" fill-opacity="0.5"/>
<circle cx="81.2017" cy="119.87" r="3.86677" fill="#FFCC01" fill-opacity="0.5"/>
<circle cx="81.2017" cy="139.204" r="3.86677" fill="#FFCC01" fill-opacity="0.5"/>
<circle cx="81.2017" cy="158.538" r="3.86677" fill="#FFCC01" fill-opacity="0.5"/>
<circle cx="81.2017" cy="177.872" r="3.86677" fill="#FFCC01" fill-opacity="0.5"/>
<circle cx="81.2017" cy="197.205" r="3.86677" fill="#FFCC01" fill-opacity="0.5"/>
<circle cx="100.537" cy="3.86677" r="3.86677" fill="#FFCC01" fill-opacity="0.5"/>
<circle cx="100.537" cy="23.2005" r="3.86677" fill="#FFCC01" fill-opacity="0.5"/>
<circle cx="100.537" cy="42.5343" r="3.86677" fill="#FFCC01" fill-opacity="0.5"/>
<circle cx="100.537" cy="61.8685" r="3.86677" fill="#FFCC01" fill-opacity="0.5"/>
<circle cx="100.537" cy="81.2025" r="3.86677" fill="#FFCC01" fill-opacity="0.5"/>
<circle cx="100.537" cy="100.536" r="3.86677" fill="#FFCC01" fill-opacity="0.5"/>
<circle cx="100.537" cy="119.87" r="3.86677" fill="#FFCC01" fill-opacity="0.5"/>
<circle cx="100.537" cy="139.204" r="3.86677" fill="#FFCC01" fill-opacity="0.5"/>
<circle cx="100.537" cy="158.538" r="3.86677" fill="#FFCC01" fill-opacity="0.5"/>
<circle cx="100.537" cy="177.872" r="3.86677" fill="#FFCC01" fill-opacity="0.5"/>
<circle cx="100.537" cy="197.205" r="3.86677" fill="#FFCC01" fill-opacity="0.5"/>
<circle cx="119.871" cy="3.86677" r="3.86677" fill="#FFCC01" fill-opacity="0.5"/>
<circle cx="119.871" cy="23.2005" r="3.86677" fill="#FFCC01" fill-opacity="0.5"/>
<circle cx="119.871" cy="42.5343" r="3.86677" fill="#FFCC01" fill-opacity="0.5"/>
<circle cx="119.871" cy="61.8685" r="3.86677" fill="#FFCC01" fill-opacity="0.5"/>
<circle cx="119.871" cy="81.2025" r="3.86677" fill="#FFCC01" fill-opacity="0.5"/>
<circle cx="119.871" cy="100.536" r="3.86677" fill="#FFCC01" fill-opacity="0.5"/>
<circle cx="119.871" cy="119.87" r="3.86677" fill="#FFCC01" fill-opacity="0.5"/>
<circle cx="119.871" cy="139.204" r="3.86677" fill="#FFCC01" fill-opacity="0.5"/>
<circle cx="119.871" cy="158.538" r="3.86677" fill="#FFCC01" fill-opacity="0.5"/>
<circle cx="119.871" cy="177.872" r="3.86677" fill="#FFCC01" fill-opacity="0.5"/>
<circle cx="119.871" cy="197.205" r="3.86677" fill="#FFCC01" fill-opacity="0.5"/>
<circle cx="139.204" cy="3.86677" r="3.86677" fill="#FFCC01" fill-opacity="0.5"/>
<circle cx="139.204" cy="23.2005" r="3.86677" fill="#FFCC01" fill-opacity="0.5"/>
<circle cx="139.204" cy="42.5343" r="3.86677" fill="#FFCC01" fill-opacity="0.5"/>
<circle cx="139.204" cy="61.8685" r="3.86677" fill="#FFCC01" fill-opacity="0.5"/>
<circle cx="139.204" cy="81.2025" r="3.86677" fill="#FFCC01" fill-opacity="0.5"/>
<circle cx="139.204" cy="100.536" r="3.86677" fill="#FFCC01" fill-opacity="0.5"/>
<circle cx="139.204" cy="119.87" r="3.86677" fill="#FFCC01" fill-opacity="0.5"/>
<circle cx="139.204" cy="139.204" r="3.86677" fill="#FFCC01" fill-opacity="0.5"/>
<circle cx="139.204" cy="158.538" r="3.86677" fill="#FFCC01" fill-opacity="0.5"/>
<circle cx="139.204" cy="177.872" r="3.86677" fill="#FFCC01" fill-opacity="0.5"/>
<circle cx="139.204" cy="197.205" r="3.86677" fill="#FFCC01" fill-opacity="0.5"/>
<circle cx="158.537" cy="3.86677" r="3.86677" fill="#FFCC01" fill-opacity="0.5"/>
<circle cx="158.537" cy="23.2005" r="3.86677" fill="#FFCC01" fill-opacity="0.5"/>
<circle cx="158.537" cy="42.5343" r="3.86677" fill="#FFCC01" fill-opacity="0.5"/>
<circle cx="158.537" cy="61.8685" r="3.86677" fill="#FFCC01" fill-opacity="0.5"/>
<circle cx="158.537" cy="81.2025" r="3.86677" fill="#FFCC01" fill-opacity="0.5"/>
<circle cx="158.537" cy="100.536" r="3.86677" fill="#FFCC01" fill-opacity="0.5"/>
<circle cx="158.537" cy="119.87" r="3.86677" fill="#FFCC01" fill-opacity="0.5"/>
<circle cx="158.537" cy="139.204" r="3.86677" fill="#FFCC01" fill-opacity="0.5"/>
<circle cx="158.537" cy="158.538" r="3.86677" fill="#FFCC01" fill-opacity="0.5"/>
<circle cx="158.537" cy="177.872" r="3.86677" fill="#FFCC01" fill-opacity="0.5"/>
<circle cx="158.537" cy="197.205" r="3.86677" fill="#FFCC01" fill-opacity="0.5"/>
<circle cx="177.872" cy="3.86677" r="3.86677" fill="#FFCC01" fill-opacity="0.5"/>
<circle cx="177.872" cy="23.2005" r="3.86677" fill="#FFCC01" fill-opacity="0.5"/>
<circle cx="177.872" cy="42.5343" r="3.86677" fill="#FFCC01" fill-opacity="0.5"/>
<circle cx="177.872" cy="61.8685" r="3.86677" fill="#FFCC01" fill-opacity="0.5"/>
<circle cx="177.872" cy="81.2025" r="3.86677" fill="#FFCC01" fill-opacity="0.5"/>
<circle cx="177.872" cy="100.536" r="3.86677" fill="#FFCC01" fill-opacity="0.5"/>
<circle cx="177.872" cy="119.87" r="3.86677" fill="#FFCC01" fill-opacity="0.5"/>
<circle cx="177.872" cy="139.204" r="3.86677" fill="#FFCC01" fill-opacity="0.5"/>
<circle cx="177.872" cy="158.538" r="3.86677" fill="#FFCC01" fill-opacity="0.5"/>
<circle cx="177.872" cy="177.872" r="3.86677" fill="#FFCC01" fill-opacity="0.5"/>
<circle cx="177.872" cy="197.205" r="3.86677" fill="#FFCC01" fill-opacity="0.5"/>
<circle cx="197.206" cy="3.86677" r="3.86677" fill="#FFCC01" fill-opacity="0.5"/>
<circle cx="197.206" cy="23.2005" r="3.86677" fill="#FFCC01" fill-opacity="0.5"/>
<circle cx="197.206" cy="42.5343" r="3.86677" fill="#FFCC01" fill-opacity="0.5"/>
<circle cx="197.206" cy="61.8685" r="3.86677" fill="#FFCC01" fill-opacity="0.5"/>
<circle cx="197.206" cy="81.2025" r="3.86677" fill="#FFCC01" fill-opacity="0.5"/>
<circle cx="197.206" cy="100.536" r="3.86677" fill="#FFCC01" fill-opacity="0.5"/>
<circle cx="197.206" cy="119.87" r="3.86677" fill="#FFCC01" fill-opacity="0.5"/>
<circle cx="197.206" cy="139.204" r="3.86677" fill="#FFCC01" fill-opacity="0.5"/>
<circle cx="197.206" cy="158.538" r="3.86677" fill="#FFCC01" fill-opacity="0.5"/>
<circle cx="197.206" cy="177.872" r="3.86677" fill="#FFCC01" fill-opacity="0.5"/>
<circle cx="197.206" cy="197.205" r="3.86677" fill="#FFCC01" fill-opacity="0.5"/>
</svg>
