<svg width="28" height="28" viewBox="0 0 28 28" fill="none" xmlns="http://www.w3.org/2000/svg">
<path d="M26.4174 0.536126C24.8488 0.180442 23.2454 0.00062411 21.637 0C18.0279 0 15.1267 0.995463 13.2446 2.87749C11.7579 4.36325 10.2802 5.8581 8.81181 7.36196C7.11687 7.17069 3.11966 7.07854 0.411105 9.78849C0.280836 9.91776 0.177442 10.0715 0.106884 10.2409C0.0363263 10.4104 0 10.5921 0 10.7756C0 10.9591 0.0363263 11.1408 0.106884 11.3102C0.177442 11.4796 0.280836 11.6334 0.411105 11.7627L16.2059 27.5574C16.3352 27.6875 16.489 27.7908 16.6584 27.8612C16.8278 27.9317 17.0095 27.968 17.193 27.968C17.3764 27.968 17.5581 27.9317 17.7275 27.8612C17.8969 27.7908 18.0507 27.6875 18.1801 27.5574C20.9082 24.8307 20.8244 20.8363 20.6471 19.1665L25.0925 14.7225C29.5476 10.2674 27.5218 1.90297 27.4338 1.54974C27.372 1.30459 27.2449 1.08082 27.0659 0.902306C26.8869 0.723789 26.6627 0.597227 26.4174 0.536126ZM23.1183 12.7498L18.1815 17.6852C18.019 17.8477 17.8992 18.0478 17.8327 18.2677C17.7662 18.4877 17.7551 18.7206 17.8003 18.9459C17.8073 18.9808 18.3685 22.0761 17.052 24.4524L3.51617 10.918C5.88965 9.60839 9.01844 10.2143 9.02822 10.2143C9.48895 10.3121 9.98319 10.1641 10.3169 9.81921C10.3211 9.81502 12.2799 7.79058 15.2202 4.85027C16.9207 3.14974 19.6474 2.79232 21.637 2.79232C22.9591 2.79232 24.1403 2.9473 24.8928 3.07575C25.2335 5.07365 25.7654 10.1012 23.1183 12.7498Z" fill="#7FB7E7"/>
<path d="M19.1673 11.5939C20.7095 11.5939 21.9596 10.3438 21.9596 8.8016C21.9596 7.25944 20.7095 6.00928 19.1673 6.00928C17.6252 6.00928 16.375 7.25944 16.375 8.8016C16.375 10.3438 17.6252 11.5939 19.1673 11.5939Z" fill="#7FB7E7"/>
<path d="M4.18979 19.5464C1.39746 20.9425 1.39746 26.5272 1.39746 26.5272C1.39746 26.5272 5.58595 26.5272 8.37827 23.7349L4.18979 19.5464Z" fill="#7FB7E7"/>
</svg>
