<svg width="36" height="45" viewBox="0 0 36 45" fill="none" xmlns="http://www.w3.org/2000/svg">
<path d="M31.5 41.1H32.1V40.5V4.5V3.9H31.5H4.5H3.9V4.5V40.5V41.1H4.5H31.5ZM4.5 0.6H31.5C33.6504 0.6 35.4 2.34962 35.4 4.5V42.75C35.4 43.1876 35.2262 43.6073 34.9167 43.9167C34.6073 44.2262 34.1876 44.4 33.75 44.4H2.25C1.81239 44.4 1.39271 44.2262 1.08327 43.9167C0.77384 43.6073 0.6 43.1876 0.6 42.75V4.5C0.6 2.34962 2.34962 0.6 4.5 0.6Z" fill="#232D32" stroke="white" stroke-width="1.2"/>
<path d="M9.59951 9.6H15.1495V12.9H9.59951V9.6ZM20.8495 9.6H26.3995V12.9H20.8495V9.6ZM9.59951 18.6H15.1495V21.9H9.59951V18.6ZM20.8495 18.6698H26.3995V21.9H20.8495V18.6698ZM9.59951 27.6H15.1495V30.9H9.59951V27.6ZM20.8495 27.6H26.3995V30.9H20.8495V27.6Z" fill="#232D32" stroke="white" stroke-width="1.2"/>
</svg>
