<svg width="17" height="16" viewBox="0 0 17 16" fill="none" xmlns="http://www.w3.org/2000/svg">
<path d="M16.6106 0.282828C16.4564 0.144108 16.2686 0.0519818 16.0677 0.0164321C15.8667 -0.0191177 15.6602 0.00326417 15.4706 0.0811526L0.710301 6.1185C0.48517 6.21058 0.294729 6.37608 0.167478 6.59024C0.0402263 6.8044 -0.0169933 7.05571 0.0043817 7.30656C0.0257567 7.5574 0.124577 7.7943 0.286054 7.98179C0.447531 8.16929 0.662982 8.2973 0.900167 8.34667L4.77794 9.15404V14.1662C4.77771 14.3969 4.84324 14.6224 4.96624 14.8143C5.08924 15.0062 5.26417 15.1557 5.46886 15.244C5.67356 15.3322 5.89881 15.3553 6.11609 15.3101C6.33337 15.265 6.53289 15.1537 6.68939 14.9905L8.87029 12.7197L12.1322 15.7084C12.335 15.8959 12.5968 15.9997 12.8681 16C12.986 15.9998 13.1032 15.9805 13.2154 15.9426C13.4005 15.8815 13.5669 15.771 13.6981 15.622C13.8294 15.473 13.9208 15.2908 13.9632 15.0935L16.9714 1.42651C17.0172 1.21975 17.0078 1.00387 16.9443 0.802259C16.8807 0.600649 16.7653 0.420992 16.6107 0.282744L16.6106 0.282828ZM0.960389 7.21822C0.955207 7.18211 0.962487 7.14525 0.980936 7.1142C0.999385 7.08314 1.02781 7.0599 1.06116 7.0486L13.4119 1.99682L5.14655 8.21186L1.08835 7.36677C1.05359 7.36178 1.02165 7.34411 0.998221 7.31691C0.974791 7.28971 0.961385 7.25474 0.960389 7.21822ZM6.0107 14.284C5.98833 14.3073 5.95984 14.3232 5.92881 14.3296C5.89779 14.336 5.86563 14.3327 5.83641 14.3201C5.80718 14.3075 5.78221 14.2862 5.76463 14.2588C5.74705 14.2314 5.73767 14.1992 5.73766 14.1663V9.84966L8.14841 12.0584L6.0107 14.284ZM13.0277 14.8704C13.0216 14.8985 13.0085 14.9245 12.9897 14.9458C12.971 14.9671 12.9473 14.9829 12.9209 14.9918C12.8946 15.0006 12.8664 15.0022 12.8393 14.9964C12.8121 14.9905 12.7869 14.9774 12.7661 14.9583L6.02614 8.78308L16.022 1.26681L13.0277 14.8704Z" fill="#232D32"/>
</svg>
