<svg width="13" height="20" viewBox="0 0 13 20" fill="none" xmlns="http://www.w3.org/2000/svg">
<path d="M9.7 1.2125C10.0216 1.2125 10.33 1.34025 10.5574 1.56763C10.7848 1.79502 10.9125 2.10343 10.9125 2.425V16.975C10.9125 17.2966 10.7848 17.605 10.5574 17.8324C10.33 18.0598 10.0216 18.1875 9.7 18.1875H2.425C2.10343 18.1875 1.79502 18.0598 1.56763 17.8324C1.34025 17.605 1.2125 17.2966 1.2125 16.975V2.425C1.2125 2.10343 1.34025 1.79502 1.56763 1.56763C1.79502 1.34025 2.10343 1.2125 2.425 1.2125H9.7ZM2.425 0C1.78185 0 1.16504 0.25549 0.710266 0.710266C0.25549 1.16504 0 1.78185 0 2.425V16.975C0 17.6181 0.25549 18.235 0.710266 18.6897C1.16504 19.1445 1.78185 19.4 2.425 19.4H9.7C10.3432 19.4 10.96 19.1445 11.4147 18.6897C11.8695 18.235 12.125 17.6181 12.125 16.975V2.425C12.125 1.78185 11.8695 1.16504 11.4147 0.710266C10.96 0.25549 10.3432 0 9.7 0L2.425 0Z" fill="#232D32"/>
<path d="M6.06211 16.975C6.38368 16.975 6.69209 16.8473 6.91948 16.6199C7.14686 16.3925 7.27461 16.0841 7.27461 15.7625C7.27461 15.441 7.14686 15.1326 6.91948 14.9052C6.69209 14.6778 6.38368 14.55 6.06211 14.55C5.74053 14.55 5.43213 14.6778 5.20474 14.9052C4.97735 15.1326 4.84961 15.441 4.84961 15.7625C4.84961 16.0841 4.97735 16.3925 5.20474 16.6199C5.43213 16.8473 5.74053 16.975 6.06211 16.975Z" fill="#232D32"/>
</svg>
