<svg width="64" height="108" viewBox="0 0 64 108" fill="none" xmlns="http://www.w3.org/2000/svg">
<path d="M9.23625 96.8553C9.95066 97.0594 10.5006 97.4223 10.8862 97.9439C11.2717 98.4542 11.4645 99.0779 11.4645 99.8149C11.4645 100.484 11.2888 101.068 10.9372 101.567C10.5857 102.066 10.0811 102.451 9.42336 102.724C8.77699 102.996 8.01156 103.132 7.12705 103.132H1.08862V91.0209H6.97397C8.24402 91.0209 9.25326 91.3044 10.0017 91.8714C10.7501 92.4384 11.1243 93.2039 11.1243 94.1677C11.1243 94.7914 10.9599 95.3414 10.631 95.8177C10.3022 96.2939 9.83726 96.6398 9.23625 96.8553ZM4.20139 95.7666H6.42966C7.01933 95.7666 7.45024 95.6759 7.72239 95.4945C7.99455 95.3131 8.13063 95.0239 8.13063 94.627C8.13063 94.2188 7.98888 93.9183 7.70538 93.7255C7.43323 93.5327 7.00799 93.4363 6.42966 93.4363H4.20139V95.7666ZM6.75284 100.716C7.36519 100.716 7.80177 100.62 8.06259 100.427C8.33474 100.235 8.47082 99.9113 8.47082 99.4577C8.47082 98.9928 8.34041 98.664 8.0796 98.4712C7.81878 98.2784 7.37653 98.182 6.75284 98.182H4.20139V100.716H6.75284ZM17.3864 103.268C16.4225 103.268 15.5834 103.086 14.869 102.724C14.1546 102.361 13.6046 101.839 13.219 101.159C12.8335 100.478 12.6407 99.6789 12.6407 98.7603C12.6407 97.8418 12.8335 97.0424 13.219 96.362C13.6046 95.6816 14.1546 95.16 14.869 94.7971C15.5834 94.4342 16.4225 94.2528 17.3864 94.2528C18.339 94.2528 19.1668 94.4399 19.8698 94.8141C20.5842 95.177 21.1342 95.6986 21.5198 96.379C21.9053 97.048 22.0981 97.8418 22.0981 98.7603C22.0981 99.6789 21.9053 100.478 21.5198 101.159C21.1342 101.828 20.5842 102.349 19.8698 102.724C19.1668 103.086 18.339 103.268 17.3864 103.268ZM17.3864 100.972C18.4977 100.972 19.0534 100.235 19.0534 98.7603C19.0534 98.0119 18.9116 97.4619 18.6281 97.1104C18.356 96.7475 17.9421 96.5661 17.3864 96.5661C16.8194 96.5661 16.3942 96.7475 16.1107 97.1104C15.8272 97.4619 15.6854 98.0119 15.6854 98.7603C15.6854 99.5201 15.8272 100.081 16.1107 100.444C16.3942 100.796 16.8194 100.972 17.3864 100.972ZM28.0713 103.268C27.1074 103.268 26.2683 103.086 25.5538 102.724C24.8394 102.361 24.2895 101.839 23.9039 101.159C23.5184 100.478 23.3256 99.6789 23.3256 98.7603C23.3256 97.8418 23.5184 97.0424 23.9039 96.362C24.2895 95.6816 24.8394 95.16 25.5538 94.7971C26.2683 94.4342 27.1074 94.2528 28.0713 94.2528C29.0238 94.2528 29.8516 94.4399 30.5547 94.8141C31.2691 95.177 31.8191 95.6986 32.2046 96.379C32.5902 97.048 32.783 97.8418 32.783 98.7603C32.783 99.6789 32.5902 100.478 32.2046 101.159C31.8191 101.828 31.2691 102.349 30.5547 102.724C29.8516 103.086 29.0238 103.268 28.0713 103.268ZM28.0713 100.972C29.1826 100.972 29.7382 100.235 29.7382 98.7603C29.7382 98.0119 29.5965 97.4619 29.313 97.1104C29.0408 96.7475 28.6269 96.5661 28.0713 96.5661C27.5043 96.5661 27.079 96.7475 26.7956 97.1104C26.5121 97.4619 26.3703 98.0119 26.3703 98.7603C26.3703 99.5201 26.5121 100.081 26.7956 100.444C27.079 100.796 27.5043 100.972 28.0713 100.972ZM40.4231 103.132L37.4804 99.4067V103.132H34.4017V90.6127H37.4804V98.097L40.3721 94.5079H44.0121L40.6102 98.6413L44.1482 103.132H40.4231Z" fill="white"/>
<path d="M31.5455 61.3907C37.0112 61.3907 41.442 56.9599 41.442 51.4942C41.442 46.0285 37.0112 41.5977 31.5455 41.5977C26.0798 41.5977 21.6489 46.0285 21.6489 51.4942C21.6489 56.9599 26.0798 61.3907 31.5455 61.3907Z" fill="#FF0066"/>
<path d="M5.41217 10.8253C8.40123 10.8253 10.8243 8.4022 10.8243 5.41315C10.8243 2.42409 8.40123 0.000976562 5.41217 0.000976562C2.42311 0.000976562 0 2.42409 0 5.41315C0 8.4022 2.42311 10.8253 5.41217 10.8253Z" fill="white"/>
<path d="M11.8451 76.1276C11.7987 76.0967 11.7523 76.0658 11.7214 76.0194C11.675 75.9885 11.6286 75.9421 11.5977 75.9111C11.6595 75.9884 11.7523 76.0503 11.8451 76.1276Z" fill="url(#paint0_linear)"/>
<path d="M11.335 75.71C11.4587 75.8182 11.5824 75.911 11.7061 76.0192C11.7525 76.0502 11.7989 76.0965 11.8298 76.1275C11.8762 76.1739 11.938 76.2048 11.9844 76.2512C12.0617 76.313 12.1545 76.3749 12.2318 76.4367C12.0927 76.3285 11.9535 76.2203 11.8143 76.112C11.737 76.0502 11.6442 75.9883 11.5669 75.911C11.4896 75.8491 11.4123 75.7718 11.335 75.71Z" fill="#FF0000"/>
<path d="M12.2471 76.4365C12.2625 76.4365 12.2625 76.452 12.278 76.452C12.2625 76.452 12.2471 76.452 12.2471 76.4365ZM12.2625 76.452C12.2935 76.4675 12.3089 76.4984 12.3399 76.5138C12.3708 76.5448 12.4172 76.5757 12.4481 76.6066C12.3862 76.5602 12.3244 76.4984 12.2625 76.452ZM12.4636 76.6066C16.4222 79.622 21.1076 81.725 26.2259 82.5909C26.2878 82.6064 26.3496 82.6064 26.4115 82.6219C27.4166 82.792 28.4527 82.9002 29.4887 82.9621C29.4732 82.9621 29.4578 82.9621 29.4578 82.9621C29.3186 82.9466 29.1794 82.9466 29.0403 82.9311C28.8702 82.9157 28.7001 82.9002 28.53 82.8847C28.3289 82.8693 28.1434 82.8383 27.9578 82.8229C27.8341 82.8074 27.7259 82.792 27.6176 82.7765C27.4785 82.761 27.3393 82.7456 27.2001 82.7146C27.1228 82.6992 27.0455 82.6992 26.9836 82.6837C26.7981 82.6528 26.628 82.6373 26.4579 82.6064C26.396 82.5909 26.3342 82.5909 26.2723 82.5755C26.1795 82.56 26.0868 82.5445 25.994 82.5291C25.9012 82.5136 25.8084 82.4982 25.7156 82.4827C25.5301 82.4518 25.3445 82.4054 25.1744 82.3744C25.0198 82.3435 24.8497 82.3126 24.6951 82.2662C24.494 82.2198 24.293 82.1734 24.092 82.127C23.9064 82.0806 23.7209 82.0343 23.5353 81.9879C23.3807 81.9415 23.226 81.9106 23.0869 81.8642C23.0405 81.8487 22.9786 81.8332 22.9322 81.8178C22.7931 81.7714 22.6539 81.7404 22.4993 81.6941C22.4065 81.6631 22.3137 81.6477 22.2209 81.6167C22.0972 81.5858 21.9735 81.5394 21.8653 81.5085C21.7261 81.4621 21.6024 81.4157 21.4632 81.3693C21.3241 81.3229 21.2003 81.2765 21.0612 81.2302C20.6591 81.091 20.2725 80.9364 19.8705 80.7817C19.7623 80.7353 19.6385 80.6889 19.5303 80.6426C19.3138 80.5498 19.0819 80.457 18.8654 80.3642C18.7107 80.3024 18.5561 80.225 18.4169 80.1632C18.2623 80.0859 18.1077 80.024 17.953 79.9467C17.8139 79.8849 17.6747 79.8075 17.5355 79.7457C16.9479 79.4519 16.3603 79.1426 15.8036 78.8179C15.6799 78.7406 15.5408 78.6632 15.4171 78.5859C15.1233 78.4158 14.8294 78.2303 14.5356 78.0447C14.4119 77.9674 14.2882 77.8901 14.18 77.8128C13.5769 77.4262 13.0048 77.0241 12.4636 76.6066ZM29.4887 82.9621C29.5815 82.9621 29.6588 82.9775 29.7516 82.9775C29.6588 82.9775 29.5815 82.9775 29.4887 82.9621Z" fill="#FF0000"/>
<path d="M29.7515 82.9775C29.9061 82.993 30.0453 82.993 30.1844 82.993C30.0298 82.993 29.8906 82.993 29.7515 82.9775ZM30.169 83.0085C30.2772 83.0085 30.37 83.0239 30.4782 83.0239C30.3855 83.0085 30.2772 83.0085 30.169 83.0085Z" fill="#FF0000"/>
<path d="M36.6948 82.6216C35.1485 82.8845 33.5712 83.0236 31.963 83.0391C31.8239 83.0391 31.6847 83.0391 31.561 83.0391C31.4528 83.0391 31.3445 83.0391 31.2363 83.0391C31.1126 83.0391 30.9889 83.0391 30.8652 83.0391C30.7414 83.0391 30.6177 83.0391 30.5095 83.0236C30.2621 83.0236 30.0147 83.0082 29.7673 82.9927C29.6745 82.9927 29.5662 82.9772 29.4735 82.9772C29.3343 82.9618 29.1951 82.9618 29.0559 82.9463C28.8858 82.9308 28.7157 82.9154 28.5457 82.8999C28.3446 82.8844 28.1591 82.8535 27.9735 82.8381C27.8498 82.8226 27.7416 82.8071 27.6333 82.7917C27.4941 82.7762 27.355 82.7607 27.2158 82.7298C27.1385 82.7144 27.0612 82.7144 26.9993 82.6989C26.8138 82.668 26.6437 82.6525 26.4736 82.6216C26.4117 82.6061 26.3499 82.6061 26.288 82.5906C26.1952 82.5752 26.1024 82.5597 26.0097 82.5443C25.9169 82.5288 25.8241 82.5133 25.7313 82.4979C25.5458 82.4669 25.3602 82.436 25.1901 82.3896C25.0355 82.3587 24.8654 82.3278 24.7107 82.2814C24.5097 82.235 24.3087 82.1886 24.1077 82.1422C23.9221 82.0958 23.7366 82.0494 23.551 82.003C23.3964 81.9566 23.2417 81.9257 23.1026 81.8793C23.0562 81.8639 22.9943 81.8484 22.9479 81.8329C22.8088 81.7866 22.6696 81.7556 22.5149 81.7092C22.4222 81.6783 22.3294 81.6628 22.2366 81.6319C22.1129 81.601 21.9892 81.5546 21.881 81.5237C21.7418 81.4773 21.6181 81.4309 21.4789 81.4C21.3397 81.3536 21.216 81.3072 21.0769 81.2608C20.6748 81.1216 20.2882 80.967 19.8862 80.8124C19.7779 80.766 19.6542 80.7196 19.546 80.6732C19.3295 80.5804 19.0975 80.4876 18.8811 80.3949C18.7264 80.333 18.5718 80.2557 18.4326 80.1938C18.278 80.1165 18.1234 80.0547 17.9687 79.9773C17.8296 79.9155 17.6904 79.8382 17.5512 79.7763C16.9636 79.4825 16.376 79.1732 15.8193 78.8485C15.6956 78.7712 15.5564 78.6939 15.4327 78.6166C15.1389 78.4465 14.8451 78.2609 14.5513 78.0753C14.4276 77.998 14.3039 77.9207 14.1802 77.8434C13.8709 77.6424 13.5617 77.4259 13.2679 77.2094C13.1287 77.1012 12.9895 77.0084 12.8349 76.9001C12.8194 76.8847 12.804 76.8692 12.773 76.8537C12.6648 76.7764 12.572 76.6991 12.4638 76.6218C12.4328 76.5909 12.3865 76.5599 12.3555 76.5445C12.3246 76.5136 12.2937 76.4981 12.2473 76.4672C12.1081 76.3589 11.9689 76.2507 11.8298 76.1424C11.7525 76.0806 11.6597 76.0187 11.5824 75.9414C11.505 75.8796 11.4277 75.8177 11.3504 75.7404C11.2731 75.6785 11.1803 75.6012 11.103 75.5394C11.0411 75.493 10.9948 75.4466 10.9329 75.4002C10.9174 75.4002 10.9174 75.3847 10.902 75.3693C10.8401 75.3074 10.7628 75.2456 10.701 75.1992C10.469 74.9981 10.2525 74.7971 10.0206 74.5806C9.94325 74.5188 9.86593 74.4415 9.80408 74.3796C5.04137 69.8334 1.70129 63.8182 0.510614 57.0607C0.185883 55.2669 0.03125 53.4268 0.03125 51.5403V16.4385H10.8556V49.3909C10.8092 50.1331 10.7783 50.8753 10.7783 51.6176C10.7783 57.4936 12.3865 62.9986 15.1853 67.6995C18.8811 73.9312 24.6644 78.7712 31.5765 81.2763C33.2001 81.8329 34.932 82.2968 36.6948 82.6216Z" fill="white"/>
<path d="M62.6729 46.3451C62.3636 48.0925 61.8997 49.778 61.3121 51.4171C58.838 58.2983 54.0289 64.0816 47.8435 67.8083C43.9313 70.1587 39.4624 71.6896 34.6842 72.1535C43.7148 70.8236 50.8434 63.6795 52.1887 54.6644C52.3124 53.8449 52.3897 53.0098 52.4052 52.1748C52.4052 52.082 52.4052 52.0047 52.4052 51.9119C52.4052 51.8037 52.4052 51.6955 52.4052 51.5872V51.4944C52.4052 51.4326 52.4052 51.3707 52.4052 51.3089C52.3897 50.3656 52.3124 49.4223 52.1887 48.51C51.7094 43.5308 50.0702 38.8918 47.5497 34.8559C43.8385 28.9334 38.2099 24.3253 31.5452 21.8976C29.7514 21.2481 27.8803 20.7533 25.9629 20.444C26.0402 20.4286 26.133 20.4131 26.2258 20.3977C27.9577 20.1039 29.7359 19.9492 31.5606 19.9492C33.3853 19.9492 35.1636 20.1039 36.8955 20.3977C36.9883 20.4131 37.0656 20.4286 37.1583 20.444C45.323 21.9131 52.4052 26.5211 57.0906 32.9693C59.7039 36.5723 61.575 40.7319 62.4718 45.2472C62.5492 45.6184 62.611 45.974 62.6729 46.3451Z" fill="white"/>
<path d="M52.2045 48.5095C50.72 38.4738 42.076 30.773 31.6228 30.773C28.0044 30.773 24.6179 31.7008 21.6489 33.3245V21.5414C23.0406 21.0775 24.4787 20.7219 25.9632 20.459C27.8961 20.7837 29.7517 21.2631 31.5455 21.9125C38.2256 24.3248 43.8388 28.9329 47.55 34.8708C50.086 38.8913 51.7251 43.5303 52.2045 48.5095Z" fill="white"/>
<path d="M63.0905 51.4167V51.494C63.0905 51.6332 63.0905 51.7724 63.0905 51.8961C63.075 53.4733 62.9358 55.0351 62.6884 56.5505C60.539 69.8335 50.1167 80.3331 36.8801 82.5908C36.8183 82.6063 36.7564 82.6063 36.6946 82.6217C34.9317 82.3125 33.1998 81.8486 31.5453 81.2455C24.6332 78.7404 18.8499 73.9004 15.1541 67.6687C12.3553 62.9678 10.7471 57.4629 10.7471 51.5868C10.7471 50.8446 10.778 50.1023 10.8244 49.3601V51.5868C10.8244 62.04 18.5251 70.684 28.5608 72.153C29.4732 72.2922 30.401 72.3695 31.3597 72.3695C31.3752 72.3695 31.3906 72.3695 31.4061 72.3695C31.4834 72.3695 31.5453 72.3695 31.6226 72.3695C32.1793 72.3695 32.7205 72.3541 33.2617 72.3077C33.7411 72.2767 34.2204 72.2149 34.6843 72.153C39.4625 71.6891 43.9314 70.1583 47.8436 67.8078C54.029 64.0966 58.8381 58.3133 61.3122 51.4167C61.8998 49.7776 62.3482 48.0921 62.673 46.3447C62.9049 47.7364 63.0441 49.1745 63.075 50.6126C63.075 50.7672 63.0905 50.9219 63.0905 51.0765C63.0905 51.2002 63.0905 51.3085 63.0905 51.4167Z" fill="white"/>
<path d="M9.23625 96.8553C9.95066 97.0594 10.5006 97.4223 10.8862 97.9439C11.2717 98.4542 11.4645 99.0779 11.4645 99.8149C11.4645 100.484 11.2888 101.068 10.9372 101.567C10.5857 102.066 10.0811 102.451 9.42336 102.724C8.77699 102.996 8.01156 103.132 7.12705 103.132H1.08862V91.0209H6.97397C8.24402 91.0209 9.25326 91.3044 10.0017 91.8714C10.7501 92.4384 11.1243 93.2039 11.1243 94.1677C11.1243 94.7914 10.9599 95.3414 10.631 95.8177C10.3022 96.2939 9.83726 96.6398 9.23625 96.8553ZM4.20139 95.7666H6.42966C7.01933 95.7666 7.45024 95.6759 7.72239 95.4945C7.99455 95.3131 8.13063 95.0239 8.13063 94.627C8.13063 94.2188 7.98888 93.9183 7.70538 93.7255C7.43323 93.5327 7.00799 93.4363 6.42966 93.4363H4.20139V95.7666ZM6.75284 100.716C7.36519 100.716 7.80177 100.62 8.06259 100.427C8.33474 100.235 8.47082 99.9113 8.47082 99.4577C8.47082 98.9928 8.34041 98.664 8.0796 98.4712C7.81878 98.2784 7.37653 98.182 6.75284 98.182H4.20139V100.716H6.75284ZM17.3864 103.268C16.4225 103.268 15.5834 103.086 14.869 102.724C14.1546 102.361 13.6046 101.839 13.219 101.159C12.8335 100.478 12.6407 99.6789 12.6407 98.7603C12.6407 97.8418 12.8335 97.0424 13.219 96.362C13.6046 95.6816 14.1546 95.16 14.869 94.7971C15.5834 94.4342 16.4225 94.2528 17.3864 94.2528C18.339 94.2528 19.1668 94.4399 19.8698 94.8141C20.5842 95.177 21.1342 95.6986 21.5198 96.379C21.9053 97.048 22.0981 97.8418 22.0981 98.7603C22.0981 99.6789 21.9053 100.478 21.5198 101.159C21.1342 101.828 20.5842 102.349 19.8698 102.724C19.1668 103.086 18.339 103.268 17.3864 103.268ZM17.3864 100.972C18.4977 100.972 19.0534 100.235 19.0534 98.7603C19.0534 98.0119 18.9116 97.4619 18.6281 97.1104C18.356 96.7475 17.9421 96.5661 17.3864 96.5661C16.8194 96.5661 16.3942 96.7475 16.1107 97.1104C15.8272 97.4619 15.6854 98.0119 15.6854 98.7603C15.6854 99.5201 15.8272 100.081 16.1107 100.444C16.3942 100.796 16.8194 100.972 17.3864 100.972ZM28.0713 103.268C27.1074 103.268 26.2683 103.086 25.5538 102.724C24.8394 102.361 24.2895 101.839 23.9039 101.159C23.5184 100.478 23.3256 99.6789 23.3256 98.7603C23.3256 97.8418 23.5184 97.0424 23.9039 96.362C24.2895 95.6816 24.8394 95.16 25.5538 94.7971C26.2683 94.4342 27.1074 94.2528 28.0713 94.2528C29.0238 94.2528 29.8516 94.4399 30.5547 94.8141C31.2691 95.177 31.8191 95.6986 32.2046 96.379C32.5902 97.048 32.783 97.8418 32.783 98.7603C32.783 99.6789 32.5902 100.478 32.2046 101.159C31.8191 101.828 31.2691 102.349 30.5547 102.724C29.8516 103.086 29.0238 103.268 28.0713 103.268ZM28.0713 100.972C29.1826 100.972 29.7382 100.235 29.7382 98.7603C29.7382 98.0119 29.5965 97.4619 29.313 97.1104C29.0408 96.7475 28.6269 96.5661 28.0713 96.5661C27.5043 96.5661 27.079 96.7475 26.7956 97.1104C26.5121 97.4619 26.3703 98.0119 26.3703 98.7603C26.3703 99.5201 26.5121 100.081 26.7956 100.444C27.079 100.796 27.5043 100.972 28.0713 100.972ZM40.4231 103.132L37.4804 99.4067V103.132H34.4017V90.6127H37.4804V98.097L40.3721 94.5079H44.0121L40.6102 98.6413L44.1482 103.132H40.4231Z" fill="white"/>
<path d="M51.0354 91.0209H54.2332V103.132H51.0354V91.0209ZM61.5203 100.785C61.7244 100.785 61.9965 100.75 62.3367 100.682V103.013C61.9172 103.183 61.3842 103.268 60.7378 103.268C59.5698 103.268 58.6797 102.939 58.0673 102.281C57.4663 101.624 57.1658 100.711 57.1658 99.5428V96.7532H55.5499V94.4909H57.1658V92.5348L60.2445 91.5482V94.4909H62.3197V96.7532H60.2445V99.5428C60.2445 99.951 60.3636 100.263 60.6017 100.478C60.8512 100.682 61.1574 100.785 61.5203 100.785Z" fill="#FF0066"/>
<defs>
<linearGradient id="paint0_linear" x1="11.5754" y1="76.0155" x2="11.8382" y2="76.0155" gradientUnits="userSpaceOnUse">
<stop stop-color="white"/>
<stop offset="1"/>
</linearGradient>
</defs>
</svg>
