<svg width="69" height="82" viewBox="0 0 69 82" fill="none" xmlns="http://www.w3.org/2000/svg">
<path d="M23.9163 46.5436C28.0602 46.5436 31.4195 43.1843 31.4195 39.0403C31.4195 34.8964 28.0602 31.5371 23.9163 31.5371C19.7724 31.5371 16.4131 34.8964 16.4131 39.0403C16.4131 43.1843 19.7724 46.5436 23.9163 46.5436Z" fill="#FF0066"/>
<path d="M4.10333 8.20666C6.36953 8.20666 8.20666 6.36953 8.20666 4.10333C8.20666 1.83712 6.36953 0 4.10333 0C1.83712 0 0 1.83712 0 4.10333C0 6.36953 1.83712 8.20666 4.10333 8.20666Z" fill="url(#paint0_linear)"/>
<path d="M8.98055 57.7164C8.94538 57.6929 8.91021 57.6695 8.88676 57.6343C8.85159 57.6109 8.81642 57.5757 8.79297 57.5522C8.83986 57.6109 8.91021 57.6578 8.98055 57.7164Z" fill="url(#paint1_linear)"/>
<path d="M8.59375 57.3997C8.68754 57.4817 8.78133 57.5521 8.87512 57.6341C8.91029 57.6576 8.94546 57.6928 8.96891 57.7162C9.00408 57.7514 9.05098 57.7748 9.08615 57.81C9.14477 57.8569 9.21511 57.9038 9.27373 57.9507C9.16822 57.8686 9.0627 57.7865 8.95719 57.7045C8.89857 57.6576 8.82823 57.6107 8.76961 57.5521C8.71099 57.5052 8.65237 57.4466 8.59375 57.3997Z" fill="#FF0000"/>
<path d="M9.28516 57.9509C9.29688 57.9509 9.29688 57.9627 9.3086 57.9627C9.29688 57.9627 9.28516 57.9627 9.28516 57.9509ZM9.29688 57.9627C9.32033 57.9744 9.33205 57.9978 9.3555 58.0095C9.37895 58.033 9.41412 58.0564 9.43757 58.0799C9.39067 58.0447 9.34378 57.9978 9.29688 57.9627ZM9.44929 58.0799C12.4506 60.366 16.0029 61.9605 19.8835 62.617C19.9304 62.6287 19.9773 62.6287 20.0242 62.6404C20.7862 62.7694 21.5717 62.8515 22.3572 62.8984C22.3455 62.8984 22.3337 62.8984 22.3337 62.8984C22.2282 62.8866 22.1227 62.8866 22.0172 62.8749C21.8882 62.8632 21.7593 62.8515 21.6303 62.8398C21.4779 62.828 21.3372 62.8046 21.1965 62.7929C21.1027 62.7811 21.0207 62.7694 20.9386 62.7577C20.8331 62.746 20.7276 62.7342 20.6221 62.7108C20.5634 62.6991 20.5048 62.6991 20.4579 62.6873C20.3172 62.6639 20.1883 62.6522 20.0593 62.6287C20.0124 62.617 19.9655 62.617 19.9186 62.6053C19.8483 62.5936 19.778 62.5818 19.7076 62.5701C19.6373 62.5584 19.5669 62.5467 19.4966 62.5349C19.3559 62.5115 19.2152 62.4763 19.0863 62.4529C18.969 62.4294 18.8401 62.406 18.7228 62.3708C18.5704 62.3356 18.418 62.3005 18.2656 62.2653C18.1249 62.2301 17.9842 62.1949 17.8435 62.1598C17.7263 62.1246 17.6091 62.1012 17.5035 62.066C17.4684 62.0543 17.4215 62.0425 17.3863 62.0308C17.2808 61.9956 17.1753 61.9722 17.058 61.937C16.9877 61.9136 16.9173 61.9018 16.847 61.8784C16.7532 61.855 16.6594 61.8198 16.5774 61.7963C16.4718 61.7612 16.3781 61.726 16.2725 61.6908C16.167 61.6557 16.0732 61.6205 15.9677 61.5853C15.6629 61.4798 15.3698 61.3626 15.065 61.2453C14.9829 61.2101 14.8891 61.175 14.8071 61.1398C14.6429 61.0695 14.4671 60.9991 14.3029 60.9288C14.1857 60.8819 14.0685 60.8233 13.963 60.7764C13.8457 60.7177 13.7285 60.6709 13.6112 60.6122C13.5057 60.5653 13.4002 60.5067 13.2947 60.4598C12.8492 60.2371 12.4037 60.0026 11.9816 59.7564C11.8878 59.6978 11.7823 59.6392 11.6885 59.5805C11.4658 59.4516 11.243 59.3109 11.0203 59.1702C10.9265 59.1116 10.8327 59.053 10.7506 58.9943C10.2934 58.7013 9.85962 58.3964 9.44929 58.0799ZM22.3572 62.8984C22.4275 62.8984 22.4862 62.9101 22.5565 62.9101C22.4862 62.9101 22.4275 62.9101 22.3572 62.8984Z" fill="#FF0000"/>
<path d="M22.5566 62.9099C22.6739 62.9216 22.7794 62.9216 22.8849 62.9216C22.7677 62.9216 22.6622 62.9216 22.5566 62.9099ZM22.8732 62.9334C22.9553 62.9334 23.0256 62.9451 23.1077 62.9451C23.0373 62.9334 22.9553 62.9334 22.8732 62.9334Z" fill="#FF0000"/>
<path d="M27.8206 62.6403C26.6482 62.8396 25.4524 62.9451 24.2331 62.9568C24.1276 62.9568 24.0221 62.9568 23.9283 62.9568C23.8462 62.9568 23.7641 62.9568 23.6821 62.9568C23.5883 62.9568 23.4945 62.9568 23.4007 62.9568C23.3069 62.9568 23.2131 62.9568 23.131 62.9451C22.9435 62.9451 22.7559 62.9333 22.5683 62.9216C22.498 62.9216 22.4159 62.9099 22.3455 62.9099C22.24 62.8982 22.1345 62.8982 22.029 62.8865C21.9 62.8747 21.7711 62.863 21.6421 62.8513C21.4897 62.8396 21.349 62.8161 21.2083 62.8044C21.1145 62.7927 21.0325 62.7809 20.9504 62.7692C20.8449 62.7575 20.7394 62.7458 20.6339 62.7223C20.5753 62.7106 20.5166 62.7106 20.4697 62.6989C20.3291 62.6754 20.2001 62.6637 20.0711 62.6403C20.0242 62.6285 19.9773 62.6285 19.9304 62.6168C19.8601 62.6051 19.7898 62.5934 19.7194 62.5816C19.6491 62.5699 19.5787 62.5582 19.5084 62.5465C19.3677 62.523 19.227 62.4996 19.0981 62.4644C18.9808 62.4409 18.8519 62.4175 18.7346 62.3823C18.5822 62.3472 18.4298 62.312 18.2774 62.2768C18.1367 62.2416 17.996 62.2065 17.8553 62.1713C17.7381 62.1361 17.6209 62.1127 17.5153 62.0775C17.4802 62.0658 17.4333 62.0541 17.3981 62.0423C17.2926 62.0072 17.1871 61.9837 17.0698 61.9486C16.9995 61.9251 16.9292 61.9134 16.8588 61.8899C16.765 61.8665 16.6712 61.8313 16.5892 61.8079C16.4836 61.7727 16.3899 61.7375 16.2843 61.7141C16.1788 61.6789 16.085 61.6437 15.9795 61.6086C15.6747 61.503 15.3816 61.3858 15.0768 61.2686C14.9947 61.2334 14.9009 61.1982 14.8189 61.1631C14.6547 61.0927 14.4789 61.0224 14.3147 60.952C14.1975 60.9051 14.0803 60.8465 13.9748 60.7996C13.8575 60.741 13.7403 60.6941 13.623 60.6355C13.5175 60.5886 13.412 60.53 13.3065 60.4831C12.861 60.2603 12.4155 60.0258 11.9934 59.7796C11.8996 59.721 11.7941 59.6624 11.7003 59.6038C11.4776 59.4748 11.2548 59.3341 11.0321 59.1935C10.9383 59.1348 10.8445 59.0762 10.7507 59.0176C10.5162 58.8652 10.2818 58.7011 10.059 58.5369C9.95349 58.4549 9.84798 58.3845 9.73074 58.3024C9.71902 58.2907 9.70729 58.279 9.68385 58.2673C9.60178 58.2087 9.53144 58.15 9.44937 58.0914C9.42592 58.068 9.39075 58.0445 9.3673 58.0328C9.34386 58.0094 9.32041 57.9976 9.28524 57.9742C9.17972 57.8921 9.07421 57.81 8.96869 57.728C8.91008 57.6811 8.83973 57.6342 8.78111 57.5756C8.7225 57.5287 8.66388 57.4818 8.60526 57.4232C8.54664 57.3763 8.4763 57.3176 8.41768 57.2708C8.37078 57.2356 8.33561 57.2004 8.28871 57.1652C8.27699 57.1652 8.27699 57.1535 8.26527 57.1418C8.21837 57.0949 8.15975 57.048 8.11286 57.0128C7.937 56.8604 7.77287 56.708 7.59701 56.5439C7.53839 56.497 7.47977 56.4384 7.43288 56.3915C3.82195 52.9447 1.28961 48.3841 0.386875 43.2608C0.140675 41.9009 0.0234375 40.5057 0.0234375 39.0754V12.4624H8.2301V37.4458C8.19492 38.0086 8.17148 38.5713 8.17148 39.134C8.17148 43.5891 9.39075 47.7628 11.5128 51.3268C14.3147 56.0515 18.6994 59.721 23.94 61.6203C25.171 62.0423 26.484 62.3941 27.8206 62.6403Z" fill="url(#paint2_linear)"/>
<path d="M47.5164 35.1363C47.2819 36.4611 46.9302 37.739 46.4847 38.9817C44.6089 44.1988 40.9628 48.5835 36.2733 51.4089C33.3071 53.1909 29.919 54.3516 26.2963 54.7033C33.143 53.6951 38.5477 48.2787 39.5676 41.4437C39.6614 40.8223 39.7201 40.1893 39.7318 39.5562C39.7318 39.4858 39.7318 39.4272 39.7318 39.3569C39.7318 39.2748 39.7318 39.1927 39.7318 39.1107V39.0403C39.7318 38.9934 39.7318 38.9465 39.7318 38.8996C39.7201 38.1845 39.6614 37.4693 39.5676 36.7776C39.2042 33.0026 37.9615 29.4854 36.0505 26.4255C33.2368 21.9353 28.9693 18.4416 23.9164 16.601C22.5564 16.1086 21.1378 15.7334 19.6841 15.4989C19.7427 15.4872 19.813 15.4755 19.8834 15.4638C21.1965 15.241 22.5447 15.1238 23.9281 15.1238C25.3115 15.1238 26.6597 15.241 27.9728 15.4638C28.0432 15.4755 28.1018 15.4872 28.1721 15.4989C34.3623 16.6127 39.7318 20.1064 43.2841 24.9952C45.2654 27.7269 46.684 30.8806 47.364 34.3039C47.4226 34.5853 47.4695 34.8549 47.5164 35.1363Z" fill="url(#paint3_linear)"/>
<path d="M39.5793 36.7777C38.4538 29.169 31.9002 23.3305 23.9749 23.3305C21.2316 23.3305 18.6641 24.0339 16.4131 25.2649V16.3314C17.4682 15.9797 18.5585 15.71 19.684 15.5107C21.1495 15.7569 22.5564 16.1204 23.9163 16.6128C28.981 18.4417 33.2367 21.9354 36.0504 26.4373C37.9731 29.4855 39.2159 33.0026 39.5793 36.7777Z" fill="url(#paint4_linear)"/>
<path d="M47.833 38.9816V39.0403C47.833 39.1458 47.833 39.2513 47.833 39.3451C47.8213 40.5409 47.7158 41.725 47.5282 42.8739C45.8986 52.9447 37.9967 60.9051 27.9612 62.6168C27.9143 62.6285 27.8674 62.6285 27.8205 62.6403C26.484 62.4058 25.1709 62.0541 23.9165 61.5968C18.6759 59.6976 14.2912 56.028 11.4892 51.3033C9.36722 47.7393 8.14795 43.5656 8.14795 39.1106C8.14795 38.5479 8.1714 37.9851 8.20657 37.4224V39.1106C8.20657 47.0359 14.045 53.5895 21.6538 54.7032C22.3455 54.8088 23.0489 54.8674 23.7758 54.8674C23.7875 54.8674 23.7992 54.8674 23.8109 54.8674C23.8696 54.8674 23.9165 54.8674 23.9751 54.8674C24.3971 54.8674 24.8075 54.8557 25.2178 54.8205C25.5812 54.797 25.9447 54.7501 26.2964 54.7032C29.919 54.3515 33.3072 53.1909 36.2733 51.4089C40.9629 48.5951 44.609 44.2104 46.4848 38.9816C46.9303 37.7389 47.2703 36.461 47.5165 35.1362C47.6923 36.1914 47.7978 37.2817 47.8213 38.372C47.8213 38.4892 47.833 38.6065 47.833 38.7237C47.833 38.8175 47.833 38.8996 47.833 38.9816Z" fill="url(#paint5_linear)"/>
<defs>
<linearGradient id="paint0_linear" x1="-1.06839" y1="0.187438" x2="0.122898" y2="10.3024" gradientUnits="userSpaceOnUse">
<stop stop-color="#6F0DBC"/>
<stop offset="0.479167" stop-color="#4A7ADA"/>
<stop offset="1" stop-color="#74A2FF"/>
</linearGradient>
<linearGradient id="paint1_linear" x1="8.77606" y1="57.6314" x2="8.97536" y2="57.6314" gradientUnits="userSpaceOnUse">
<stop stop-color="white"/>
<stop offset="1"/>
</linearGradient>
<linearGradient id="paint2_linear" x1="-3.59535" y1="13.6157" x2="9.31337" y2="73.9534" gradientUnits="userSpaceOnUse">
<stop stop-color="#6F0DBC"/>
<stop offset="0.608987" stop-color="#4A7ADA"/>
<stop offset="1" stop-color="#74A2FF"/>
</linearGradient>
<linearGradient id="paint3_linear" x1="27.5508" y1="15.1238" x2="34.2919" y2="54.7502" gradientUnits="userSpaceOnUse">
<stop stop-color="#6F0DBC"/>
<stop offset="0.479167" stop-color="#4A7ADA"/>
<stop offset="1" stop-color="#74A2FF"/>
</linearGradient>
<linearGradient id="paint4_linear" x1="16.4131" y1="26.1504" x2="39.5793" y2="26.1504" gradientUnits="userSpaceOnUse">
<stop stop-color="#6F0DBC"/>
<stop offset="0.479167" stop-color="#4A7ADA"/>
<stop offset="1" stop-color="#74A2FF"/>
</linearGradient>
<linearGradient id="paint5_linear" x1="13.5409" y1="58.4431" x2="49.5916" y2="36.6955" gradientUnits="userSpaceOnUse">
<stop stop-color="#6F0DBC"/>
<stop offset="0.479167" stop-color="#4A7ADA"/>
<stop offset="1" stop-color="#74A2FF"/>
</linearGradient>
</defs>
</svg>
