<svg width="114" height="193" viewBox="0 0 114 193" fill="none" xmlns="http://www.w3.org/2000/svg">
<path d="M56.6506 110.246C66.4662 110.246 74.4233 102.289 74.4233 92.4733C74.4233 82.6578 66.4662 74.7007 56.6506 74.7007C46.835 74.7007 38.8779 82.6578 38.8779 92.4733C38.8779 102.289 46.835 110.246 56.6506 110.246Z" fill="#FF0066"/>
<path d="M9.7204 19.4388C15.0883 19.4388 19.4398 15.0873 19.4398 9.71942C19.4398 4.35153 15.0883 0 9.7204 0C4.35251 0 0.000976562 4.35153 0.000976562 9.71942C0.000976562 15.0873 4.35251 19.4388 9.7204 19.4388Z" fill="url(#paint0_linear)"/>
<path d="M21.2724 136.711C21.1891 136.655 21.1058 136.6 21.0503 136.516C20.967 136.461 20.8837 136.378 20.8281 136.322C20.9392 136.461 21.1058 136.572 21.2724 136.711Z" fill="url(#paint1_linear)"/>
<path d="M20.3564 135.961C20.5786 136.155 20.8008 136.322 21.0229 136.516C21.1062 136.572 21.1895 136.655 21.2451 136.711C21.3284 136.794 21.4395 136.85 21.5228 136.933C21.6616 137.044 21.8282 137.155 21.9671 137.266C21.7172 137.072 21.4672 136.877 21.2173 136.683C21.0785 136.572 20.9118 136.461 20.773 136.322C20.6341 136.211 20.4953 136.072 20.3564 135.961Z" fill="#FF0000"/>
<path d="M21.9941 137.266C22.0219 137.266 22.0219 137.294 22.0497 137.294C22.0219 137.294 21.9941 137.294 21.9941 137.266ZM22.0219 137.294C22.0775 137.322 22.1052 137.377 22.1608 137.405C22.2163 137.461 22.2996 137.516 22.3551 137.572C22.2441 137.488 22.133 137.377 22.0219 137.294ZM22.3829 137.572C29.492 142.987 37.9062 146.763 47.098 148.318C47.2091 148.346 47.3202 148.346 47.4313 148.374C49.2363 148.679 51.0969 148.874 52.9575 148.985C52.9297 148.985 52.9019 148.985 52.9019 148.985C52.652 148.957 52.4021 148.957 52.1521 148.929C51.8467 148.902 51.5412 148.874 51.2357 148.846C50.8747 148.818 50.5415 148.763 50.2082 148.735C49.9861 148.707 49.7917 148.679 49.5973 148.652C49.3474 148.624 49.0975 148.596 48.8475 148.541C48.7087 148.513 48.5698 148.513 48.4587 148.485C48.1255 148.43 47.82 148.402 47.5146 148.346C47.4035 148.318 47.2924 148.318 47.1813 148.291C47.0147 148.263 46.8481 148.235 46.6815 148.207C46.5149 148.18 46.3482 148.152 46.1816 148.124C45.8484 148.069 45.5152 147.985 45.2097 147.93C44.932 147.874 44.6265 147.819 44.3488 147.735C43.9878 147.652 43.6268 147.569 43.2658 147.485C42.9326 147.402 42.5993 147.319 42.2661 147.235C41.9884 147.152 41.7107 147.097 41.4608 147.013C41.3775 146.986 41.2664 146.958 41.1831 146.93C40.9331 146.847 40.6832 146.791 40.4055 146.708C40.2389 146.652 40.0723 146.625 39.9057 146.569C39.6835 146.513 39.4613 146.43 39.2669 146.375C39.017 146.291 38.7949 146.208 38.5449 146.125C38.295 146.041 38.0728 145.958 37.8229 145.875C37.1009 145.625 36.4067 145.347 35.6846 145.069C35.4903 144.986 35.2681 144.903 35.0737 144.819C34.6849 144.653 34.2684 144.486 33.8796 144.32C33.6019 144.209 33.3242 144.07 33.0743 143.959C32.7966 143.82 32.5189 143.709 32.2412 143.57C31.9913 143.459 31.7413 143.32 31.4914 143.209C30.4362 142.681 29.3809 142.126 28.3812 141.543C28.159 141.404 27.9091 141.265 27.6869 141.126C27.1593 140.821 26.6317 140.487 26.1041 140.154C25.8819 140.015 25.6598 139.876 25.4654 139.738C24.3823 139.043 23.3549 138.321 22.3829 137.572ZM52.9575 148.985C53.1241 148.985 53.2629 149.013 53.4295 149.013C53.2629 149.013 53.1241 149.013 52.9575 148.985Z" fill="#FF0000"/>
<path d="M53.4297 149.013C53.7074 149.04 53.9573 149.04 54.2072 149.04C53.9295 149.04 53.6796 149.04 53.4297 149.013ZM54.1795 149.068C54.3739 149.068 54.5405 149.096 54.7349 149.096C54.5683 149.068 54.3739 149.068 54.1795 149.068Z" fill="#FF0000"/>
<path d="M65.8978 148.374C63.1208 148.846 60.2883 149.096 57.4003 149.124C57.1503 149.124 56.9004 149.124 56.6783 149.124C56.4839 149.124 56.2895 149.124 56.0951 149.124C55.8729 149.124 55.6508 149.124 55.4286 149.124C55.2065 149.124 54.9843 149.124 54.7899 149.096C54.3456 149.096 53.9013 149.068 53.457 149.041C53.2903 149.041 53.096 149.013 52.9293 149.013C52.6794 148.985 52.4295 148.985 52.1796 148.957C51.8741 148.93 51.5686 148.902 51.2632 148.874C50.9021 148.846 50.5689 148.791 50.2357 148.763C50.0135 148.735 49.8191 148.707 49.6247 148.68C49.3748 148.652 49.1249 148.624 48.875 148.569C48.7361 148.541 48.5973 148.541 48.4862 148.513C48.1529 148.458 47.8475 148.43 47.542 148.374C47.4309 148.346 47.3198 148.346 47.2088 148.319C47.0421 148.291 46.8755 148.263 46.7089 148.235C46.5423 148.208 46.3757 148.18 46.209 148.152C45.8758 148.097 45.5426 148.041 45.2371 147.958C44.9594 147.902 44.6539 147.847 44.3762 147.763C44.0152 147.68 43.6542 147.597 43.2932 147.513C42.96 147.43 42.6267 147.347 42.2935 147.263C42.0158 147.18 41.7381 147.125 41.4882 147.041C41.4049 147.013 41.2938 146.986 41.2105 146.958C40.9606 146.875 40.7106 146.819 40.4329 146.736C40.2663 146.68 40.0997 146.652 39.9331 146.597C39.7109 146.541 39.4888 146.458 39.2944 146.403C39.0444 146.319 38.8223 146.236 38.5724 146.18C38.3224 146.097 38.1003 146.014 37.8503 145.93C37.1283 145.681 36.4341 145.403 35.7121 145.125C35.5177 145.042 35.2955 144.959 35.1011 144.875C34.7124 144.709 34.2958 144.542 33.907 144.375C33.6293 144.264 33.3516 144.125 33.1017 144.014C32.824 143.876 32.5463 143.764 32.2686 143.626C32.0187 143.515 31.7688 143.376 31.5188 143.265C30.4636 142.737 29.4083 142.182 28.4086 141.598C28.1865 141.46 27.9365 141.321 27.7144 141.182C27.1867 140.876 26.6591 140.543 26.1315 140.21C25.9093 140.071 25.6872 139.932 25.465 139.793C24.9096 139.432 24.3542 139.044 23.8266 138.655C23.5767 138.46 23.3267 138.294 23.049 138.099C23.0213 138.072 22.9935 138.044 22.938 138.016C22.7436 137.877 22.577 137.738 22.3826 137.6C22.327 137.544 22.2437 137.488 22.1882 137.461C22.1326 137.405 22.0771 137.377 21.9938 137.322C21.7439 137.127 21.4939 136.933 21.244 136.739C21.1052 136.628 20.9385 136.517 20.7997 136.378C20.6608 136.267 20.522 136.156 20.3831 136.017C20.2443 135.906 20.0777 135.767 19.9388 135.656C19.8278 135.572 19.7444 135.489 19.6334 135.406C19.6056 135.406 19.6056 135.378 19.5778 135.35C19.4667 135.239 19.3279 135.128 19.2168 135.045C18.8003 134.684 18.4115 134.323 17.9949 133.934C17.8561 133.823 17.7172 133.684 17.6062 133.573C9.05307 125.409 3.0548 114.606 0.916527 102.471C0.333362 99.2495 0.0556641 95.9449 0.0556641 92.5569V29.5195H19.4945V88.6969C19.4112 90.0299 19.3557 91.3628 19.3557 92.6958C19.3557 103.248 22.2437 113.134 27.2701 121.576C33.907 132.768 44.2929 141.46 56.706 145.958C59.6219 146.958 62.7321 147.791 65.8978 148.374Z" fill="url(#paint2_linear)"/>
<path d="M112.551 83.2263C111.996 86.3643 111.163 89.3912 110.108 92.3348C105.665 104.692 97.0281 115.078 85.9202 121.771C78.8945 125.992 70.869 128.741 62.2881 129.574C78.5057 127.186 91.3076 114.356 93.7235 98.1664C93.9457 96.6946 94.0845 95.195 94.1123 93.6955C94.1123 93.5289 94.1123 93.39 94.1123 93.2234C94.1123 93.029 94.1123 92.8346 94.1123 92.6402V92.4736C94.1123 92.3625 94.1123 92.2514 94.1123 92.1404C94.0845 90.4464 93.9457 88.7525 93.7235 87.114C92.8627 78.1722 89.9191 69.8412 85.3926 62.5933C78.7279 51.9575 68.6196 43.6821 56.6509 39.3222C53.4296 38.1559 50.0694 37.2673 46.626 36.7119C46.7648 36.6841 46.9314 36.6563 47.0981 36.6286C50.2083 36.1009 53.4018 35.8232 56.6786 35.8232C59.9555 35.8232 63.149 36.1009 66.2592 36.6286C66.4258 36.6563 66.5647 36.6841 66.7313 36.7119C81.3937 39.35 94.1123 47.6254 102.527 59.2054C107.22 65.6758 110.58 73.1458 112.19 81.2546C112.329 81.9211 112.44 82.5598 112.551 83.2263Z" fill="url(#paint3_linear)"/>
<path d="M93.751 87.1139C91.0851 69.0913 75.5618 55.2619 56.7894 55.2619C50.2913 55.2619 44.2097 56.9281 38.8779 59.844V38.6834C41.3772 37.8503 43.9598 37.2116 46.6257 36.7395C50.0969 37.3227 53.4293 38.1835 56.6506 39.3499C68.6471 43.6819 78.7276 51.9573 85.3923 62.6209C89.9466 69.8411 92.8902 78.172 93.751 87.1139Z" fill="url(#paint4_linear)"/>
<path d="M113.302 92.3343V92.4732C113.302 92.7231 113.302 92.973 113.302 93.1952C113.274 96.0277 113.024 98.8324 112.579 101.554C108.719 125.408 90.0027 144.264 66.2317 148.318C66.1206 148.346 66.0096 148.346 65.8985 148.374C62.7327 147.818 59.6225 146.985 56.6511 145.902C44.238 141.404 33.8521 132.712 27.2152 121.52C22.1888 113.078 19.3008 103.192 19.3008 92.6398C19.3008 91.3068 19.3563 89.9739 19.4396 88.6409V92.6398C19.4396 111.412 33.269 126.935 51.2916 129.574C52.93 129.824 54.5962 129.962 56.3179 129.962C56.3457 129.962 56.3734 129.962 56.4012 129.962C56.5401 129.962 56.6511 129.962 56.79 129.962C57.7897 129.962 58.7617 129.935 59.7336 129.851C60.5945 129.796 61.4553 129.685 62.2884 129.574C70.8693 128.741 78.8947 125.991 85.9205 121.77C97.0284 115.106 105.665 104.72 110.108 92.3343C111.163 89.3907 111.969 86.3638 112.552 83.2258C112.968 85.7251 113.218 88.3077 113.274 90.8903C113.274 91.168 113.302 91.4457 113.302 91.7234C113.302 91.9455 113.302 92.1399 113.302 92.3343Z" fill="url(#paint5_linear)"/>
<path d="M16.5869 174.406C17.8699 174.773 18.8575 175.424 19.5499 176.361C20.2423 177.277 20.5885 178.397 20.5885 179.721C20.5885 180.923 20.2729 181.971 19.6416 182.867C19.0103 183.763 18.104 184.456 16.9229 184.945C15.7621 185.433 14.3875 185.678 12.7991 185.678H1.95499V163.928H12.5242C14.805 163.928 16.6174 164.438 17.9615 165.456C19.3056 166.474 19.9776 167.849 19.9776 169.58C19.9776 170.7 19.6823 171.687 19.0917 172.543C18.5012 173.398 17.6662 174.019 16.5869 174.406ZM7.54505 172.451H11.5467C12.6056 172.451 13.3795 172.288 13.8682 171.962C14.357 171.636 14.6014 171.117 14.6014 170.404C14.6014 169.671 14.3468 169.132 13.8377 168.785C13.3489 168.439 12.5853 168.266 11.5467 168.266H7.54505V172.451ZM12.1271 181.34C13.2267 181.34 14.0108 181.167 14.4792 180.821C14.9679 180.475 15.2123 179.894 15.2123 179.08C15.2123 178.245 14.9781 177.654 14.5097 177.308C14.0413 176.962 13.2471 176.789 12.1271 176.789H7.54505V181.34H12.1271ZM31.2233 185.922C29.4923 185.922 27.9854 185.596 26.7024 184.945C25.4194 184.293 24.4318 183.356 23.7394 182.134C23.047 180.912 22.7008 179.477 22.7008 177.827C22.7008 176.178 23.047 174.742 23.7394 173.52C24.4318 172.298 25.4194 171.361 26.7024 170.71C27.9854 170.058 29.4923 169.732 31.2233 169.732C32.9339 169.732 34.4206 170.068 35.6832 170.74C36.9661 171.392 37.9538 172.329 38.6462 173.551C39.3386 174.752 39.6848 176.178 39.6848 177.827C39.6848 179.477 39.3386 180.912 38.6462 182.134C37.9538 183.336 36.9661 184.273 35.6832 184.945C34.4206 185.596 32.9339 185.922 31.2233 185.922ZM31.2233 181.798C33.219 181.798 34.2169 180.475 34.2169 177.827C34.2169 176.483 33.9624 175.495 33.4532 174.864C32.9645 174.213 32.2212 173.887 31.2233 173.887C30.2051 173.887 29.4414 174.213 28.9323 174.864C28.4232 175.495 28.1687 176.483 28.1687 177.827C28.1687 179.192 28.4232 180.2 28.9323 180.851C29.4414 181.483 30.2051 181.798 31.2233 181.798ZM50.4117 185.922C48.6807 185.922 47.1738 185.596 45.8908 184.945C44.6078 184.293 43.6201 183.356 42.9278 182.134C42.2354 180.912 41.8892 179.477 41.8892 177.827C41.8892 176.178 42.2354 174.742 42.9278 173.52C43.6201 172.298 44.6078 171.361 45.8908 170.71C47.1738 170.058 48.6807 169.732 50.4117 169.732C52.1223 169.732 53.6089 170.068 54.8715 170.74C56.1545 171.392 57.1422 172.329 57.8346 173.551C58.527 174.752 58.8732 176.178 58.8732 177.827C58.8732 179.477 58.527 180.912 57.8346 182.134C57.1422 183.336 56.1545 184.273 54.8715 184.945C53.6089 185.596 52.1223 185.922 50.4117 185.922ZM50.4117 181.798C52.4074 181.798 53.4053 180.475 53.4053 177.827C53.4053 176.483 53.1507 175.495 52.6416 174.864C52.1529 174.213 51.4096 173.887 50.4117 173.887C49.3935 173.887 48.6298 174.213 48.1207 174.864C47.6116 175.495 47.357 176.483 47.357 177.827C47.357 179.192 47.6116 180.2 48.1207 180.851C48.6298 181.483 49.3935 181.798 50.4117 181.798ZM72.5937 185.678L67.3091 178.988V185.678H61.7801V163.195H67.3091V176.636L72.502 170.191H79.039L72.9297 177.613L79.2834 185.678H72.5937Z" fill="url(#paint6_linear)"/>
<path d="M16.5869 174.406C17.8699 174.773 18.8575 175.424 19.5499 176.361C20.2423 177.277 20.5885 178.397 20.5885 179.721C20.5885 180.923 20.2729 181.971 19.6416 182.867C19.0103 183.763 18.104 184.456 16.9229 184.945C15.7621 185.433 14.3875 185.678 12.7991 185.678H1.95499V163.928H12.5242C14.805 163.928 16.6174 164.438 17.9615 165.456C19.3056 166.474 19.9776 167.849 19.9776 169.58C19.9776 170.7 19.6823 171.687 19.0917 172.543C18.5012 173.398 17.6662 174.019 16.5869 174.406ZM7.54505 172.451H11.5467C12.6056 172.451 13.3795 172.288 13.8682 171.962C14.357 171.636 14.6014 171.117 14.6014 170.404C14.6014 169.671 14.3468 169.132 13.8377 168.785C13.3489 168.439 12.5853 168.266 11.5467 168.266H7.54505V172.451ZM12.1271 181.34C13.2267 181.34 14.0108 181.167 14.4792 180.821C14.9679 180.475 15.2123 179.894 15.2123 179.08C15.2123 178.245 14.9781 177.654 14.5097 177.308C14.0413 176.962 13.2471 176.789 12.1271 176.789H7.54505V181.34H12.1271ZM31.2233 185.922C29.4923 185.922 27.9854 185.596 26.7024 184.945C25.4194 184.293 24.4318 183.356 23.7394 182.134C23.047 180.912 22.7008 179.477 22.7008 177.827C22.7008 176.178 23.047 174.742 23.7394 173.52C24.4318 172.298 25.4194 171.361 26.7024 170.71C27.9854 170.058 29.4923 169.732 31.2233 169.732C32.9339 169.732 34.4206 170.068 35.6832 170.74C36.9661 171.392 37.9538 172.329 38.6462 173.551C39.3386 174.752 39.6848 176.178 39.6848 177.827C39.6848 179.477 39.3386 180.912 38.6462 182.134C37.9538 183.336 36.9661 184.273 35.6832 184.945C34.4206 185.596 32.9339 185.922 31.2233 185.922ZM31.2233 181.798C33.219 181.798 34.2169 180.475 34.2169 177.827C34.2169 176.483 33.9624 175.495 33.4532 174.864C32.9645 174.213 32.2212 173.887 31.2233 173.887C30.2051 173.887 29.4414 174.213 28.9323 174.864C28.4232 175.495 28.1687 176.483 28.1687 177.827C28.1687 179.192 28.4232 180.2 28.9323 180.851C29.4414 181.483 30.2051 181.798 31.2233 181.798ZM50.4117 185.922C48.6807 185.922 47.1738 185.596 45.8908 184.945C44.6078 184.293 43.6201 183.356 42.9278 182.134C42.2354 180.912 41.8892 179.477 41.8892 177.827C41.8892 176.178 42.2354 174.742 42.9278 173.52C43.6201 172.298 44.6078 171.361 45.8908 170.71C47.1738 170.058 48.6807 169.732 50.4117 169.732C52.1223 169.732 53.6089 170.068 54.8715 170.74C56.1545 171.392 57.1422 172.329 57.8346 173.551C58.527 174.752 58.8732 176.178 58.8732 177.827C58.8732 179.477 58.527 180.912 57.8346 182.134C57.1422 183.336 56.1545 184.273 54.8715 184.945C53.6089 185.596 52.1223 185.922 50.4117 185.922ZM50.4117 181.798C52.4074 181.798 53.4053 180.475 53.4053 177.827C53.4053 176.483 53.1507 175.495 52.6416 174.864C52.1529 174.213 51.4096 173.887 50.4117 173.887C49.3935 173.887 48.6298 174.213 48.1207 174.864C47.6116 175.495 47.357 176.483 47.357 177.827C47.357 179.192 47.6116 180.2 48.1207 180.851C48.6298 181.483 49.3935 181.798 50.4117 181.798ZM72.5937 185.678L67.3091 178.988V185.678H61.7801V163.195H67.3091V176.636L72.502 170.191H79.039L72.9297 177.613L79.2834 185.678H72.5937Z" fill="#3B3E6F" fill-opacity="0.3"/>
<path d="M91.6513 163.928H97.3941V185.678H91.6513V163.928ZM110.48 181.462C110.847 181.462 111.336 181.401 111.947 181.279V185.464C111.193 185.769 110.236 185.922 109.075 185.922C106.978 185.922 105.379 185.332 104.28 184.15C103.2 182.969 102.661 181.33 102.661 179.232V174.223H99.7586V170.16H102.661V166.647L108.189 164.875V170.16H111.916V174.223H108.189V179.232C108.189 179.965 108.403 180.526 108.831 180.912C109.279 181.279 109.829 181.462 110.48 181.462Z" fill="#FF0066"/>
<defs>
<linearGradient id="paint0_linear" x1="-2.52969" y1="0.443979" x2="0.292082" y2="24.4031" gradientUnits="userSpaceOnUse">
<stop stop-color="#6F0DBC"/>
<stop offset="0.479167" stop-color="#4A7ADA"/>
<stop offset="1" stop-color="#74A2FF"/>
</linearGradient>
<linearGradient id="paint1_linear" x1="20.7881" y1="136.509" x2="21.2601" y2="136.509" gradientUnits="userSpaceOnUse">
<stop stop-color="white"/>
<stop offset="1"/>
</linearGradient>
<linearGradient id="paint2_linear" x1="-8.51605" y1="32.2513" x2="22.0604" y2="175.171" gradientUnits="userSpaceOnUse">
<stop stop-color="#6F0DBC"/>
<stop offset="0.608987" stop-color="#4A7ADA"/>
<stop offset="1" stop-color="#74A2FF"/>
</linearGradient>
<linearGradient id="paint3_linear" x1="65.2595" y1="35.8232" x2="81.2272" y2="129.685" gradientUnits="userSpaceOnUse">
<stop stop-color="#6F0DBC"/>
<stop offset="0.479167" stop-color="#4A7ADA"/>
<stop offset="1" stop-color="#74A2FF"/>
</linearGradient>
<linearGradient id="paint4_linear" x1="38.8779" y1="61.9413" x2="93.751" y2="61.9413" gradientUnits="userSpaceOnUse">
<stop stop-color="#6F0DBC"/>
<stop offset="0.479167" stop-color="#4A7ADA"/>
<stop offset="1" stop-color="#74A2FF"/>
</linearGradient>
<linearGradient id="paint5_linear" x1="32.0749" y1="138.432" x2="117.467" y2="86.9192" gradientUnits="userSpaceOnUse">
<stop stop-color="#6F0DBC"/>
<stop offset="0.479167" stop-color="#4A7ADA"/>
<stop offset="1" stop-color="#74A2FF"/>
</linearGradient>
<linearGradient id="paint6_linear" x1="0" y1="173.85" x2="78.5885" y2="173.85" gradientUnits="userSpaceOnUse">
<stop stop-color="#6F0DBC"/>
<stop offset="0.479167" stop-color="#4A7ADA"/>
<stop offset="1" stop-color="#74A2FF"/>
</linearGradient>
</defs>
</svg>
