<svg width="194" height="327" viewBox="0 0 194 327" fill="none" xmlns="http://www.w3.org/2000/svg">
<path d="M24.1778 29.6417C32.3631 29.6417 38.9987 23.0062 38.9987 14.8209C38.9987 6.63553 32.3631 0 24.1778 0C15.9925 0 9.35693 6.63553 9.35693 14.8209C9.35693 23.0062 15.9925 29.6417 24.1778 29.6417Z" fill="url(#paint0_linear)"/>
<path d="M41.7796 208.466C41.6525 208.382 41.5255 208.297 41.4408 208.17C41.3138 208.085 41.1867 207.958 41.1021 207.874C41.2714 208.085 41.5255 208.255 41.7796 208.466Z" fill="url(#paint1_linear)"/>
<path d="M40.3921 207.322C40.7309 207.618 41.0696 207.872 41.4084 208.169C41.5354 208.253 41.6624 208.38 41.7471 208.465C41.8742 208.592 42.0436 208.677 42.1706 208.804C42.3823 208.973 42.6364 209.143 42.8481 209.312C42.467 209.016 42.0859 208.719 41.7048 208.423C41.4931 208.253 41.239 208.084 41.0273 207.872C40.8155 207.703 40.6038 207.491 40.3921 207.322Z" fill="#FF0000"/>
<path d="M42.8867 209.313C42.9291 209.313 42.9291 209.356 42.9714 209.356C42.9291 209.356 42.8867 209.356 42.8867 209.313ZM42.9291 209.356C43.0138 209.398 43.0561 209.483 43.1408 209.525C43.2255 209.61 43.3525 209.695 43.4372 209.779C43.2678 209.652 43.0984 209.483 42.9291 209.356ZM43.4796 209.779C54.32 218.037 67.1506 223.796 81.1669 226.167C81.3363 226.209 81.5057 226.209 81.6751 226.252C84.4275 226.717 87.2646 227.014 90.1018 227.183C90.0594 227.183 90.0171 227.183 90.0171 227.183C89.636 227.141 89.2549 227.141 88.8738 227.099C88.408 227.056 87.9422 227.014 87.4764 226.971C86.9259 226.929 86.4177 226.844 85.9096 226.802C85.5708 226.76 85.2744 226.717 84.978 226.675C84.5969 226.633 84.2158 226.59 83.8347 226.506C83.6229 226.463 83.4112 226.463 83.2418 226.421C82.7337 226.336 82.2679 226.294 81.8021 226.209C81.6327 226.167 81.4633 226.167 81.2939 226.125C81.0399 226.082 80.7858 226.04 80.5317 225.998C80.2777 225.955 80.0236 225.913 79.7695 225.871C79.2614 225.786 78.7532 225.659 78.2874 225.574C77.864 225.489 77.3982 225.405 76.9747 225.278C76.4242 225.151 75.8737 225.024 75.3233 224.897C74.8151 224.77 74.307 224.643 73.7988 224.515C73.3754 224.388 72.9519 224.304 72.5708 224.177C72.4438 224.134 72.2744 224.092 72.1474 224.05C71.7662 223.923 71.3851 223.838 70.9617 223.711C70.7076 223.626 70.4535 223.584 70.1995 223.499C69.8607 223.414 69.5219 223.287 69.2255 223.203C68.8444 223.076 68.5057 222.949 68.1245 222.822C67.7434 222.695 67.4047 222.568 67.0236 222.441C65.9226 222.059 64.864 221.636 63.763 221.213C63.4666 221.085 63.1278 220.958 62.8314 220.831C62.2385 220.577 61.6034 220.323 61.0105 220.069C60.5871 219.9 60.1636 219.688 59.7825 219.519C59.3591 219.307 58.9356 219.138 58.5122 218.926C58.131 218.756 57.7499 218.545 57.3688 218.375C55.7597 217.571 54.1506 216.724 52.6261 215.835C52.2874 215.623 51.9063 215.411 51.5675 215.199C50.763 214.734 49.9584 214.226 49.1538 213.717C48.8151 213.506 48.4763 213.294 48.1799 213.082C46.5284 212.024 44.9616 210.923 43.4796 209.779ZM90.1018 227.183C90.3559 227.183 90.5676 227.226 90.8216 227.226C90.5676 227.226 90.3559 227.226 90.1018 227.183Z" fill="#FF0000"/>
<path d="M90.8179 227.225C91.2413 227.267 91.6224 227.267 92.0035 227.267C91.5801 227.267 91.199 227.267 90.8179 227.225ZM91.9612 227.31C92.2576 227.31 92.5117 227.352 92.8081 227.352C92.554 227.31 92.2576 227.31 91.9612 227.31Z" fill="#FF0000"/>
<path d="M109.831 226.251C105.596 226.971 101.277 227.352 96.8728 227.394C96.4917 227.394 96.1106 227.394 95.7719 227.394C95.4754 227.394 95.179 227.394 94.8826 227.394C94.5438 227.394 94.2051 227.394 93.8663 227.394C93.5275 227.394 93.1888 227.394 92.8924 227.352C92.2148 227.352 91.5373 227.309 90.8598 227.267C90.6057 227.267 90.3093 227.225 90.0552 227.225C89.6741 227.182 89.293 227.182 88.9119 227.14C88.4461 227.098 87.9803 227.055 87.5145 227.013C86.964 226.971 86.4559 226.886 85.9477 226.844C85.609 226.801 85.3125 226.759 85.0161 226.717C84.635 226.674 84.2539 226.632 83.8728 226.547C83.6611 226.505 83.4494 226.505 83.28 226.462C82.7718 226.378 82.306 226.335 81.8402 226.251C81.6708 226.208 81.5015 226.208 81.3321 226.166C81.078 226.124 80.8239 226.081 80.5699 226.039C80.3158 225.997 80.0617 225.954 79.8076 225.912C79.2995 225.827 78.7914 225.743 78.3256 225.616C77.9021 225.531 77.4363 225.446 77.0129 225.319C76.4624 225.192 75.9119 225.065 75.3614 224.938C74.8532 224.811 74.3451 224.684 73.837 224.557C73.4135 224.43 72.99 224.345 72.6089 224.218C72.4819 224.176 72.3125 224.133 72.1855 224.091C71.8044 223.964 71.4233 223.879 70.9998 223.752C70.7458 223.668 70.4917 223.625 70.2376 223.541C69.8988 223.456 69.5601 223.329 69.2637 223.244C68.8826 223.117 68.5438 222.99 68.1627 222.905C67.7816 222.778 67.4428 222.651 67.0617 222.524C65.9607 222.143 64.9021 221.72 63.8011 221.296C63.5047 221.169 63.1659 221.042 62.8695 220.915C62.2767 220.661 61.6415 220.407 61.0487 220.153C60.6252 219.984 60.2018 219.772 59.8206 219.603C59.3972 219.391 58.9737 219.221 58.5503 219.01C58.1692 218.84 57.7881 218.629 57.407 218.459C55.7978 217.655 54.1887 216.808 52.6643 215.918C52.3255 215.707 51.9444 215.495 51.6057 215.283C50.8011 214.818 49.9965 214.309 49.192 213.801C48.8532 213.589 48.5144 213.378 48.1757 213.166C47.3288 212.616 46.4819 212.023 45.6773 211.43C45.2962 211.133 44.9151 210.879 44.4916 210.583C44.4493 210.541 44.4069 210.498 44.3223 210.456C44.0258 210.244 43.7718 210.033 43.4753 209.821C43.3907 209.736 43.2636 209.651 43.1789 209.609C43.0942 209.524 43.0095 209.482 42.8825 209.397C42.5014 209.101 42.1203 208.804 41.7392 208.508C41.5275 208.339 41.2734 208.169 41.0617 207.958C40.8499 207.788 40.6382 207.619 40.4265 207.407C40.2148 207.238 39.9607 207.026 39.749 206.857C39.5796 206.73 39.4525 206.603 39.2832 206.475C39.2408 206.475 39.2408 206.433 39.1985 206.391C39.0291 206.221 38.8174 206.052 38.648 205.925C38.0128 205.375 37.42 204.824 36.7848 204.231C36.5731 204.062 36.3613 203.85 36.1919 203.681C23.1496 191.231 14.003 174.759 10.7424 156.254C9.85314 151.342 9.42969 146.303 9.42969 141.137V45.0127H39.0714V135.251C38.9444 137.283 38.8597 139.316 38.8597 141.348C38.8597 157.44 43.2636 172.515 50.9281 185.387C61.0487 202.453 76.8858 215.707 95.8142 222.567C100.26 224.091 105.003 225.362 109.831 226.251Z" fill="url(#paint2_linear)"/>
<path d="M180.972 126.909C180.125 131.694 178.855 136.31 177.246 140.799C170.471 159.642 157.301 175.479 140.363 185.685C129.65 192.121 117.412 196.313 104.327 197.584C129.057 193.942 148.578 174.378 152.262 149.691C152.601 147.447 152.813 145.16 152.855 142.873C152.855 142.619 152.855 142.408 152.855 142.154C152.855 141.857 152.855 141.561 152.855 141.264V141.01C152.855 140.841 152.855 140.671 152.855 140.502C152.813 137.919 152.601 135.336 152.262 132.838C150.949 119.202 146.461 106.499 139.558 95.4466C129.396 79.2284 113.982 66.6095 95.731 59.9612C90.8189 58.1827 85.6952 56.8277 80.4443 55.9808C80.6561 55.9384 80.9101 55.8961 81.1642 55.8537C85.9069 55.0492 90.7766 54.6257 95.7734 54.6257C100.77 54.6257 105.64 55.0492 110.383 55.8537C110.637 55.8961 110.848 55.9384 111.102 55.9808C133.461 60.0036 152.855 72.6225 165.686 90.2805C172.842 100.147 177.966 111.538 180.422 123.903C180.633 124.919 180.803 125.893 180.972 126.909Z" fill="url(#paint3_linear)"/>
<path d="M152.302 132.837C148.237 105.355 124.566 84.2671 95.9402 84.2671C86.0314 84.2671 76.7577 86.8078 68.6274 91.254V58.9869C72.4385 57.7165 76.3766 56.7426 80.4418 56.0227C85.735 56.912 90.8164 58.2247 95.7285 60.0032C114.022 66.609 129.393 79.228 139.556 95.4886C146.501 106.498 150.989 119.202 152.302 132.837Z" fill="url(#paint4_linear)"/>
<path d="M182.113 140.798V141.01C182.113 141.391 182.113 141.772 182.113 142.111C182.071 146.43 181.69 150.707 181.012 154.857C175.126 191.231 146.586 219.984 110.338 226.166C110.169 226.209 109.999 226.209 109.83 226.251C105.003 225.404 100.26 224.134 95.7289 222.482C76.8005 215.622 60.9634 202.368 50.8428 185.303C43.1783 172.43 38.7744 157.355 38.7744 141.264C38.7744 139.231 38.8591 137.199 38.9861 135.166V141.264C38.9861 169.889 60.0741 193.56 87.5563 197.583C90.0546 197.964 92.5953 198.176 95.2208 198.176C95.2631 198.176 95.3055 198.176 95.3478 198.176C95.5595 198.176 95.7289 198.176 95.9406 198.176C97.4651 198.176 98.9472 198.134 100.429 198.007C101.742 197.922 103.055 197.752 104.325 197.583C117.41 196.313 129.648 192.121 140.361 185.684C157.299 175.521 170.468 159.684 177.244 140.798C178.853 136.309 180.081 131.694 180.97 126.909C181.605 130.72 181.986 134.658 182.071 138.596C182.071 139.019 182.113 139.443 182.113 139.866C182.113 140.205 182.113 140.502 182.113 140.798Z" fill="url(#paint5_linear)"/>
<path d="M34.6332 265.675C36.5896 266.234 38.0956 267.228 39.1515 268.656C40.2073 270.054 40.7352 271.761 40.7352 273.78C40.7352 275.612 40.2538 277.211 39.2912 278.578C38.3285 279.944 36.9467 281 35.1456 281.745C33.3755 282.49 31.2795 282.863 28.8573 282.863H12.3214V249.698H28.4381C31.916 249.698 34.6798 250.474 36.7293 252.027C38.7788 253.58 39.8036 255.676 39.8036 258.315C39.8036 260.023 39.3533 261.529 38.4528 262.834C37.5522 264.138 36.279 265.085 34.6332 265.675ZM20.8456 262.694H26.9475C28.5623 262.694 29.7423 262.446 30.4876 261.949C31.2329 261.452 31.6055 260.66 31.6055 259.573C31.6055 258.455 31.2173 257.632 30.441 257.104C29.6957 256.576 28.5312 256.313 26.9475 256.313H20.8456V262.694ZM27.8325 276.249C29.5094 276.249 30.705 275.985 31.4192 275.457C32.1645 274.929 32.5371 274.044 32.5371 272.802C32.5371 271.529 32.18 270.628 31.4658 270.1C30.7515 269.572 29.5405 269.308 27.8325 269.308H20.8456V276.249H27.8325ZM56.9519 283.236C54.3124 283.236 52.0144 282.739 50.0581 281.745C48.1017 280.751 46.5956 279.323 45.5398 277.46C44.484 275.597 43.9561 273.407 43.9561 270.892C43.9561 268.377 44.484 266.187 45.5398 264.324C46.5956 262.461 48.1017 261.033 50.0581 260.039C52.0144 259.045 54.3124 258.548 56.9519 258.548C59.5604 258.548 61.8272 259.061 63.7525 260.085C65.7089 261.079 67.215 262.508 68.2708 264.371C69.3266 266.203 69.8545 268.377 69.8545 270.892C69.8545 273.407 69.3266 275.597 68.2708 277.46C67.215 279.292 65.7089 280.72 63.7525 281.745C61.8272 282.739 59.5604 283.236 56.9519 283.236ZM56.9519 276.947C59.9951 276.947 61.5167 274.929 61.5167 270.892C61.5167 268.842 61.1285 267.336 60.3522 266.374C59.6069 265.38 58.4735 264.883 56.9519 264.883C55.3992 264.883 54.2347 265.38 53.4584 266.374C52.6821 267.336 52.2939 268.842 52.2939 270.892C52.2939 272.973 52.6821 274.51 53.4584 275.503C54.2347 276.466 55.3992 276.947 56.9519 276.947ZM86.2117 283.236C83.5722 283.236 81.2742 282.739 79.3179 281.745C77.3615 280.751 75.8554 279.323 74.7996 277.46C73.7438 275.597 73.2159 273.407 73.2159 270.892C73.2159 268.377 73.7438 266.187 74.7996 264.324C75.8554 262.461 77.3615 261.033 79.3179 260.039C81.2742 259.045 83.5722 258.548 86.2117 258.548C88.8202 258.548 91.087 259.061 93.0123 260.085C94.9687 261.079 96.4748 262.508 97.5306 264.371C98.5864 266.203 99.1143 268.377 99.1143 270.892C99.1143 273.407 98.5864 275.597 97.5306 277.46C96.4748 279.292 94.9687 280.72 93.0123 281.745C91.087 282.739 88.8202 283.236 86.2117 283.236ZM86.2117 276.947C89.2549 276.947 90.7765 274.929 90.7765 270.892C90.7765 268.842 90.3883 267.336 89.612 266.374C88.8667 265.38 87.7333 264.883 86.2117 264.883C84.659 264.883 83.4945 265.38 82.7182 266.374C81.9419 267.336 81.5537 268.842 81.5537 270.892C81.5537 272.973 81.9419 274.51 82.7182 275.503C83.4945 276.466 84.659 276.947 86.2117 276.947ZM120.036 282.863L111.978 272.662V282.863H103.547V248.58H111.978V269.075L119.897 259.247H129.865L120.549 270.566L130.237 282.863H120.036Z" fill="url(#paint6_linear)"/>
<path d="M34.6332 265.675C36.5896 266.234 38.0956 267.228 39.1515 268.656C40.2073 270.054 40.7352 271.761 40.7352 273.78C40.7352 275.612 40.2538 277.211 39.2912 278.578C38.3285 279.944 36.9467 281 35.1456 281.745C33.3755 282.49 31.2795 282.863 28.8573 282.863H12.3214V249.698H28.4381C31.916 249.698 34.6798 250.474 36.7293 252.027C38.7788 253.58 39.8036 255.676 39.8036 258.315C39.8036 260.023 39.3533 261.529 38.4528 262.834C37.5522 264.138 36.279 265.085 34.6332 265.675ZM20.8456 262.694H26.9475C28.5623 262.694 29.7423 262.446 30.4876 261.949C31.2329 261.452 31.6055 260.66 31.6055 259.573C31.6055 258.455 31.2173 257.632 30.441 257.104C29.6957 256.576 28.5312 256.313 26.9475 256.313H20.8456V262.694ZM27.8325 276.249C29.5094 276.249 30.705 275.985 31.4192 275.457C32.1645 274.929 32.5371 274.044 32.5371 272.802C32.5371 271.529 32.18 270.628 31.4658 270.1C30.7515 269.572 29.5405 269.308 27.8325 269.308H20.8456V276.249H27.8325ZM56.9519 283.236C54.3124 283.236 52.0144 282.739 50.0581 281.745C48.1017 280.751 46.5956 279.323 45.5398 277.46C44.484 275.597 43.9561 273.407 43.9561 270.892C43.9561 268.377 44.484 266.187 45.5398 264.324C46.5956 262.461 48.1017 261.033 50.0581 260.039C52.0144 259.045 54.3124 258.548 56.9519 258.548C59.5604 258.548 61.8272 259.061 63.7525 260.085C65.7089 261.079 67.215 262.508 68.2708 264.371C69.3266 266.203 69.8545 268.377 69.8545 270.892C69.8545 273.407 69.3266 275.597 68.2708 277.46C67.215 279.292 65.7089 280.72 63.7525 281.745C61.8272 282.739 59.5604 283.236 56.9519 283.236ZM56.9519 276.947C59.9951 276.947 61.5167 274.929 61.5167 270.892C61.5167 268.842 61.1285 267.336 60.3522 266.374C59.6069 265.38 58.4735 264.883 56.9519 264.883C55.3992 264.883 54.2347 265.38 53.4584 266.374C52.6821 267.336 52.2939 268.842 52.2939 270.892C52.2939 272.973 52.6821 274.51 53.4584 275.503C54.2347 276.466 55.3992 276.947 56.9519 276.947ZM86.2117 283.236C83.5722 283.236 81.2742 282.739 79.3179 281.745C77.3615 280.751 75.8554 279.323 74.7996 277.46C73.7438 275.597 73.2159 273.407 73.2159 270.892C73.2159 268.377 73.7438 266.187 74.7996 264.324C75.8554 262.461 77.3615 261.033 79.3179 260.039C81.2742 259.045 83.5722 258.548 86.2117 258.548C88.8202 258.548 91.087 259.061 93.0123 260.085C94.9687 261.079 96.4748 262.508 97.5306 264.371C98.5864 266.203 99.1143 268.377 99.1143 270.892C99.1143 273.407 98.5864 275.597 97.5306 277.46C96.4748 279.292 94.9687 280.72 93.0123 281.745C91.087 282.739 88.8202 283.236 86.2117 283.236ZM86.2117 276.947C89.2549 276.947 90.7765 274.929 90.7765 270.892C90.7765 268.842 90.3883 267.336 89.612 266.374C88.8667 265.38 87.7333 264.883 86.2117 264.883C84.659 264.883 83.4945 265.38 82.7182 266.374C81.9419 267.336 81.5537 268.842 81.5537 270.892C81.5537 272.973 81.9419 274.51 82.7182 275.503C83.4945 276.466 84.659 276.947 86.2117 276.947ZM120.036 282.863L111.978 272.662V282.863H103.547V248.58H111.978V269.075L119.897 259.247H129.865L120.549 270.566L130.237 282.863H120.036Z" fill="#3B3E6F" fill-opacity="0.3"/>
<path d="M149.094 249.698H157.851V282.863H149.094V249.698ZM177.806 276.435C178.365 276.435 179.11 276.342 180.042 276.156V282.537C178.893 283.003 177.433 283.236 175.663 283.236C172.465 283.236 170.027 282.335 168.35 280.534C166.704 278.733 165.882 276.233 165.882 273.035V265.396H161.456V259.2H165.882V253.844L174.313 251.142V259.2H179.995V265.396H174.313V273.035C174.313 274.153 174.639 275.007 175.291 275.597C175.974 276.156 176.812 276.435 177.806 276.435Z" fill="#FF0066"/>
<path d="M98.402 118.464C97.1954 117.861 95.7751 117.861 94.5685 118.464L70.4617 130.518C67.4681 132.014 67.2687 136.212 70.1069 137.986L94.2137 153.052C95.6035 153.921 97.367 153.921 98.7568 153.052L122.864 137.986C125.702 136.212 125.502 132.014 122.509 130.518L98.402 118.464Z" fill="#FF0066"/>
<path d="M96.4889 158.578L75.9521 144.901V151.924C75.9521 155.662 88.0277 166.793 96.4889 166.793C104.95 166.793 117.026 155.662 117.026 151.924V144.901L96.4889 158.578Z" fill="#FF0066"/>
<path d="M10.3519 319.223H3.4008L1.92463 322.643H0.336343L6.18498 309.339H7.53035L13.379 322.643H11.8094L10.3519 319.223ZM9.81001 317.953L6.87635 311.114L3.94269 317.953H9.81001ZM37.595 322.792C36.3368 322.792 35.2406 322.518 34.3063 321.97C33.3844 321.422 32.6744 320.637 32.1761 319.616C31.6778 318.582 31.4287 317.367 31.4287 315.972C31.4287 314.577 31.6778 313.375 32.1761 312.366C32.6744 311.344 33.3844 310.559 34.3063 310.011C35.2406 309.463 36.3368 309.189 37.595 309.189C38.5168 309.189 39.3576 309.332 40.1175 309.619C40.8899 309.893 41.5563 310.31 42.1169 310.871L41.5376 312.048C40.9023 311.5 40.2732 311.107 39.6504 310.871C39.04 310.634 38.3611 310.516 37.6136 310.516C36.1562 310.516 35.0226 310.989 34.2128 311.936C33.4156 312.883 33.017 314.228 33.017 315.972C33.017 317.728 33.4156 319.086 34.2128 320.046C35.0101 320.992 36.1437 321.466 37.6136 321.466C38.3611 321.466 39.04 321.347 39.6504 321.111C40.2732 320.874 40.9023 320.482 41.5376 319.933L42.1169 321.111C41.5563 321.671 40.8899 322.095 40.1175 322.381C39.3576 322.655 38.5168 322.792 37.595 322.792ZM70.071 319.223H63.12L61.6438 322.643H60.0555L65.9041 309.339H67.2495L73.0981 322.643H71.5285L70.071 319.223ZM69.5292 317.953L66.5955 311.114L63.6618 317.953H69.5292ZM92.0898 309.339H96.5557C98.6859 309.339 100.33 309.918 101.489 311.076C102.66 312.222 103.245 313.854 103.245 315.972C103.245 318.102 102.66 319.747 101.489 320.905C100.33 322.064 98.6859 322.643 96.5557 322.643H92.0898V309.339ZM96.4623 321.335C98.1814 321.335 99.4707 320.886 100.33 319.989C101.202 319.093 101.638 317.753 101.638 315.972C101.638 312.422 99.9129 310.647 96.4623 310.647H93.6221V321.335H96.4623ZM123.035 309.339H131.444V310.609H124.549V315.243H131.07V316.533H124.549V321.372H131.444V322.643H123.035V309.339ZM163.6 309.339V322.643H162.18V312.758L157.863 322.643H156.78L152.426 312.833L152.444 322.643H151.024V309.339H152.295L157.34 320.812L162.329 309.339H163.6ZM188.669 317.261V322.643H187.137V317.243L181.905 309.339H183.699L187.922 315.879L192.145 309.339H193.901L188.669 317.261Z" fill="#333333"/>
<defs>
<linearGradient id="paint0_linear" x1="5.498" y1="0.67701" x2="9.80083" y2="37.2116" gradientUnits="userSpaceOnUse">
<stop stop-color="#6F0DBC"/>
<stop offset="0.479167" stop-color="#4A7ADA"/>
<stop offset="1" stop-color="#74A2FF"/>
</linearGradient>
<linearGradient id="paint1_linear" x1="41.041" y1="208.159" x2="41.7608" y2="208.159" gradientUnits="userSpaceOnUse">
<stop stop-color="white"/>
<stop offset="1"/>
</linearGradient>
<linearGradient id="paint2_linear" x1="-3.64108" y1="49.1782" x2="42.9841" y2="267.113" gradientUnits="userSpaceOnUse">
<stop stop-color="#6F0DBC"/>
<stop offset="0.608987" stop-color="#4A7ADA"/>
<stop offset="1" stop-color="#74A2FF"/>
</linearGradient>
<linearGradient id="paint3_linear" x1="108.858" y1="54.6257" x2="133.207" y2="197.753" gradientUnits="userSpaceOnUse">
<stop stop-color="#6F0DBC"/>
<stop offset="0.479167" stop-color="#4A7ADA"/>
<stop offset="1" stop-color="#74A2FF"/>
</linearGradient>
<linearGradient id="paint4_linear" x1="68.6274" y1="94.4522" x2="152.302" y2="94.4522" gradientUnits="userSpaceOnUse">
<stop stop-color="#6F0DBC"/>
<stop offset="0.479167" stop-color="#4A7ADA"/>
<stop offset="1" stop-color="#74A2FF"/>
</linearGradient>
<linearGradient id="paint5_linear" x1="58.2533" y1="211.091" x2="188.465" y2="132.541" gradientUnits="userSpaceOnUse">
<stop stop-color="#6F0DBC"/>
<stop offset="0.479167" stop-color="#4A7ADA"/>
<stop offset="1" stop-color="#74A2FF"/>
</linearGradient>
<linearGradient id="paint6_linear" x1="9.34033" y1="265.098" x2="129.178" y2="265.098" gradientUnits="userSpaceOnUse">
<stop stop-color="#6F0DBC"/>
<stop offset="0.479167" stop-color="#4A7ADA"/>
<stop offset="1" stop-color="#74A2FF"/>
</linearGradient>
</defs>
</svg>
