<svg width="541" height="392" viewBox="0 0 541 392" fill="none" xmlns="http://www.w3.org/2000/svg">
<g filter="url(#filter0_d)">
<path d="M60 90C60 73.4315 73.4315 60 90 60H391C407.569 60 421 73.4315 421 90V212.5C421 229.069 407.569 242.5 391 242.5H329.5H90C73.4315 242.5 60 229.069 60 212.5V90Z" fill="white"/>
<path d="M367 242.5H329.5L351 271.5L367 242.5Z" fill="white"/>
</g>
<path d="M144.84 124.5L144.818 115.26L140.286 122.872H138.68L134.17 115.458V124.5H130.826V109.1H133.774L139.538 118.67L145.214 109.1H148.14L148.184 124.5H144.84ZM157.228 124.676C155.981 124.676 154.859 124.419 153.862 123.906C152.879 123.378 152.109 122.652 151.552 121.728C150.994 120.804 150.716 119.755 150.716 118.582C150.716 117.409 150.994 116.36 151.552 115.436C152.109 114.512 152.879 113.793 153.862 113.28C154.859 112.752 155.981 112.488 157.228 112.488C158.474 112.488 159.589 112.752 160.572 113.28C161.554 113.793 162.324 114.512 162.882 115.436C163.439 116.36 163.718 117.409 163.718 118.582C163.718 119.755 163.439 120.804 162.882 121.728C162.324 122.652 161.554 123.378 160.572 123.906C159.589 124.419 158.474 124.676 157.228 124.676ZM157.228 121.86C158.108 121.86 158.826 121.567 159.384 120.98C159.956 120.379 160.242 119.579 160.242 118.582C160.242 117.585 159.956 116.793 159.384 116.206C158.826 115.605 158.108 115.304 157.228 115.304C156.348 115.304 155.622 115.605 155.05 116.206C154.478 116.793 154.192 117.585 154.192 118.582C154.192 119.579 154.478 120.379 155.05 120.98C155.622 121.567 156.348 121.86 157.228 121.86ZM169.29 114.226C169.7 113.654 170.25 113.221 170.94 112.928C171.644 112.635 172.45 112.488 173.36 112.488V115.656C172.978 115.627 172.722 115.612 172.59 115.612C171.607 115.612 170.837 115.891 170.28 116.448C169.722 116.991 169.444 117.812 169.444 118.912V124.5H166.012V112.664H169.29V114.226ZM186.887 118.626C186.887 118.67 186.865 118.978 186.821 119.55H177.867C178.028 120.283 178.41 120.863 179.011 121.288C179.612 121.713 180.36 121.926 181.255 121.926C181.871 121.926 182.414 121.838 182.883 121.662C183.367 121.471 183.814 121.178 184.225 120.782L186.051 122.762C184.936 124.038 183.308 124.676 181.167 124.676C179.832 124.676 178.652 124.419 177.625 123.906C176.598 123.378 175.806 122.652 175.249 121.728C174.692 120.804 174.413 119.755 174.413 118.582C174.413 117.423 174.684 116.382 175.227 115.458C175.784 114.519 176.54 113.793 177.493 113.28C178.461 112.752 179.539 112.488 180.727 112.488C181.886 112.488 182.934 112.737 183.873 113.236C184.812 113.735 185.545 114.453 186.073 115.392C186.616 116.316 186.887 117.394 186.887 118.626ZM180.749 115.084C179.972 115.084 179.319 115.304 178.791 115.744C178.263 116.184 177.94 116.785 177.823 117.548H183.653C183.536 116.8 183.213 116.206 182.685 115.766C182.157 115.311 181.512 115.084 180.749 115.084ZM205.786 121.2H198.636L197.272 124.5H193.62L200.484 109.1H204.004L210.89 124.5H207.15L205.786 121.2ZM204.664 118.494L202.222 112.598L199.78 118.494H204.664ZM219.242 112.488C220.342 112.488 221.339 112.745 222.234 113.258C223.143 113.757 223.855 114.468 224.368 115.392C224.881 116.301 225.138 117.365 225.138 118.582C225.138 119.799 224.881 120.87 224.368 121.794C223.855 122.703 223.143 123.415 222.234 123.928C221.339 124.427 220.342 124.676 219.242 124.676C217.614 124.676 216.375 124.163 215.524 123.136V124.5H212.246V108.176H215.678V113.918C216.543 112.965 217.731 112.488 219.242 112.488ZM218.648 121.86C219.528 121.86 220.247 121.567 220.804 120.98C221.376 120.379 221.662 119.579 221.662 118.582C221.662 117.585 221.376 116.793 220.804 116.206C220.247 115.605 219.528 115.304 218.648 115.304C217.768 115.304 217.042 115.605 216.47 116.206C215.913 116.793 215.634 117.585 215.634 118.582C215.634 119.579 215.913 120.379 216.47 120.98C217.042 121.567 217.768 121.86 218.648 121.86ZM233.068 124.676C231.821 124.676 230.699 124.419 229.702 123.906C228.719 123.378 227.949 122.652 227.392 121.728C226.834 120.804 226.556 119.755 226.556 118.582C226.556 117.409 226.834 116.36 227.392 115.436C227.949 114.512 228.719 113.793 229.702 113.28C230.699 112.752 231.821 112.488 233.068 112.488C234.314 112.488 235.429 112.752 236.412 113.28C237.394 113.793 238.164 114.512 238.722 115.436C239.279 116.36 239.558 117.409 239.558 118.582C239.558 119.755 239.279 120.804 238.722 121.728C238.164 122.652 237.394 123.378 236.412 123.906C235.429 124.419 234.314 124.676 233.068 124.676ZM233.068 121.86C233.948 121.86 234.666 121.567 235.224 120.98C235.796 120.379 236.082 119.579 236.082 118.582C236.082 117.585 235.796 116.793 235.224 116.206C234.666 115.605 233.948 115.304 233.068 115.304C232.188 115.304 231.462 115.605 230.89 116.206C230.318 116.793 230.032 117.585 230.032 118.582C230.032 119.579 230.318 120.379 230.89 120.98C231.462 121.567 232.188 121.86 233.068 121.86ZM253.776 112.664V124.5H250.52V123.092C250.065 123.605 249.522 124.001 248.892 124.28C248.261 124.544 247.579 124.676 246.846 124.676C245.291 124.676 244.059 124.229 243.15 123.334C242.24 122.439 241.786 121.112 241.786 119.352V112.664H245.218V118.846C245.218 120.753 246.017 121.706 247.616 121.706C248.437 121.706 249.097 121.442 249.596 120.914C250.094 120.371 250.344 119.572 250.344 118.516V112.664H253.776ZM264.589 123.928C264.252 124.177 263.834 124.368 263.335 124.5C262.851 124.617 262.338 124.676 261.795 124.676C260.387 124.676 259.294 124.317 258.517 123.598C257.754 122.879 257.373 121.823 257.373 120.43V115.568H255.547V112.928H257.373V110.046H260.805V112.928H263.753V115.568H260.805V120.386C260.805 120.885 260.93 121.273 261.179 121.552C261.443 121.816 261.81 121.948 262.279 121.948C262.822 121.948 263.284 121.801 263.665 121.508L264.589 123.928ZM279.83 124.764C277.63 124.764 275.914 124.155 274.682 122.938C273.465 121.721 272.856 119.983 272.856 117.724V109.1H276.42V117.592C276.42 120.349 277.564 121.728 279.852 121.728C280.967 121.728 281.817 121.398 282.404 120.738C282.991 120.063 283.284 119.015 283.284 117.592V109.1H286.804V117.724C286.804 119.983 286.188 121.721 284.956 122.938C283.739 124.155 282.03 124.764 279.83 124.764ZM294.066 124.676C293.083 124.676 292.123 124.559 291.184 124.324C290.245 124.075 289.497 123.767 288.94 123.4L290.084 120.936C290.612 121.273 291.25 121.552 291.998 121.772C292.746 121.977 293.479 122.08 294.198 122.08C295.65 122.08 296.376 121.721 296.376 121.002C296.376 120.665 296.178 120.423 295.782 120.276C295.386 120.129 294.777 120.005 293.956 119.902C292.988 119.755 292.189 119.587 291.558 119.396C290.927 119.205 290.377 118.868 289.908 118.384C289.453 117.9 289.226 117.211 289.226 116.316C289.226 115.568 289.439 114.908 289.864 114.336C290.304 113.749 290.935 113.295 291.756 112.972C292.592 112.649 293.575 112.488 294.704 112.488C295.54 112.488 296.369 112.583 297.19 112.774C298.026 112.95 298.715 113.199 299.258 113.522L298.114 115.964C297.073 115.377 295.936 115.084 294.704 115.084C293.971 115.084 293.421 115.187 293.054 115.392C292.687 115.597 292.504 115.861 292.504 116.184C292.504 116.551 292.702 116.807 293.098 116.954C293.494 117.101 294.125 117.24 294.99 117.372C295.958 117.533 296.75 117.709 297.366 117.9C297.982 118.076 298.517 118.406 298.972 118.89C299.427 119.374 299.654 120.049 299.654 120.914C299.654 121.647 299.434 122.3 298.994 122.872C298.554 123.444 297.909 123.891 297.058 124.214C296.222 124.522 295.225 124.676 294.066 124.676Z" fill="#1A1877"/>
<path d="M132.302 157.862L132.493 159.175L132.773 157.992L134.742 151.047H135.85L137.771 157.992L138.044 159.195L138.256 157.855L139.801 151.047H141.12L138.707 161H137.511L135.46 153.747L135.303 152.988L135.146 153.747L133.02 161H131.823L129.417 151.047H130.729L132.302 157.862ZM147.139 161C147.066 160.854 147.007 160.594 146.961 160.221C146.373 160.831 145.671 161.137 144.856 161.137C144.126 161.137 143.527 160.932 143.058 160.521C142.593 160.107 142.36 159.583 142.36 158.949C142.36 158.179 142.652 157.582 143.235 157.158C143.823 156.73 144.648 156.516 145.71 156.516H146.941V155.935C146.941 155.493 146.808 155.142 146.544 154.882C146.28 154.618 145.89 154.485 145.375 154.485C144.924 154.485 144.546 154.599 144.24 154.827C143.935 155.055 143.782 155.331 143.782 155.654H142.511C142.511 155.285 142.641 154.93 142.9 154.588C143.165 154.242 143.52 153.968 143.967 153.768C144.418 153.567 144.913 153.467 145.45 153.467C146.302 153.467 146.97 153.681 147.453 154.109C147.936 154.533 148.187 155.119 148.205 155.866V159.271C148.205 159.95 148.292 160.49 148.465 160.891V161H147.139ZM145.04 160.036C145.437 160.036 145.813 159.934 146.168 159.729C146.524 159.523 146.781 159.257 146.941 158.929V157.411H145.949C144.4 157.411 143.625 157.865 143.625 158.771C143.625 159.168 143.757 159.478 144.022 159.701C144.286 159.924 144.625 160.036 145.04 160.036ZM152.323 151.812V153.604H153.704V154.581H152.323V159.168C152.323 159.464 152.385 159.688 152.508 159.838C152.631 159.984 152.841 160.057 153.137 160.057C153.283 160.057 153.483 160.029 153.738 159.975V161C153.406 161.091 153.082 161.137 152.768 161.137C152.203 161.137 151.777 160.966 151.489 160.624C151.202 160.282 151.059 159.797 151.059 159.168V154.581H149.712V153.604H151.059V151.812H152.323ZM158.574 160.104C159.026 160.104 159.42 159.968 159.757 159.694C160.094 159.421 160.281 159.079 160.318 158.669H161.514C161.491 159.093 161.345 159.496 161.076 159.879C160.808 160.262 160.448 160.567 159.996 160.795C159.55 161.023 159.076 161.137 158.574 161.137C157.567 161.137 156.765 160.802 156.168 160.132C155.576 159.457 155.28 158.537 155.28 157.37V157.158C155.28 156.438 155.412 155.798 155.676 155.237C155.94 154.677 156.319 154.242 156.811 153.932C157.308 153.622 157.893 153.467 158.568 153.467C159.397 153.467 160.085 153.715 160.632 154.212C161.184 154.709 161.477 155.354 161.514 156.146H160.318C160.281 155.668 160.099 155.276 159.771 154.971C159.447 154.661 159.046 154.506 158.568 154.506C157.925 154.506 157.426 154.738 157.071 155.203C156.72 155.663 156.544 156.331 156.544 157.206V157.445C156.544 158.298 156.72 158.954 157.071 159.414C157.421 159.874 157.923 160.104 158.574 160.104ZM164.62 154.499C165.181 153.811 165.91 153.467 166.808 153.467C168.371 153.467 169.159 154.349 169.173 156.112V161H167.909V156.105C167.904 155.572 167.781 155.178 167.539 154.923C167.302 154.668 166.931 154.54 166.425 154.54C166.015 154.54 165.655 154.649 165.345 154.868C165.035 155.087 164.794 155.374 164.62 155.729V161H163.356V150.5H164.62V154.499ZM182.181 152.127H178.982V161H177.676V152.127H174.484V151.047H182.181V152.127ZM185.144 154.499C185.705 153.811 186.434 153.467 187.332 153.467C188.895 153.467 189.683 154.349 189.697 156.112V161H188.432V156.105C188.428 155.572 188.305 155.178 188.063 154.923C187.826 154.668 187.455 154.54 186.949 154.54C186.539 154.54 186.179 154.649 185.869 154.868C185.559 155.087 185.317 155.374 185.144 155.729V161H183.879V150.5H185.144V154.499ZM195.08 161.137C194.077 161.137 193.261 160.809 192.632 160.152C192.004 159.492 191.689 158.61 191.689 157.507V157.274C191.689 156.541 191.828 155.887 192.106 155.312C192.389 154.734 192.781 154.283 193.282 153.959C193.788 153.631 194.335 153.467 194.923 153.467C195.884 153.467 196.631 153.784 197.165 154.417C197.698 155.05 197.964 155.957 197.964 157.138V157.664H192.954C192.972 158.393 193.184 158.983 193.589 159.435C194 159.881 194.519 160.104 195.148 160.104C195.595 160.104 195.973 160.013 196.283 159.831C196.593 159.649 196.864 159.407 197.096 159.106L197.869 159.708C197.249 160.66 196.319 161.137 195.08 161.137ZM194.923 154.506C194.412 154.506 193.984 154.693 193.637 155.066C193.291 155.436 193.077 155.955 192.995 156.625H196.7V156.529C196.663 155.887 196.49 155.39 196.18 155.039C195.87 154.684 195.451 154.506 194.923 154.506ZM206.878 156.563C205.752 156.24 204.932 155.843 204.417 155.374C203.906 154.9 203.651 154.317 203.651 153.624C203.651 152.84 203.963 152.193 204.588 151.683C205.217 151.168 206.032 150.91 207.035 150.91C207.719 150.91 208.327 151.042 208.86 151.307C209.398 151.571 209.813 151.936 210.104 152.4C210.401 152.865 210.549 153.373 210.549 153.925H209.229C209.229 153.323 209.038 152.852 208.655 152.51C208.272 152.163 207.732 151.99 207.035 151.99C206.388 151.99 205.882 152.134 205.517 152.421C205.157 152.703 204.977 153.098 204.977 153.604C204.977 154.009 205.148 154.353 205.49 154.636C205.836 154.914 206.422 155.169 207.247 155.401C208.076 155.634 208.723 155.891 209.188 156.174C209.658 156.452 210.004 156.778 210.227 157.151C210.455 157.525 210.569 157.965 210.569 158.471C210.569 159.277 210.255 159.924 209.626 160.412C208.997 160.895 208.156 161.137 207.103 161.137C206.42 161.137 205.782 161.007 205.189 160.747C204.597 160.483 204.139 160.123 203.815 159.667C203.496 159.211 203.337 158.694 203.337 158.115H204.656C204.656 158.717 204.877 159.193 205.319 159.544C205.766 159.89 206.36 160.063 207.103 160.063C207.796 160.063 208.327 159.922 208.696 159.64C209.065 159.357 209.25 158.972 209.25 158.484C209.25 157.997 209.079 157.621 208.737 157.356C208.395 157.088 207.776 156.823 206.878 156.563ZM213.744 154.499C214.305 153.811 215.034 153.467 215.932 153.467C217.495 153.467 218.283 154.349 218.297 156.112V161H217.032V156.105C217.028 155.572 216.905 155.178 216.663 154.923C216.426 154.668 216.055 154.54 215.549 154.54C215.139 154.54 214.779 154.649 214.469 154.868C214.159 155.087 213.917 155.374 213.744 155.729V161H212.479V150.5H213.744V154.499ZM220.275 157.233C220.275 156.509 220.417 155.857 220.699 155.278C220.986 154.7 221.383 154.253 221.889 153.938C222.399 153.624 222.98 153.467 223.632 153.467C224.639 153.467 225.452 153.815 226.072 154.513C226.697 155.21 227.009 156.137 227.009 157.295V157.384C227.009 158.104 226.87 158.751 226.592 159.325C226.318 159.895 225.924 160.339 225.409 160.658C224.899 160.977 224.311 161.137 223.645 161.137C222.643 161.137 221.829 160.788 221.205 160.091C220.585 159.394 220.275 158.471 220.275 157.322V157.233ZM221.547 157.384C221.547 158.204 221.736 158.863 222.114 159.359C222.497 159.856 223.007 160.104 223.645 160.104C224.288 160.104 224.798 159.854 225.177 159.353C225.555 158.847 225.744 158.14 225.744 157.233C225.744 156.422 225.55 155.766 225.163 155.265C224.78 154.759 224.27 154.506 223.632 154.506C223.007 154.506 222.504 154.754 222.121 155.251C221.738 155.748 221.547 156.459 221.547 157.384ZM232.59 154.738C232.398 154.706 232.191 154.69 231.968 154.69C231.138 154.69 230.576 155.044 230.279 155.75V161H229.015V153.604H230.245L230.266 154.458C230.68 153.797 231.268 153.467 232.029 153.467C232.275 153.467 232.462 153.499 232.59 153.562V154.738ZM236.236 151.812V153.604H237.617V154.581H236.236V159.168C236.236 159.464 236.298 159.688 236.421 159.838C236.544 159.984 236.754 160.057 237.05 160.057C237.196 160.057 237.396 160.029 237.651 159.975V161C237.319 161.091 236.995 161.137 236.681 161.137C236.116 161.137 235.69 160.966 235.402 160.624C235.115 160.282 234.972 159.797 234.972 159.168V154.581H233.625V153.604H234.972V151.812H236.236ZM246.907 159.257L249.75 151.047H251.186L247.494 161H246.332L242.648 151.047H244.076L246.907 159.257ZM254.121 161H252.857V153.604H254.121V161ZM252.754 151.642C252.754 151.437 252.816 151.263 252.939 151.122C253.066 150.981 253.253 150.91 253.499 150.91C253.745 150.91 253.932 150.981 254.06 151.122C254.188 151.263 254.251 151.437 254.251 151.642C254.251 151.847 254.188 152.018 254.06 152.154C253.932 152.291 253.745 152.359 253.499 152.359C253.253 152.359 253.066 152.291 252.939 152.154C252.816 152.018 252.754 151.847 252.754 151.642ZM256.264 157.24C256.264 156.105 256.533 155.194 257.071 154.506C257.609 153.813 258.313 153.467 259.183 153.467C260.049 153.467 260.735 153.763 261.241 154.355V150.5H262.505V161H261.343L261.282 160.207C260.776 160.827 260.072 161.137 259.169 161.137C258.313 161.137 257.613 160.786 257.071 160.084C256.533 159.382 256.264 158.466 256.264 157.336V157.24ZM257.529 157.384C257.529 158.222 257.702 158.879 258.048 159.353C258.395 159.826 258.873 160.063 259.484 160.063C260.286 160.063 260.872 159.703 261.241 158.983V155.586C260.862 154.889 260.281 154.54 259.497 154.54C258.878 154.54 258.395 154.779 258.048 155.258C257.702 155.736 257.529 156.445 257.529 157.384ZM267.963 161.137C266.961 161.137 266.145 160.809 265.516 160.152C264.887 159.492 264.573 158.61 264.573 157.507V157.274C264.573 156.541 264.712 155.887 264.99 155.312C265.272 154.734 265.664 154.283 266.166 153.959C266.671 153.631 267.218 153.467 267.806 153.467C268.768 153.467 269.515 153.784 270.048 154.417C270.582 155.05 270.848 155.957 270.848 157.138V157.664H265.837C265.856 158.393 266.068 158.983 266.473 159.435C266.883 159.881 267.403 160.104 268.032 160.104C268.478 160.104 268.857 160.013 269.167 159.831C269.476 159.649 269.748 159.407 269.98 159.106L270.752 159.708C270.133 160.66 269.203 161.137 267.963 161.137ZM267.806 154.506C267.296 154.506 266.867 154.693 266.521 155.066C266.175 155.436 265.96 155.955 265.878 156.625H269.584V156.529C269.547 155.887 269.374 155.39 269.064 155.039C268.754 154.684 268.335 154.506 267.806 154.506ZM272.403 157.233C272.403 156.509 272.544 155.857 272.827 155.278C273.114 154.7 273.51 154.253 274.016 153.938C274.527 153.624 275.108 153.467 275.759 153.467C276.767 153.467 277.58 153.815 278.2 154.513C278.824 155.21 279.136 156.137 279.136 157.295V157.384C279.136 158.104 278.997 158.751 278.719 159.325C278.446 159.895 278.052 160.339 277.537 160.658C277.026 160.977 276.438 161.137 275.773 161.137C274.77 161.137 273.957 160.788 273.333 160.091C272.713 159.394 272.403 158.471 272.403 157.322V157.233ZM273.674 157.384C273.674 158.204 273.864 158.863 274.242 159.359C274.625 159.856 275.135 160.104 275.773 160.104C276.416 160.104 276.926 159.854 277.304 159.353C277.683 158.847 277.872 158.14 277.872 157.233C277.872 156.422 277.678 155.766 277.291 155.265C276.908 154.759 276.397 154.506 275.759 154.506C275.135 154.506 274.631 154.754 274.249 155.251C273.866 155.748 273.674 156.459 273.674 157.384ZM290.859 156.399H286.546V159.927H291.556V161H285.233V151.047H291.488V152.127H286.546V155.326H290.859V156.399ZM295.893 156.304L297.534 153.604H299.011L296.591 157.261L299.086 161H297.623L295.914 158.231L294.205 161H292.735L295.23 157.261L292.81 153.604H294.273L295.893 156.304ZM307.025 157.384C307.025 158.509 306.768 159.416 306.253 160.104C305.738 160.793 305.041 161.137 304.161 161.137C303.263 161.137 302.557 160.852 302.042 160.282V163.844H300.777V153.604H301.933L301.994 154.424C302.509 153.786 303.225 153.467 304.141 153.467C305.029 153.467 305.731 153.802 306.246 154.472C306.766 155.142 307.025 156.074 307.025 157.268V157.384ZM305.761 157.24C305.761 156.406 305.583 155.748 305.227 155.265C304.872 154.782 304.384 154.54 303.765 154.54C302.999 154.54 302.425 154.88 302.042 155.559V159.093C302.42 159.767 302.999 160.104 303.778 160.104C304.384 160.104 304.865 159.865 305.221 159.387C305.581 158.904 305.761 158.188 305.761 157.24ZM310.433 161H309.168V150.5H310.433V161ZM317.449 161C317.376 160.854 317.317 160.594 317.272 160.221C316.684 160.831 315.982 161.137 315.166 161.137C314.437 161.137 313.838 160.932 313.368 160.521C312.903 160.107 312.671 159.583 312.671 158.949C312.671 158.179 312.963 157.582 313.546 157.158C314.134 156.73 314.959 156.516 316.021 156.516H317.251V155.935C317.251 155.493 317.119 155.142 316.855 154.882C316.59 154.618 316.201 154.485 315.686 154.485C315.234 154.485 314.856 154.599 314.551 154.827C314.246 155.055 314.093 155.331 314.093 155.654H312.821C312.821 155.285 312.951 154.93 313.211 154.588C313.475 154.242 313.831 153.968 314.277 153.768C314.729 153.567 315.223 153.467 315.761 153.467C316.613 153.467 317.281 153.681 317.764 154.109C318.247 154.533 318.497 155.119 318.516 155.866V159.271C318.516 159.95 318.602 160.49 318.775 160.891V161H317.449ZM315.351 160.036C315.747 160.036 316.123 159.934 316.479 159.729C316.834 159.523 317.092 159.257 317.251 158.929V157.411H316.26C314.71 157.411 313.936 157.865 313.936 158.771C313.936 159.168 314.068 159.478 314.332 159.701C314.596 159.924 314.936 160.036 315.351 160.036ZM322.292 161H321.027V153.604H322.292V161ZM320.925 151.642C320.925 151.437 320.986 151.263 321.11 151.122C321.237 150.981 321.424 150.91 321.67 150.91C321.916 150.91 322.103 150.981 322.231 151.122C322.358 151.263 322.422 151.437 322.422 151.642C322.422 151.847 322.358 152.018 322.231 152.154C322.103 152.291 321.916 152.359 321.67 152.359C321.424 152.359 321.237 152.291 321.11 152.154C320.986 152.018 320.925 151.847 320.925 151.642ZM325.939 153.604L325.98 154.533C326.545 153.822 327.283 153.467 328.195 153.467C329.758 153.467 330.546 154.349 330.56 156.112V161H329.295V156.105C329.291 155.572 329.168 155.178 328.926 154.923C328.689 154.668 328.318 154.54 327.812 154.54C327.402 154.54 327.042 154.649 326.732 154.868C326.422 155.087 326.18 155.374 326.007 155.729V161H324.742V153.604H325.939ZM334.261 161H332.996V153.604H334.261V161ZM332.894 151.642C332.894 151.437 332.955 151.263 333.078 151.122C333.206 150.981 333.393 150.91 333.639 150.91C333.885 150.91 334.072 150.981 334.2 151.122C334.327 151.263 334.391 151.437 334.391 151.642C334.391 151.847 334.327 152.018 334.2 152.154C334.072 152.291 333.885 152.359 333.639 152.359C333.393 152.359 333.206 152.291 333.078 152.154C332.955 152.018 332.894 151.847 332.894 151.642ZM337.908 153.604L337.949 154.533C338.514 153.822 339.252 153.467 340.163 153.467C341.727 153.467 342.515 154.349 342.529 156.112V161H341.264V156.105C341.26 155.572 341.136 155.178 340.895 154.923C340.658 154.668 340.287 154.54 339.781 154.54C339.371 154.54 339.01 154.649 338.701 154.868C338.391 155.087 338.149 155.374 337.976 155.729V161H336.711V153.604H337.908ZM344.555 157.24C344.555 156.087 344.822 155.171 345.355 154.492C345.888 153.809 346.595 153.467 347.474 153.467C348.376 153.467 349.081 153.786 349.586 154.424L349.648 153.604H350.803V160.822C350.803 161.779 350.518 162.534 349.949 163.085C349.384 163.636 348.623 163.912 347.666 163.912C347.132 163.912 346.61 163.798 346.1 163.57C345.59 163.342 345.2 163.03 344.931 162.634L345.587 161.875C346.13 162.545 346.793 162.88 347.577 162.88C348.192 162.88 348.67 162.707 349.012 162.36C349.359 162.014 349.532 161.526 349.532 160.897V160.262C349.026 160.845 348.335 161.137 347.46 161.137C346.595 161.137 345.893 160.788 345.355 160.091C344.822 159.394 344.555 158.443 344.555 157.24ZM345.827 157.384C345.827 158.218 345.998 158.874 346.339 159.353C346.681 159.826 347.16 160.063 347.775 160.063C348.572 160.063 349.158 159.701 349.532 158.977V155.6C349.144 154.893 348.563 154.54 347.789 154.54C347.173 154.54 346.693 154.779 346.346 155.258C346 155.736 345.827 156.445 345.827 157.384ZM137.805 182H136.485V177.399H131.468V182H130.155V172.047H131.468V176.326H136.485V172.047H137.805V182ZM140.023 178.233C140.023 177.509 140.164 176.857 140.446 176.278C140.733 175.7 141.13 175.253 141.636 174.938C142.146 174.624 142.727 174.467 143.379 174.467C144.386 174.467 145.2 174.815 145.819 175.513C146.444 176.21 146.756 177.137 146.756 178.295V178.384C146.756 179.104 146.617 179.751 146.339 180.325C146.066 180.895 145.671 181.339 145.156 181.658C144.646 181.977 144.058 182.137 143.393 182.137C142.39 182.137 141.577 181.788 140.952 181.091C140.332 180.394 140.023 179.471 140.023 178.322V178.233ZM141.294 178.384C141.294 179.204 141.483 179.863 141.861 180.359C142.244 180.856 142.755 181.104 143.393 181.104C144.035 181.104 144.546 180.854 144.924 180.353C145.302 179.847 145.491 179.14 145.491 178.233C145.491 177.422 145.298 176.766 144.91 176.265C144.527 175.759 144.017 175.506 143.379 175.506C142.755 175.506 142.251 175.754 141.868 176.251C141.485 176.748 141.294 177.459 141.294 178.384ZM155.311 180.257L156.733 174.604H157.997L155.844 182H154.819L153.021 176.395L151.271 182H150.245L148.099 174.604H149.357L150.813 180.141L152.535 174.604H153.554L155.311 180.257ZM163.8 182V172.047H166.61C167.476 172.047 168.241 172.238 168.907 172.621C169.572 173.004 170.085 173.549 170.445 174.255C170.809 174.961 170.994 175.772 170.998 176.688V177.324C170.998 178.263 170.816 179.086 170.451 179.792C170.091 180.498 169.574 181.041 168.9 181.419C168.23 181.797 167.448 181.991 166.555 182H163.8ZM165.113 173.127V180.927H166.493C167.505 180.927 168.291 180.612 168.852 179.983C169.417 179.354 169.7 178.459 169.7 177.297V176.716C169.7 175.586 169.433 174.708 168.9 174.084C168.371 173.455 167.619 173.136 166.644 173.127H165.113ZM174.583 182H173.319V174.604H174.583V182ZM173.216 172.642C173.216 172.437 173.278 172.263 173.401 172.122C173.528 171.981 173.715 171.91 173.961 171.91C174.207 171.91 174.394 171.981 174.522 172.122C174.649 172.263 174.713 172.437 174.713 172.642C174.713 172.847 174.649 173.018 174.522 173.154C174.394 173.291 174.207 173.359 173.961 173.359C173.715 173.359 173.528 173.291 173.401 173.154C173.278 173.018 173.216 172.847 173.216 172.642ZM181.34 180.038C181.34 179.696 181.21 179.432 180.951 179.245C180.695 179.054 180.247 178.89 179.604 178.753C178.966 178.616 178.458 178.452 178.08 178.261C177.706 178.069 177.428 177.841 177.246 177.577C177.068 177.313 176.979 176.998 176.979 176.634C176.979 176.028 177.234 175.515 177.745 175.096C178.26 174.676 178.916 174.467 179.713 174.467C180.552 174.467 181.231 174.683 181.75 175.116C182.275 175.549 182.537 176.103 182.537 176.777H181.265C181.265 176.431 181.117 176.132 180.821 175.882C180.529 175.631 180.16 175.506 179.713 175.506C179.253 175.506 178.893 175.606 178.633 175.807C178.374 176.007 178.244 176.269 178.244 176.593C178.244 176.898 178.364 177.128 178.606 177.283C178.847 177.438 179.283 177.586 179.912 177.728C180.545 177.869 181.058 178.037 181.45 178.233C181.842 178.429 182.131 178.666 182.318 178.944C182.509 179.218 182.605 179.553 182.605 179.949C182.605 180.61 182.341 181.141 181.812 181.542C181.283 181.938 180.597 182.137 179.754 182.137C179.162 182.137 178.638 182.032 178.182 181.822C177.726 181.613 177.369 181.321 177.109 180.947C176.854 180.569 176.726 180.161 176.726 179.724H177.991C178.013 180.147 178.182 180.485 178.497 180.735C178.816 180.981 179.235 181.104 179.754 181.104C180.233 181.104 180.616 181.009 180.903 180.817C181.194 180.621 181.34 180.362 181.34 180.038ZM190.92 178.384C190.92 179.509 190.663 180.416 190.148 181.104C189.633 181.793 188.936 182.137 188.056 182.137C187.158 182.137 186.452 181.852 185.937 181.282V184.844H184.672V174.604H185.828L185.889 175.424C186.404 174.786 187.12 174.467 188.036 174.467C188.924 174.467 189.626 174.802 190.141 175.472C190.661 176.142 190.92 177.074 190.92 178.268V178.384ZM189.656 178.24C189.656 177.406 189.478 176.748 189.123 176.265C188.767 175.782 188.28 175.54 187.66 175.54C186.894 175.54 186.32 175.88 185.937 176.559V180.093C186.315 180.767 186.894 181.104 187.673 181.104C188.28 181.104 188.76 180.865 189.116 180.387C189.476 179.904 189.656 179.188 189.656 178.24ZM197.52 182C197.447 181.854 197.388 181.594 197.342 181.221C196.755 181.831 196.053 182.137 195.237 182.137C194.508 182.137 193.909 181.932 193.439 181.521C192.974 181.107 192.742 180.583 192.742 179.949C192.742 179.179 193.034 178.582 193.617 178.158C194.205 177.73 195.03 177.516 196.091 177.516H197.322V176.935C197.322 176.493 197.19 176.142 196.925 175.882C196.661 175.618 196.271 175.485 195.756 175.485C195.305 175.485 194.927 175.599 194.622 175.827C194.316 176.055 194.164 176.331 194.164 176.654H192.892C192.892 176.285 193.022 175.93 193.282 175.588C193.546 175.242 193.902 174.968 194.348 174.768C194.799 174.567 195.294 174.467 195.832 174.467C196.684 174.467 197.352 174.681 197.835 175.109C198.318 175.533 198.568 176.119 198.587 176.866V180.271C198.587 180.95 198.673 181.49 198.846 181.891V182H197.52ZM195.422 181.036C195.818 181.036 196.194 180.934 196.549 180.729C196.905 180.523 197.162 180.257 197.322 179.929V178.411H196.331C194.781 178.411 194.006 178.865 194.006 179.771C194.006 180.168 194.139 180.478 194.403 180.701C194.667 180.924 195.007 181.036 195.422 181.036ZM202.705 172.812V174.604H204.086V175.581H202.705V180.168C202.705 180.464 202.766 180.688 202.889 180.838C203.012 180.984 203.222 181.057 203.518 181.057C203.664 181.057 203.865 181.029 204.12 180.975V182C203.787 182.091 203.464 182.137 203.149 182.137C202.584 182.137 202.158 181.966 201.871 181.624C201.584 181.282 201.44 180.797 201.44 180.168V175.581H200.093V174.604H201.44V172.812H202.705ZM208.956 181.104C209.407 181.104 209.801 180.968 210.138 180.694C210.476 180.421 210.663 180.079 210.699 179.669H211.895C211.873 180.093 211.727 180.496 211.458 180.879C211.189 181.262 210.829 181.567 210.378 181.795C209.931 182.023 209.457 182.137 208.956 182.137C207.949 182.137 207.147 181.802 206.55 181.132C205.957 180.457 205.661 179.537 205.661 178.37V178.158C205.661 177.438 205.793 176.798 206.057 176.237C206.322 175.677 206.7 175.242 207.192 174.932C207.689 174.622 208.275 174.467 208.949 174.467C209.778 174.467 210.467 174.715 211.013 175.212C211.565 175.709 211.859 176.354 211.895 177.146H210.699C210.663 176.668 210.48 176.276 210.152 175.971C209.829 175.661 209.428 175.506 208.949 175.506C208.306 175.506 207.807 175.738 207.452 176.203C207.101 176.663 206.926 177.331 206.926 178.206V178.445C206.926 179.298 207.101 179.954 207.452 180.414C207.803 180.874 208.304 181.104 208.956 181.104ZM215.002 175.499C215.562 174.811 216.292 174.467 217.189 174.467C218.752 174.467 219.541 175.349 219.555 177.112V182H218.29V177.105C218.285 176.572 218.162 176.178 217.921 175.923C217.684 175.668 217.312 175.54 216.807 175.54C216.396 175.54 216.036 175.649 215.726 175.868C215.417 176.087 215.175 176.374 215.002 176.729V182H213.737V171.5H215.002V175.499ZM223.242 182H221.978V174.604H223.242V182ZM221.875 172.642C221.875 172.437 221.936 172.263 222.06 172.122C222.187 171.981 222.374 171.91 222.62 171.91C222.866 171.91 223.053 171.981 223.181 172.122C223.308 172.263 223.372 172.437 223.372 172.642C223.372 172.847 223.308 173.018 223.181 173.154C223.053 173.291 222.866 173.359 222.62 173.359C222.374 173.359 222.187 173.291 222.06 173.154C221.936 173.018 221.875 172.847 221.875 172.642ZM226.889 174.604L226.93 175.533C227.495 174.822 228.233 174.467 229.145 174.467C230.708 174.467 231.496 175.349 231.51 177.112V182H230.245V177.105C230.241 176.572 230.118 176.178 229.876 175.923C229.639 175.668 229.268 175.54 228.762 175.54C228.352 175.54 227.992 175.649 227.682 175.868C227.372 176.087 227.13 176.374 226.957 176.729V182H225.692V174.604H226.889ZM233.536 178.24C233.536 177.087 233.803 176.171 234.336 175.492C234.869 174.809 235.576 174.467 236.455 174.467C237.358 174.467 238.062 174.786 238.567 175.424L238.629 174.604H239.784V181.822C239.784 182.779 239.499 183.534 238.93 184.085C238.365 184.636 237.604 184.912 236.647 184.912C236.113 184.912 235.592 184.798 235.081 184.57C234.571 184.342 234.181 184.03 233.912 183.634L234.568 182.875C235.111 183.545 235.774 183.88 236.558 183.88C237.173 183.88 237.651 183.707 237.993 183.36C238.34 183.014 238.513 182.526 238.513 181.897V181.262C238.007 181.845 237.317 182.137 236.442 182.137C235.576 182.137 234.874 181.788 234.336 181.091C233.803 180.394 233.536 179.443 233.536 178.24ZM234.808 178.384C234.808 179.218 234.979 179.874 235.32 180.353C235.662 180.826 236.141 181.063 236.756 181.063C237.553 181.063 238.139 180.701 238.513 179.977V176.6C238.125 175.893 237.544 175.54 236.77 175.54C236.154 175.54 235.674 175.779 235.327 176.258C234.981 176.736 234.808 177.445 234.808 178.384ZM249.142 177.563C248.016 177.24 247.196 176.843 246.681 176.374C246.171 175.9 245.915 175.317 245.915 174.624C245.915 173.84 246.227 173.193 246.852 172.683C247.481 172.168 248.296 171.91 249.299 171.91C249.983 171.91 250.591 172.042 251.124 172.307C251.662 172.571 252.077 172.936 252.368 173.4C252.665 173.865 252.813 174.373 252.813 174.925H251.493C251.493 174.323 251.302 173.852 250.919 173.51C250.536 173.163 249.996 172.99 249.299 172.99C248.652 172.99 248.146 173.134 247.782 173.421C247.421 173.703 247.241 174.098 247.241 174.604C247.241 175.009 247.412 175.353 247.754 175.636C248.101 175.914 248.686 176.169 249.511 176.401C250.34 176.634 250.988 176.891 251.452 177.174C251.922 177.452 252.268 177.778 252.491 178.151C252.719 178.525 252.833 178.965 252.833 179.471C252.833 180.277 252.519 180.924 251.89 181.412C251.261 181.895 250.42 182.137 249.367 182.137C248.684 182.137 248.046 182.007 247.453 181.747C246.861 181.483 246.403 181.123 246.079 180.667C245.76 180.211 245.601 179.694 245.601 179.115H246.92C246.92 179.717 247.141 180.193 247.583 180.544C248.03 180.89 248.625 181.063 249.367 181.063C250.06 181.063 250.591 180.922 250.96 180.64C251.329 180.357 251.514 179.972 251.514 179.484C251.514 178.997 251.343 178.621 251.001 178.356C250.659 178.088 250.04 177.823 249.142 177.563ZM257.813 182.137C256.81 182.137 255.994 181.809 255.366 181.152C254.737 180.492 254.422 179.61 254.422 178.507V178.274C254.422 177.541 254.561 176.887 254.839 176.312C255.122 175.734 255.514 175.283 256.015 174.959C256.521 174.631 257.068 174.467 257.656 174.467C258.617 174.467 259.365 174.784 259.898 175.417C260.431 176.05 260.698 176.957 260.698 178.138V178.664H255.687C255.705 179.393 255.917 179.983 256.323 180.435C256.733 180.881 257.252 181.104 257.881 181.104C258.328 181.104 258.706 181.013 259.016 180.831C259.326 180.649 259.597 180.407 259.829 180.106L260.602 180.708C259.982 181.66 259.052 182.137 257.813 182.137ZM257.656 175.506C257.145 175.506 256.717 175.693 256.37 176.066C256.024 176.436 255.81 176.955 255.728 177.625H259.433V177.529C259.397 176.887 259.223 176.39 258.913 176.039C258.604 175.684 258.184 175.506 257.656 175.506ZM266.163 175.738C265.971 175.706 265.764 175.69 265.54 175.69C264.711 175.69 264.148 176.044 263.852 176.75V182H262.587V174.604H263.818L263.838 175.458C264.253 174.797 264.841 174.467 265.602 174.467C265.848 174.467 266.035 174.499 266.163 174.562V175.738ZM270.315 180.284L272.147 174.604H273.439L270.787 182H269.823L267.143 174.604H268.435L270.315 180.284ZM276.45 182H275.185V174.604H276.45V182ZM275.083 172.642C275.083 172.437 275.144 172.263 275.267 172.122C275.395 171.981 275.582 171.91 275.828 171.91C276.074 171.91 276.261 171.981 276.388 172.122C276.516 172.263 276.58 172.437 276.58 172.642C276.58 172.847 276.516 173.018 276.388 173.154C276.261 173.291 276.074 173.359 275.828 173.359C275.582 173.359 275.395 173.291 275.267 173.154C275.144 173.018 275.083 172.847 275.083 172.642ZM281.867 181.104C282.318 181.104 282.712 180.968 283.049 180.694C283.387 180.421 283.574 180.079 283.61 179.669H284.806C284.784 180.093 284.638 180.496 284.369 180.879C284.1 181.262 283.74 181.567 283.289 181.795C282.842 182.023 282.368 182.137 281.867 182.137C280.86 182.137 280.058 181.802 279.461 181.132C278.868 180.457 278.572 179.537 278.572 178.37V178.158C278.572 177.438 278.704 176.798 278.968 176.237C279.233 175.677 279.611 175.242 280.103 174.932C280.6 174.622 281.186 174.467 281.86 174.467C282.689 174.467 283.378 174.715 283.924 175.212C284.476 175.709 284.77 176.354 284.806 177.146H283.61C283.574 176.668 283.391 176.276 283.063 175.971C282.74 175.661 282.339 175.506 281.86 175.506C281.217 175.506 280.718 175.738 280.363 176.203C280.012 176.663 279.837 177.331 279.837 178.206V178.445C279.837 179.298 280.012 179.954 280.363 180.414C280.714 180.874 281.215 181.104 281.867 181.104ZM289.718 182.137C288.715 182.137 287.899 181.809 287.27 181.152C286.641 180.492 286.327 179.61 286.327 178.507V178.274C286.327 177.541 286.466 176.887 286.744 176.312C287.026 175.734 287.418 175.283 287.92 174.959C288.426 174.631 288.972 174.467 289.56 174.467C290.522 174.467 291.269 174.784 291.803 175.417C292.336 176.05 292.602 176.957 292.602 178.138V178.664H287.592C287.61 179.393 287.822 179.983 288.227 180.435C288.637 180.881 289.157 181.104 289.786 181.104C290.233 181.104 290.611 181.013 290.921 180.831C291.231 180.649 291.502 180.407 291.734 180.106L292.507 180.708C291.887 181.66 290.957 182.137 289.718 182.137ZM289.56 175.506C289.05 175.506 288.622 175.693 288.275 176.066C287.929 176.436 287.715 176.955 287.633 177.625H291.338V177.529C291.301 176.887 291.128 176.39 290.818 176.039C290.508 175.684 290.089 175.506 289.56 175.506ZM298.799 180.038C298.799 179.696 298.669 179.432 298.409 179.245C298.154 179.054 297.705 178.89 297.062 178.753C296.424 178.616 295.916 178.452 295.538 178.261C295.164 178.069 294.886 177.841 294.704 177.577C294.526 177.313 294.437 176.998 294.437 176.634C294.437 176.028 294.693 175.515 295.203 175.096C295.718 174.676 296.374 174.467 297.172 174.467C298.01 174.467 298.689 174.683 299.209 175.116C299.733 175.549 299.995 176.103 299.995 176.777H298.723C298.723 176.431 298.575 176.132 298.279 175.882C297.987 175.631 297.618 175.506 297.172 175.506C296.711 175.506 296.351 175.606 296.092 175.807C295.832 176.007 295.702 176.269 295.702 176.593C295.702 176.898 295.823 177.128 296.064 177.283C296.306 177.438 296.741 177.586 297.37 177.728C298.003 177.869 298.516 178.037 298.908 178.233C299.3 178.429 299.589 178.666 299.776 178.944C299.968 179.218 300.063 179.553 300.063 179.949C300.063 180.61 299.799 181.141 299.27 181.542C298.742 181.938 298.056 182.137 297.213 182.137C296.62 182.137 296.096 182.032 295.64 181.822C295.185 181.613 294.827 181.321 294.567 180.947C294.312 180.569 294.184 180.161 294.184 179.724H295.449C295.472 180.147 295.64 180.485 295.955 180.735C296.274 180.981 296.693 181.104 297.213 181.104C297.691 181.104 298.074 181.009 298.361 180.817C298.653 180.621 298.799 180.362 298.799 180.038ZM308.368 178.862L308.56 180.175L308.84 178.992L310.809 172.047H311.916L313.837 178.992L314.11 180.195L314.322 178.855L315.867 172.047H317.187L314.773 182H313.577L311.526 174.747L311.369 173.988L311.212 174.747L309.086 182H307.89L305.483 172.047H306.796L308.368 178.862ZM318.317 178.233C318.317 177.509 318.459 176.857 318.741 176.278C319.028 175.7 319.425 175.253 319.931 174.938C320.441 174.624 321.022 174.467 321.674 174.467C322.681 174.467 323.495 174.815 324.114 175.513C324.739 176.21 325.051 177.137 325.051 178.295V178.384C325.051 179.104 324.912 179.751 324.634 180.325C324.36 180.895 323.966 181.339 323.451 181.658C322.941 181.977 322.353 182.137 321.688 182.137C320.685 182.137 319.871 181.788 319.247 181.091C318.627 180.394 318.317 179.471 318.317 178.322V178.233ZM319.589 178.384C319.589 179.204 319.778 179.863 320.156 180.359C320.539 180.856 321.05 181.104 321.688 181.104C322.33 181.104 322.841 180.854 323.219 180.353C323.597 179.847 323.786 179.14 323.786 178.233C323.786 177.422 323.593 176.766 323.205 176.265C322.822 175.759 322.312 175.506 321.674 175.506C321.05 175.506 320.546 175.754 320.163 176.251C319.78 176.748 319.589 177.459 319.589 178.384ZM330.632 175.738C330.441 175.706 330.233 175.69 330.01 175.69C329.18 175.69 328.618 176.044 328.321 176.75V182H327.057V174.604H328.287L328.308 175.458C328.722 174.797 329.31 174.467 330.071 174.467C330.318 174.467 330.504 174.499 330.632 174.562V175.738ZM334.285 178.575L333.492 179.402V182H332.228V171.5H333.492V177.851L334.169 177.037L336.473 174.604H338.011L335.133 177.693L338.346 182H336.863L334.285 178.575Z" fill="#1A1877"/>
<defs>
<filter id="filter0_d" x="0" y="0" width="541" height="391.5" filterUnits="userSpaceOnUse" color-interpolation-filters="sRGB">
<feFlood flood-opacity="0" result="BackgroundImageFix"/>
<feColorMatrix in="SourceAlpha" type="matrix" values="0 0 0 0 0 0 0 0 0 0 0 0 0 0 0 0 0 0 127 0" result="hardAlpha"/>
<feOffset dx="30" dy="30"/>
<feGaussianBlur stdDeviation="45"/>
<feColorMatrix type="matrix" values="0 0 0 0 0.101961 0 0 0 0 0.0941176 0 0 0 0 0.466667 0 0 0 0.15 0"/>
<feBlend mode="normal" in2="BackgroundImageFix" result="effect1_dropShadow"/>
<feBlend mode="normal" in="SourceGraphic" in2="effect1_dropShadow" result="shape"/>
</filter>
</defs>
</svg>
