<svg width="28" height="21" viewBox="0 0 28 21" fill="none" xmlns="http://www.w3.org/2000/svg">
<path fill-rule="evenodd" clip-rule="evenodd" d="M6.786 0.649349C7.07109 0.934526 7.23125 1.32126 7.23125 1.7245C7.23125 2.12774 7.07109 2.51447 6.786 2.79965C5.7974 3.78815 5.01319 4.9617 4.47816 6.25329C3.94313 7.54488 3.66775 8.92921 3.66775 10.3272C3.66775 11.7253 3.94313 13.1096 4.47816 14.4012C5.01319 15.6928 5.7974 16.8663 6.786 17.8548C6.93125 17.9951 7.0471 18.1629 7.1268 18.3484C7.2065 18.534 7.24845 18.7335 7.2502 18.9354C7.25196 19.1374 7.21348 19.3376 7.13702 19.5245C7.06055 19.7114 6.94764 19.8812 6.80485 20.024C6.66207 20.1667 6.49227 20.2797 6.30538 20.3561C6.11849 20.4326 5.91824 20.4711 5.71632 20.4693C5.5144 20.4676 5.31485 20.4256 5.12932 20.3459C4.94378 20.2662 4.77598 20.1504 4.6357 20.0051C3.36477 18.7342 2.35661 17.2254 1.66879 15.5649C0.980971 13.9043 0.626953 12.1246 0.626953 10.3272C0.626953 8.52988 0.980971 6.75013 1.66879 5.08959C2.35661 3.42906 3.36477 1.92026 4.6357 0.649349C4.92088 0.364257 5.30761 0.204102 5.71085 0.204102C6.11409 0.204102 6.50082 0.364257 6.786 0.649349ZM21.8412 0.649349C22.1263 0.364257 22.5131 0.204102 22.9163 0.204102C23.3196 0.204102 23.7063 0.364257 23.9915 0.649349C25.2624 1.92026 26.2706 3.42906 26.9584 5.08959C27.6462 6.75013 28.0002 8.52988 28.0002 10.3272C28.0002 12.1246 27.6462 13.9043 26.9584 15.5649C26.2706 17.2254 25.2624 18.7342 23.9915 20.0051C23.8512 20.1504 23.6834 20.2662 23.4978 20.3459C23.3123 20.4256 23.1128 20.4676 22.9108 20.4693C22.7089 20.4711 22.5087 20.4326 22.3218 20.3561C22.1349 20.2797 21.9651 20.1667 21.8223 20.024C21.6795 19.8812 21.5666 19.7114 21.4901 19.5245C21.4137 19.3376 21.3752 19.1374 21.377 18.9354C21.3787 18.7335 21.4207 18.534 21.5004 18.3484C21.5801 18.1629 21.6959 17.9951 21.8412 17.8548C22.8298 16.8663 23.614 15.6928 24.149 14.4012C24.684 13.1096 24.9594 11.7253 24.9594 10.3272C24.9594 8.92921 24.684 7.54488 24.149 6.25329C23.614 4.9617 22.8298 3.78815 21.8412 2.79965C21.5561 2.51447 21.3959 2.12774 21.3959 1.7245C21.3959 1.32126 21.5561 0.934526 21.8412 0.649349ZM11.0881 4.94995C11.3732 5.23513 11.5334 5.62186 11.5334 6.02511C11.5334 6.42835 11.3732 6.81508 11.0881 7.10026C10.6644 7.5239 10.3283 8.02687 10.099 8.58043C9.86966 9.13399 9.75163 9.72729 9.75163 10.3265C9.75163 10.9257 9.86966 11.519 10.099 12.0725C10.3283 12.6261 10.6644 13.129 11.0881 13.5527C11.2293 13.694 11.3413 13.8617 11.4177 14.0463C11.494 14.2308 11.5333 14.4286 11.5332 14.6284C11.5332 14.8281 11.4938 15.0259 11.4173 15.2104C11.3408 15.3949 11.2287 15.5626 11.0874 15.7037C10.9461 15.8449 10.7784 15.9569 10.5938 16.0333C10.4092 16.1097 10.2114 16.1489 10.0117 16.1489C9.81193 16.1488 9.61416 16.1094 9.42965 16.0329C9.24513 15.9564 9.0775 15.8443 8.93631 15.703C7.51085 14.2771 6.71007 12.3434 6.71007 10.3272C6.71007 8.31103 7.51085 6.37736 8.93631 4.95148C9.07754 4.81008 9.24526 4.69792 9.42987 4.62139C9.61448 4.54486 9.81237 4.50547 10.0122 4.50547C10.2121 4.50547 10.41 4.54486 10.5946 4.62139C10.7792 4.69792 10.9469 4.81008 11.0881 4.95148V4.94995ZM17.539 4.94995C17.6803 4.80856 17.848 4.6964 18.0326 4.61987C18.2172 4.54334 18.4151 4.50395 18.6149 4.50395C18.8148 4.50395 19.0127 4.54334 19.1973 4.61987C19.3819 4.6964 19.5496 4.80856 19.6909 4.94995C20.3971 5.65604 20.9574 6.49435 21.3396 7.41699C21.7219 8.33963 21.9186 9.32854 21.9186 10.3272C21.9186 11.3259 21.7219 12.3148 21.3396 13.2375C20.9574 14.1601 20.3971 14.9984 19.6909 15.7045C19.4055 15.9899 19.0185 16.1502 18.6149 16.1502C18.2114 16.1502 17.8244 15.9899 17.539 15.7045C17.2537 15.4192 17.0934 15.0321 17.0934 14.6286C17.0934 14.2251 17.2537 13.838 17.539 13.5527C18.3943 12.6972 18.8748 11.537 18.8748 10.3272C18.8748 9.11751 18.3943 7.95731 17.539 7.10178C17.3976 6.96054 17.2855 6.79283 17.209 6.60821C17.1324 6.4236 17.093 6.22571 17.093 6.02587C17.093 5.82602 17.1324 5.62813 17.209 5.44352C17.2855 5.25891 17.3976 5.09119 17.539 4.94995ZM14.3136 8.80651C14.7169 8.80651 15.1037 8.96673 15.3889 9.25192C15.6741 9.53711 15.8343 9.92391 15.8343 10.3272V10.3424C15.8343 10.7458 15.6741 11.1326 15.3889 11.4178C15.1037 11.7029 14.7169 11.8632 14.3136 11.8632C13.9103 11.8632 13.5235 11.7029 13.2383 11.4178C12.9531 11.1326 12.7929 10.7458 12.7929 10.3424V10.3272C12.7929 9.92391 12.9531 9.53711 13.2383 9.25192C13.5235 8.96673 13.9103 8.80651 14.3136 8.80651Z" fill="#7FB7E7"/>
</svg>
