<svg width="100" height="100" viewBox="0 0 100 100" fill="none" xmlns="http://www.w3.org/2000/svg">
<circle cx="50" cy="50" r="50" fill="#D6EEFB"/>
<path d="M53.8658 49.3334C53.9315 49.3334 53.9957 49.3141 54.0504 49.2778C54.1052 49.2415 54.1479 49.1898 54.1734 49.1293C54.1988 49.0687 54.2059 49.002 54.1935 48.9375C54.1812 48.873 54.1501 48.8136 54.1042 48.7667L47.5708 42.1234C47.5244 42.0762 47.465 42.044 47.4002 42.0307C47.3353 42.0174 47.268 42.0238 47.2068 42.0489C47.1456 42.074 47.0932 42.1167 47.0564 42.1717C47.0196 42.2267 46.9999 42.2914 47 42.3575V48.3334C47 48.5986 47.1054 48.8529 47.2929 49.0405C47.4804 49.228 47.7348 49.3334 48 49.3334H53.8658Z" fill="#4662B7"/>
<path d="M45.4167 50.9165C45.0744 50.5788 44.8024 50.1767 44.6165 49.7333C44.4305 49.2898 44.3343 48.814 44.3333 48.3332V40.6665H38.3333C36.9201 40.6707 35.566 41.2339 34.5667 42.2332C33.5674 43.2325 33.0042 44.5866 33 45.9998V64.6665C33 66.081 33.5619 67.4375 34.5621 68.4377C35.5623 69.4379 36.9188 69.9998 38.3333 69.9998H50.3333C51.7478 69.9998 53.1044 69.4379 54.1046 68.4377C55.1048 67.4375 55.6667 66.081 55.6667 64.6665V51.9998H48C47.5191 51.9992 47.0432 51.903 46.5998 51.7171C46.1563 51.5311 45.7542 51.259 45.4167 50.9165Z" fill="#4662B7"/>
<path d="M60 38.6669H65.8658C65.9315 38.6669 65.9957 38.6476 66.0504 38.6113C66.1052 38.575 66.1479 38.5233 66.1734 38.4628C66.1988 38.4022 66.2059 38.3355 66.1935 38.271C66.1812 38.2065 66.1501 38.1471 66.1042 38.1002L59.5708 31.4569C59.5244 31.4097 59.465 31.3775 59.4002 31.3642C59.3353 31.3509 59.268 31.3572 59.2068 31.3824C59.1456 31.4075 59.0932 31.4502 59.0564 31.5052C59.0196 31.5602 58.9999 31.6249 59 31.691V37.6669C59 37.9321 59.1054 38.1864 59.2929 38.374C59.4804 38.5615 59.7348 38.6669 60 38.6669Z" fill="#4662B7"/>
<path d="M60.0002 41.3333C59.03 41.3259 58.1017 40.9372 57.4156 40.2512C56.7296 39.5652 56.3409 38.6368 56.3335 37.6667V30H47.3335C46.0079 30.0015 44.737 30.5288 43.7997 31.4662C42.8623 32.4035 42.335 33.6744 42.3335 35V38H45.8435C46.2915 38.0018 46.7348 38.0921 47.1478 38.2657C47.5608 38.4393 47.9354 38.6928 48.2502 39.0117L57.3468 48.2617C57.9814 48.9056 58.3358 49.7743 58.3327 50.6783V62H62.7535C65.4627 62 67.666 59.7567 67.666 57V41.3333H60.0002Z" fill="#4662B7"/>
</svg>
