<svg width="117" height="74" viewBox="0 0 117 74" fill="none" xmlns="http://www.w3.org/2000/svg">
<g style="mix-blend-mode:darken">
<path d="M40.0551 73.0088C38.5828 73.0088 9.1633 55.9255 10.0954 55.8499C10.0961 55.8499 10.0961 55.8499 10.0961 55.8499L9.40511 55.4807L9.33001 55.5674C9.19223 55.4869 9.07029 55.4115 8.95455 55.3386L8.88911 55.3178L8.90495 55.3068C8.27391 54.9013 7.97215 54.5759 7.96802 54.1082C7.3349 52.862 0 46.0298 0 46.0298L1.98614 44.5344L2.45047 44.6908C2.45047 44.6908 6.68044 41.2744 14.5217 36.1487L9.27627 32.3707L7.7579 32.4183C7.7579 32.4183 10.5156 29.1729 13.0026 27.4162C12.982 27.33 12.9737 27.2383 12.9737 27.1433L9.07305 25.8294C7.73861 25.3795 7.05521 24.9766 7.04281 24.1403C7.03523 23.8255 7.1172 23.4514 7.29012 22.996L7.53951 22.6018L7.54708 22.6039L7.80062 22.7522L8.72997 23.28L9.47331 23.7043L9.65932 23.8082C9.68205 24.0727 9.5291 24.2291 9.54495 24.3793C9.55184 24.4379 9.58492 24.4971 9.66139 24.5576L9.70064 24.5846C9.83154 24.6777 10.0541 24.7802 10.4385 24.91L13.5179 25.9473C13.7226 25.7544 13.9609 25.6223 14.202 25.5684C14.2234 24.0471 14.5334 18.8741 17.7334 17.3646L25.2736 19.9048L26.708 18.9742L34.7704 20.5503L41.3985 22.7832L42.5138 22.0633L44.4503 21.7581L47.1323 19.9322L45.6573 18.5842L47.091 17.3806C46.358 17.5563 45.6718 17.6512 45.0697 17.6512C44.6109 17.6512 44.2003 17.5964 43.8551 17.4807L42.9609 17.1787L43.922 17.4618C42.1459 16.7008 43.1359 14.31 46.2374 12.01C48.8836 10.0465 52.231 8.76715 54.4479 8.76715C54.9109 8.76715 55.3249 8.82288 55.6721 8.93993L55.44 8.8864C56.7296 9.32097 57.8774 9.67384 56.9163 11.0853L57.5798 10.8106L60.7894 11.0495L67.7041 7.01984L73.0673 5.93776L78.8894 7.89822L79.4991 7.47598L83.3694 8.78011L80.1976 10.9316L116.025 27.7813L40.0978 72.9996C40.0881 73.0058 40.0737 73.0088 40.0551 73.0088ZM38.7723 71.4482C38.97 71.5282 39.1788 71.5674 39.3875 71.5674C39.6872 71.5674 39.9869 71.4862 40.2521 71.3228L40.6379 71.086L40.7323 71.0287L41.3172 64.8602L40.2507 65.5152C39.9937 65.6718 39.7085 65.7549 39.4206 65.7549C39.3882 65.7549 39.3565 65.7545 39.3241 65.7522C39.0589 65.7453 38.7944 65.675 38.5643 65.5429L34.3054 63.0854V51.4333C34.3054 50.7008 34.0022 50.0008 33.4669 49.5014L29.8184 46.0893C27.3053 44.0901 24.4635 42.5414 21.4205 41.5134L19.442 41.1407C19.36 41.1248 19.278 41.1173 19.1981 41.1173C18.4947 41.1173 17.8967 41.6883 17.8967 42.4222V53.6176L11.8687 50.1394V55.2485C11.8687 55.5638 11.9913 55.8609 12.2042 56.0792C12.282 56.1604 12.3716 56.2323 12.4722 56.2902L31.3719 67.1963L38.5643 71.3492C38.6311 71.3877 38.7006 71.4208 38.7723 71.4482ZM30.5604 41.951L30.683 43.5099C31.2066 43.1848 31.7336 42.8568 32.2668 42.5255L30.5604 41.951ZM61.8414 21.8488C62.965 21.8488 64.046 21.9586 65.018 22.1871C65.6994 21.7697 66.3655 21.3626 67.0152 20.9656C65.8998 20.4524 65.2302 19.7648 65.0111 18.9976C64.863 18.4814 64.2719 18.1749 63.6739 18.1749C63.3887 18.1749 63.1014 18.2447 62.8603 18.3948L60.416 19.9083C59.4026 20.5359 60.0378 21.8558 61.322 21.8558C61.3385 21.8558 61.3557 21.855 61.3723 21.855C61.5293 21.8509 61.6857 21.8488 61.8414 21.8488ZM55.6729 8.93993C55.6729 8.93993 55.6728 8.93993 55.6721 8.93993H55.6729Z" fill="url(#paint0_linear)"/>
<path d="M115.204 16.5757L116.466 15.9256L93.8964 2.89521L92.6343 3.54487L115.204 16.5757Z" fill="#BCBBBB"/>
<path d="M115.204 20.1548L116.466 19.5047V15.9258L115.204 16.5759V20.1548Z" fill="#828484"/>
<path d="M92.6343 3.54511L115.204 16.5759V20.1548L92.6343 7.12404V3.54511Z" fill="#52554D"/>
<path d="M74.1384 13.9477C74.1384 15.3936 74.64 16.4332 75.4777 16.9962C76.5999 17.7497 79.0056 19.0532 79.0056 19.0532C82.3861 17.1022 89.0259 10.3233 89.0259 6.9428C89.0259 5.47189 85.861 4.36067 84.9965 3.80402C83.8742 3.08135 82.1684 3.19157 80.2588 4.29384C76.8789 6.24472 74.1384 10.5671 74.1384 13.9477Z" fill="url(#paint1_linear)"/>
<path d="M77.4492 15.8771C77.4492 19.2576 80.1891 20.4164 83.5696 18.4646C86.9501 16.5135 89.6899 12.1914 89.6899 8.81082C89.6899 5.43099 86.9501 4.27223 83.5696 6.22311C80.1891 8.17495 77.4492 12.4971 77.4492 15.8771Z" fill="#3C414E"/>
<path d="M78.0474 16.1552C78.0474 17.6011 78.5489 18.6402 79.3873 19.2037C80.5089 19.9574 82.9153 21.2607 82.9153 21.2607C86.2951 19.3092 92.9349 12.5308 92.9349 9.15032C92.9349 7.67934 89.77 6.56825 88.9054 6.01167C87.7831 5.28893 86.0781 5.39916 84.1684 6.5015C80.7879 8.45252 78.0474 12.7746 78.0474 16.1552Z" fill="url(#paint2_linear)"/>
<path d="M81.3582 18.084C81.3582 21.4645 84.0987 22.6225 87.4785 20.6714C90.859 18.7204 93.5995 14.3983 93.5995 11.0177C93.5995 7.63718 90.859 6.47918 87.4785 8.43026C84.0987 10.3818 81.3582 14.7042 81.3582 18.084Z" fill="#3C414E"/>
<path d="M83.166 16.7136C83.166 18.957 84.9848 19.7255 87.2279 18.4306C89.4717 17.1353 91.2904 14.2674 91.2904 12.0236C91.2904 9.78029 89.4717 9.01146 87.2279 10.3067C84.9848 11.6011 83.166 14.4698 83.166 16.7136Z" fill="url(#paint3_linear)"/>
<path d="M83.417 16.8957C83.417 19.1395 85.2357 19.9083 87.4789 18.6131C89.7227 17.3179 91.5414 14.4492 91.5414 12.2061C91.5414 9.96315 89.7227 9.19348 87.4789 10.4887C85.2357 11.7839 83.417 14.6526 83.417 16.8957Z" fill="#D9DADB"/>
<path d="M91.1231 12.4468C91.1231 14.4611 89.4917 17.0335 87.4773 18.1971C85.4698 19.3545 83.8323 18.664 83.8323 16.6567C83.8323 16.4334 83.8529 16.2041 83.8949 15.974C84.1946 14.0985 85.693 11.9451 87.4773 10.9061C87.6241 10.8229 87.7701 10.7463 87.91 10.6836C89.7218 9.84661 91.1231 10.5789 91.1231 12.4468Z" fill="url(#paint4_linear)"/>
<path d="M89.3526 12.2379V12.2654C89.3526 13.792 88.1188 15.7368 86.5921 16.6147C86.3138 16.7821 86.0417 16.8935 85.784 16.9632C84.9332 17.1933 84.2574 16.9287 83.9853 16.2452C83.9439 16.162 83.9157 16.0711 83.895 15.974C83.937 15.7019 84.0066 15.4234 84.0969 15.1446C84.5709 13.6873 85.6587 12.1889 86.9614 11.2478C87.1288 11.1225 87.3031 11.0111 87.4774 10.9061C87.6028 10.8366 87.7213 10.7739 87.8398 10.7183L87.9101 10.6836C88.7602 10.6486 89.3389 11.2059 89.3526 12.2379Z" fill="#E6E8E7"/>
<path d="M89.1019 11.8536C89.1019 13.345 87.2128 16.0706 85.7138 16.9557L85.6931 16.9702L85.6304 16.9489C85.5608 16.9352 85.4982 16.9212 85.4355 16.8862L85.3583 16.8585C85.0311 16.7401 84.4944 16.5308 83.9853 16.2446C83.9439 16.1615 83.9157 16.0706 83.895 15.9734C83.937 15.7014 84.0066 15.4228 84.0969 15.144C84.5709 13.6868 85.6587 12.1884 86.9614 11.2473C87.1288 11.1219 87.3031 11.0105 87.4774 10.9055C87.6028 10.8361 87.7213 10.7734 87.8398 10.7177C88.3206 11.0662 88.725 11.4637 88.9413 11.6793L88.9482 11.6868C89.0461 11.7909 89.1019 11.8536 89.1019 11.8536Z" fill="url(#paint5_linear)"/>
<path d="M89.4506 12.8571C89.4506 14.1714 88.3862 15.8495 87.0724 16.609C85.7628 17.3638 84.6936 16.9141 84.6936 15.6036C84.6936 15.4583 84.7074 15.3081 84.7349 15.1587C84.9306 13.9351 85.9082 12.5298 87.0724 11.8525C87.1675 11.7973 87.2632 11.7478 87.3542 11.7066C88.5364 11.1609 89.4506 11.6382 89.4506 12.8571Z" fill="#DCDDDD"/>
<path d="M88.3212 13.6422C88.3212 14.283 87.8024 15.1008 87.1624 15.4706C86.5238 15.8384 86.0037 15.6189 86.0037 14.9808C86.0037 14.9101 86.0098 14.8368 86.0229 14.7639C86.1187 14.1678 86.5947 13.4832 87.1624 13.1525L87.2995 13.0822C87.8754 12.8164 88.3212 13.0483 88.3212 13.6422Z" fill="url(#paint6_linear)"/>
<path d="M87.3301 13.7971C87.3301 14.0533 87.1227 14.3813 86.8657 14.5293C86.6108 14.6763 86.4021 14.5888 86.4021 14.3331L86.4097 14.2462C86.4482 14.0073 86.6391 13.7331 86.8657 13.6009L86.9208 13.5726C87.1516 13.4663 87.3301 13.5595 87.3301 13.7971Z" fill="#E6E8E7"/>
<path d="M60.0815 22.0622C60.0815 23.5084 60.5831 24.5479 61.4215 25.1115C62.543 25.8652 64.9494 27.168 64.9494 27.168C68.3292 25.217 74.969 18.4379 74.969 15.0573C74.969 13.5866 71.8042 12.4755 70.9396 11.9187C69.8173 11.1966 68.1122 11.3062 66.2026 12.4084C62.822 14.3603 60.0815 18.6824 60.0815 22.0622Z" fill="url(#paint7_linear)"/>
<path d="M63.3926 23.9911C63.3926 27.3708 66.1331 28.5296 69.5129 26.578C72.8935 24.627 75.634 20.3045 75.634 16.9243C75.634 13.5443 72.8935 12.3855 69.5129 14.3373C66.1331 16.2884 63.3926 20.6105 63.3926 23.9911Z" fill="#3C414E"/>
<path d="M63.9915 24.269C63.9915 25.7149 64.4923 26.7545 65.3307 27.3175C66.4523 28.0709 68.8587 29.3745 68.8587 29.3745C72.2392 27.4235 78.8789 20.6444 78.8789 17.2641C78.8789 15.7932 75.7141 14.682 74.8495 14.1252C73.7265 13.4026 72.0215 13.5127 70.1118 14.615C66.7313 16.566 63.9915 20.8885 63.9915 24.269Z" fill="url(#paint8_linear)"/>
<path d="M67.3015 26.1984C67.3015 29.5789 70.042 30.7377 73.4226 28.7859C76.8031 26.8348 79.5429 22.5126 79.5429 19.1321C79.5429 15.7515 76.8031 14.5933 73.4226 16.5443C70.042 18.4962 67.3015 22.8183 67.3015 26.1984Z" fill="#3C414E"/>
<path d="M69.1101 24.828C69.1101 27.0711 70.9282 27.8399 73.172 26.5447C75.4151 25.2497 77.2338 22.3816 77.2338 20.1377C77.2338 17.8948 75.4151 17.1259 73.172 18.4211C70.9282 19.7163 69.1101 22.5842 69.1101 24.828Z" fill="url(#paint9_linear)"/>
<path d="M69.3601 25.0109C69.3601 27.2542 71.1789 28.023 73.4227 26.7278C75.6658 25.4326 77.4845 22.5647 77.4845 20.3209C77.4845 18.0776 75.6658 17.309 73.4227 18.6034C71.1789 19.8984 69.3601 22.767 69.3601 25.0109Z" fill="#D9DADB"/>
<path d="M77.0662 20.5612C77.0662 22.5755 75.4355 25.1474 73.4211 26.311C71.4136 27.4681 69.7754 26.7779 69.7754 24.7703C69.7754 24.5478 69.7967 24.3177 69.8381 24.0876C70.1377 22.2124 71.6368 20.0591 73.4211 19.02C73.5672 18.9366 73.7139 18.8601 73.8531 18.7975C75.6649 17.961 77.0662 18.6928 77.0662 20.5612Z" fill="url(#paint10_linear)"/>
<path d="M75.296 20.3525V20.3799C75.296 21.9065 74.0621 23.8514 72.5362 24.7298C72.2572 24.8971 71.9851 25.008 71.7274 25.0782C70.8773 25.3078 70.2008 25.0432 69.9293 24.3598C69.8873 24.2763 69.8597 24.1862 69.8384 24.0882C69.8804 23.8161 69.95 23.5379 70.0409 23.2588C70.5149 21.8019 71.602 20.3035 72.9054 19.3623C73.0729 19.237 73.2472 19.1253 73.4215 19.0206C73.5468 18.9509 73.6653 18.8885 73.7838 18.8325L73.8534 18.7981C74.7035 18.7631 75.2822 19.3209 75.296 20.3525Z" fill="#E6E8E7"/>
<path d="M75.0452 19.9684C75.0452 21.4606 73.1562 24.1859 71.6578 25.0704L71.6372 25.085L71.5738 25.0634C71.5042 25.0497 71.4415 25.036 71.3788 25.0007L71.3023 24.9733C70.9744 24.8549 70.4378 24.6452 69.9293 24.3595C69.8873 24.276 69.8597 24.1859 69.8384 24.0879C69.8804 23.8158 69.95 23.5376 70.0409 23.2585C70.5149 21.8016 71.602 20.3032 72.9054 19.362C73.0729 19.2367 73.2472 19.125 73.4215 19.0203C73.5468 18.9506 73.6653 18.8882 73.7838 18.8322C74.2647 19.1807 74.6691 19.5784 74.8847 19.7948L74.8923 19.8015C74.9894 19.9062 75.0452 19.9684 75.0452 19.9684Z" fill="url(#paint11_linear)"/>
<path d="M75.3942 20.971C75.3942 22.2848 74.3298 23.963 73.0154 24.7221C71.7057 25.4772 70.6372 25.0273 70.6372 23.7178C70.6372 23.5717 70.651 23.4223 70.6778 23.2718C70.8735 22.0485 71.8511 20.6429 73.0154 19.9659C73.1111 19.9115 73.2062 19.8611 73.2971 19.8206C74.48 19.2748 75.3942 19.7522 75.3942 20.971Z" fill="#DCDDDD"/>
<path d="M74.2643 21.7564C74.2643 22.3966 73.7462 23.2142 73.1055 23.5843C72.4676 23.9521 71.9468 23.7331 71.9468 23.0944C71.9468 23.0234 71.9537 22.9505 71.9668 22.8776C72.0618 22.2815 72.5385 21.5966 73.1055 21.2667L73.2426 21.1959C73.8193 20.9297 74.2643 21.1628 74.2643 21.7564Z" fill="url(#paint12_linear)"/>
<path d="M73.2739 21.9106C73.2739 22.1677 73.0658 22.4949 72.8096 22.6429C72.554 22.7904 72.3452 22.7021 72.3452 22.4468L72.3535 22.3598C72.3914 22.1214 72.5822 21.8472 72.8096 21.715L72.8647 21.686C73.0954 21.58 73.2739 21.673 73.2739 21.9106Z" fill="#E6E8E7"/>
<path d="M95.2846 15.0438L94.3022 15.6113V9.38144L95.2846 8.81391V15.0438Z" fill="#6B4D88"/>
<path d="M84.0066 16.6323C84.0066 18.5494 85.5615 19.2066 87.4787 18.0994C89.396 16.9931 90.9502 14.5413 90.9502 12.6239C90.9502 10.7068 89.396 10.0496 87.4787 11.1567C85.5615 12.263 84.0066 14.7149 84.0066 16.6323Z" fill="#ABD7B0"/>
<path d="M110.622 14.3946L73.4222 33.6553L60.4443 25.3781L91.7336 7.31601L96.6422 6.32032L110.622 14.3946Z" fill="#818283"/>
<path d="M110.622 14.3941L104.712 15.5928L91.7334 7.31549L96.6419 6.3198L110.622 14.3941Z" fill="#6D6E70"/>
<path d="M74.3367 18.4516L89.5101 9.69268L98.1925 14.6276L83.0191 23.3862L74.3367 18.4516Z" fill="#A0A09F"/>
<path d="M92.1599 15.4626C92.1599 17.3235 89.8431 18.8315 86.9847 18.8315C84.1271 18.8315 81.8096 17.3235 81.8096 15.4626C81.8096 13.6025 84.1271 12.0944 86.9847 12.0944C89.8431 12.0944 92.1599 13.6025 92.1599 15.4626Z" fill="#818283"/>
<path d="M110.622 17.2489L73.4219 38.7227V33.6548L104.712 15.5928L110.622 14.3941V17.2489Z" fill="#48484A"/>
<path d="M83.0192 23.3867L98.1926 14.6281L99.1075 16.4321L82.105 26.2471L83.0192 23.3867Z" fill="#6D6E70"/>
<path d="M94.7939 25.955C94.7939 27.4009 95.2955 28.4408 96.1339 29.0043C97.2554 29.7578 99.6619 31.0605 99.6619 31.0605C103.042 29.1095 109.681 22.3306 109.681 18.9501C109.681 17.48 106.517 16.3681 105.652 15.812C104.53 15.0895 102.825 15.199 100.915 16.3013C97.5345 18.2529 94.7939 22.5753 94.7939 25.955Z" fill="url(#paint13_linear)"/>
<path d="M98.1047 27.8848C98.1047 31.2651 100.845 32.4233 104.225 30.4723C107.606 28.5205 110.346 24.1983 110.346 20.8186C110.346 17.4381 107.606 16.2792 104.225 18.2309C100.845 20.1819 98.1047 24.5043 98.1047 27.8848Z" fill="#3C414E"/>
<path d="M98.7031 28.1621C98.7031 29.6083 99.204 30.6478 100.042 31.2113C101.164 31.9648 103.57 33.2676 103.57 33.2676C106.951 31.3168 113.591 24.5377 113.591 21.1572C113.591 19.6865 110.425 18.5751 109.561 18.0185C108.438 17.2965 106.733 17.4061 104.823 18.5083C101.443 20.4599 98.7031 24.7823 98.7031 28.1621Z" fill="url(#paint14_linear)"/>
<path d="M102.013 30.0916C102.013 33.4714 104.754 34.6302 108.134 32.6786C111.514 30.7276 114.255 26.4052 114.255 23.0246C114.255 19.6449 111.514 18.4861 108.134 20.438C104.754 22.389 102.013 26.7111 102.013 30.0916Z" fill="#3C414E"/>
<path d="M103.822 28.7207C103.822 30.964 105.641 31.7328 107.884 30.4381C110.127 29.1432 111.946 26.2745 111.946 24.0312C111.946 21.7876 110.127 21.0188 107.884 22.3137C105.641 23.609 103.822 26.4777 103.822 28.7207Z" fill="url(#paint15_linear)"/>
<path d="M104.072 28.9037C104.072 31.1468 105.891 31.9156 108.135 30.6204C110.378 29.326 112.196 26.4573 112.196 24.2134C112.196 21.9704 110.378 21.2016 108.135 22.4968C105.891 23.7913 104.072 26.6599 104.072 28.9037Z" fill="#D9DADB"/>
<path d="M111.778 24.4543C111.778 26.4689 110.147 29.0405 108.133 30.2049C106.126 31.3615 104.487 30.6713 104.487 28.6645C104.487 28.4412 104.508 28.2111 104.55 27.981C104.85 26.1064 106.348 23.9521 108.133 22.9139C108.279 22.8299 108.425 22.7535 108.565 22.6908C110.377 21.8544 111.778 22.5861 111.778 24.4543Z" fill="url(#paint16_linear)"/>
<path d="M110.008 24.2445V24.2728C110.008 25.7986 108.774 27.7434 107.248 28.6218C106.969 28.7892 106.697 28.9009 106.439 28.9706C105.589 29.2007 104.912 28.9353 104.641 28.2526C104.599 28.1686 104.571 28.0783 104.55 27.9806C104.592 27.709 104.662 27.4303 104.753 27.1512C105.227 25.6947 106.314 24.1955 107.617 23.2553C107.785 23.1291 107.959 23.0177 108.133 22.9135C108.258 22.8441 108.377 22.7805 108.495 22.7254L108.565 22.6904C109.415 22.6552 109.994 23.2133 110.008 24.2445Z" fill="#E6E8E7"/>
<path d="M109.757 23.8623C109.757 25.3536 107.868 28.0789 106.369 28.9642L106.348 28.978L106.285 28.9576C106.216 28.943 106.153 28.9293 106.09 28.8949L106.014 28.8666C105.686 28.7479 105.149 28.5393 104.641 28.2533C104.599 28.1693 104.571 28.0789 104.55 27.9812C104.592 27.7097 104.662 27.4309 104.753 27.1518C105.227 25.6954 106.314 24.1962 107.617 23.2559C107.785 23.1297 107.959 23.0183 108.133 22.9142C108.258 22.8447 108.377 22.7812 108.495 22.7261C108.976 23.0748 109.381 23.4715 109.596 23.6879L109.603 23.6948C109.701 23.7996 109.757 23.8623 109.757 23.8623Z" fill="url(#paint17_linear)"/>
<path d="M110.105 24.8638C110.105 26.1784 109.042 27.8559 107.727 28.6157C106.418 29.37 105.349 28.9202 105.349 27.6105C105.349 27.4652 105.363 27.3151 105.39 27.1649C105.585 25.9412 106.563 24.5368 107.727 23.8586C107.823 23.8043 107.918 23.7539 108.009 23.7133C109.192 23.1678 110.105 23.6452 110.105 24.8638Z" fill="#DCDDDD"/>
<path d="M108.976 25.65C108.976 26.29 108.458 27.1078 107.817 27.4778C107.18 27.8457 106.659 27.6266 106.659 26.9878C106.659 26.9175 106.666 26.8438 106.679 26.7709C106.774 26.1751 107.25 25.4902 107.817 25.1603L107.955 25.0892C108.531 24.8233 108.976 25.0561 108.976 25.65Z" fill="url(#paint18_linear)"/>
<path d="M107.985 25.8048C107.985 26.061 107.778 26.3882 107.521 26.5365C107.266 26.684 107.057 26.5956 107.057 26.3401L107.065 26.2534C107.103 26.015 107.294 25.7407 107.521 25.6083L107.577 25.58C107.807 25.4735 107.985 25.5663 107.985 25.8048Z" fill="#E6E8E7"/>
<path d="M80.7375 34.0698C80.7375 35.5151 81.2384 36.5547 82.0768 37.1183C83.1984 37.872 85.6048 39.1753 85.6048 39.1753C88.9853 37.2237 95.6251 30.4449 95.6251 27.0649C95.6251 25.5942 92.4595 24.4823 91.5956 23.9262C90.4727 23.2034 88.7676 23.3138 86.8579 24.416C83.4774 26.3671 80.7375 30.6892 80.7375 34.0698Z" fill="url(#paint19_linear)"/>
<path d="M84.0479 35.9985C84.0479 39.379 86.7884 40.537 90.1689 38.5862C93.5494 36.6343 96.2892 32.3128 96.2892 28.9322C96.2892 25.5516 93.5494 24.3937 90.1689 26.3447C86.7884 28.2957 84.0479 32.6179 84.0479 35.9985Z" fill="#3C414E"/>
<path d="M84.6465 36.2772C84.6465 37.7222 85.148 38.7618 85.9864 39.3256C87.108 40.0791 89.5137 41.3818 89.5137 41.3818C92.8942 39.4308 99.534 32.652 99.534 29.2714C99.534 27.8013 96.3691 26.6893 95.5045 26.1334C94.3823 25.4108 92.6765 25.5203 90.7668 26.6231C87.387 28.5742 84.6465 32.8966 84.6465 36.2772Z" fill="url(#paint20_linear)"/>
<path d="M87.9578 38.2061C87.9578 41.5864 90.6976 42.7447 94.0781 40.7936C97.4586 38.8417 100.199 34.5196 100.199 31.1398C100.199 27.7593 97.4586 26.6005 94.0781 28.5521C90.6976 30.5031 87.9578 34.8255 87.9578 38.2061Z" fill="#3C414E"/>
<path d="M89.7651 36.835C89.7651 39.0789 91.5839 39.8478 93.827 38.5525C96.0708 37.2573 97.8896 34.3889 97.8896 32.1456C97.8896 29.9018 96.0708 29.1329 93.827 30.4281C91.5839 31.7233 89.7651 34.5921 89.7651 36.835Z" fill="url(#paint21_linear)"/>
<path d="M90.0161 37.0173C90.0161 39.2603 91.8349 40.0291 94.078 38.7347C96.3218 37.4395 98.1405 34.5708 98.1405 32.327C98.1405 30.084 96.3218 29.3151 94.078 30.6101C91.8349 31.9053 90.0161 34.7734 90.0161 37.0173Z" fill="#D9DADB"/>
<path d="M97.7215 32.569C97.7215 34.5833 96.0908 37.1552 94.0764 38.3193C92.0689 39.4762 90.4314 38.7865 90.4314 36.779C90.4314 36.5559 90.452 36.3258 90.4941 36.0957C90.7937 34.2211 92.2921 32.0674 94.0764 31.0286C94.2232 30.9447 94.3692 30.868 94.5084 30.8053C96.3209 29.9691 97.7215 30.7006 97.7215 32.569Z" fill="url(#paint22_linear)"/>
<path d="M95.9518 32.3595V32.3878C95.9518 33.9144 94.7179 35.8585 93.1912 36.7369C92.9122 36.9042 92.6408 37.0159 92.3825 37.0853C91.5324 37.3154 90.8565 37.0503 90.5844 36.3676C90.5424 36.2837 90.5148 36.1932 90.4941 36.0955C90.5355 35.824 90.6051 35.545 90.696 35.2659C91.17 33.8097 92.2571 32.3113 93.5605 31.3703C93.7279 31.2449 93.9022 31.1332 94.0765 31.0285C94.2019 30.9588 94.3204 30.8961 94.4389 30.8404L94.5085 30.8051C95.3593 30.7707 95.9373 31.328 95.9518 32.3595Z" fill="#E6E8E7"/>
<path d="M95.7003 31.9758C95.7003 33.4674 93.8113 36.1927 92.3129 37.0781L92.2922 37.0918L92.2295 37.0711C92.1599 37.0573 92.0972 37.0428 92.0346 37.0084L91.9574 36.9801C91.6302 36.8617 91.0935 36.6529 90.5844 36.3671C90.5424 36.2831 90.5148 36.1927 90.4941 36.095C90.5355 35.8235 90.6051 35.5444 90.696 35.2653C91.17 33.8092 92.2571 32.3108 93.5605 31.3697C93.7279 31.2443 93.9022 31.1327 94.0765 31.0279C94.2019 30.9583 94.3204 30.8955 94.4389 30.8399C94.9198 31.1883 95.3241 31.5853 95.5405 31.8017L95.5474 31.8083C95.6445 31.9131 95.7003 31.9758 95.7003 31.9758Z" fill="url(#paint23_linear)"/>
<path d="M96.0497 32.9782C96.0497 34.2928 94.9853 35.9702 93.6715 36.7301C92.3612 37.4852 91.2927 37.0345 91.2927 35.725C91.2927 35.5797 91.3065 35.4295 91.334 35.2793C91.529 34.0565 92.5073 32.6509 93.6715 31.973C93.7666 31.9187 93.8624 31.8684 93.9533 31.8278C95.1355 31.2823 96.0497 31.7596 96.0497 32.9782Z" fill="#DCDDDD"/>
<path d="M94.9205 33.7644C94.9205 34.4049 94.4017 35.2221 93.761 35.5927C93.1231 35.9606 92.6023 35.7407 92.6023 35.1029C92.6023 35.0319 92.6092 34.959 92.6223 34.8858C92.718 34.2891 93.1941 33.6045 93.761 33.2744L93.8988 33.2036C94.4748 32.9377 94.9205 33.1705 94.9205 33.7644Z" fill="url(#paint24_linear)"/>
<path d="M93.9292 33.9188C93.9292 34.175 93.7218 34.5022 93.4649 34.6502C93.2093 34.7977 93.0012 34.7094 93.0012 34.4546L93.0088 34.3671C93.0474 34.1287 93.2382 33.8548 93.4649 33.7224L93.52 33.6941C93.7507 33.5873 93.9292 33.6809 93.9292 33.9188Z" fill="#E6E8E7"/>
<path d="M91.3138 28.2459C91.3 28.5592 89.0762 30.8872 87.09 34.4075C86.2255 35.9548 85.4036 37.7247 84.8317 39.6626L79.4299 36.2263C79.6111 34.289 80.2525 32.4903 81.0744 30.9293C82.9427 27.3253 85.7446 24.9485 85.912 24.8095L91.3138 28.2459Z" fill="#9FDCFF"/>
<path d="M91.3138 28.2467C91.3001 28.5599 89.0763 30.888 87.0901 34.4082L81.0745 30.93C82.9428 27.3261 85.7447 24.9493 85.9121 24.8102L91.3138 28.2467Z" fill="#C5EAFF"/>
<path d="M85.5222 39.4145L84.8291 39.6626C85.4223 33.2398 91.0755 28.4448 91.316 28.2446L91.6391 28.7013C91.5833 28.7481 86.0754 33.4271 85.5222 39.4145Z" fill="#7FB7E7"/>
<path d="M74.3368 18.4521L83.0192 23.3867L82.105 26.2471L73.4219 21.3124L74.3368 18.4521Z" fill="#48484A"/>
<path d="M74.372 17.1108L75.5177 22.8102V28.9381L77.4522 27.8205V31.2191L75.5177 32.3359L74.9838 32.6438L73.2271 33.6577V17.772L74.372 17.1108Z" fill="#BDC0C2"/>
<path d="M84.1968 14.9382V16.4188C84.1968 17.4212 85.4451 18.2334 86.9848 18.2334C88.5245 18.2334 89.7729 17.4212 89.7729 16.4188V14.8474L84.1968 14.9382Z" fill="url(#paint25_linear)"/>
<path d="M81.8096 13.5333V14.1926C81.8096 16.0533 84.1271 17.5605 86.9847 17.5605C89.8431 17.5605 92.1599 16.0533 92.1599 14.1926V13.3652L81.8096 13.5333Z" fill="url(#paint26_linear)"/>
<path d="M92.1599 13.5337C92.1599 15.3937 89.8431 16.9019 86.9847 16.9019C84.1271 16.9019 81.8096 15.3937 81.8096 13.5337C81.8096 11.673 84.1271 10.1649 86.9847 10.1649C89.8431 10.1649 92.1599 11.673 92.1599 13.5337Z" fill="#BAB9B8"/>
<path d="M77.4521 27.8204L75.5176 26.318V28.938L77.4521 27.8204Z" fill="#A4A7A8"/>
<path d="M74.3719 17.1105L73.9138 16.467V17.375L74.3719 17.1105Z" fill="#A4A7A8"/>
<path d="M39.9805 12.3581V30.5001C39.9805 31.0182 40.6253 31.4385 41.4217 31.4385C42.2174 31.4385 42.8629 31.0182 42.8629 30.5001V12.3114L39.9805 12.3581Z" fill="url(#paint27_linear)"/>
<path d="M42.8629 12.3585C42.8629 12.8766 42.2174 13.2969 41.4217 13.2969C40.6253 13.2969 39.9805 12.8766 39.9805 12.3585C39.9805 11.8405 40.6253 11.4201 41.4217 11.4201C42.2174 11.4201 42.8629 11.8405 42.8629 12.3585Z" fill="#E4F4F1"/>
<path d="M43.7952 4.46756C43.8861 5.49198 43.0842 6.05703 43.0842 6.05703L42.7012 6.37021C42.3664 6.63475 42.1714 7.04624 42.1714 7.47199V12.1276C42.0949 12.3509 41.7884 12.5107 41.4184 12.5107C41.0698 12.5107 40.777 12.3646 40.6868 12.1553V7.09495C40.6868 6.34982 41.0216 5.65249 41.5927 5.18541L43.182 3.7497C43.182 3.7497 43.7256 3.61743 43.7952 4.46756Z" fill="#B9C7C4"/>
<path d="M40.992 12.3947V7.33429C40.992 6.58833 41.3261 5.89107 41.8979 5.42405L43.4872 3.98835C43.4872 3.98835 43.5664 3.96975 43.6677 3.99317C43.4852 3.67627 43.182 3.74929 43.182 3.74929L41.5927 5.185C41.0216 5.65209 40.6868 6.34941 40.6868 7.09455V12.1549C40.7384 12.2754 40.8618 12.3704 41.0195 12.4331L40.992 12.3947Z" fill="#E0E4E8"/>
<path d="M43.5461 5.52649L42.696 6.2947C42.1242 6.76158 41.79 7.45884 41.79 8.20432V12.4438C41.9781 12.3771 42.1228 12.2676 42.171 12.1276V7.47206C42.171 7.04631 42.366 6.63482 42.7008 6.37028L43.0838 6.05709C43.0838 6.05709 43.3394 5.8695 43.5461 5.52649Z" fill="#A4A7A8"/>
<path d="M26.1938 36.3617V37.0803C26.1938 37.8741 27.1824 38.5176 28.4011 38.5176C29.6205 38.5176 30.6084 37.8741 30.6084 37.0803V36.2902L26.1938 36.3617Z" fill="url(#paint28_linear)"/>
<path d="M25.946 35.2251V36.0252C25.946 36.9075 27.0456 37.6226 28.4014 37.6226C29.7571 37.6226 30.8567 36.9075 30.8567 36.0252V35.146L25.946 35.2251Z" fill="url(#paint29_linear)"/>
<path d="M30.8567 35.2256C30.8567 36.108 29.7571 36.8232 28.4014 36.8232C27.0456 36.8232 25.946 36.108 25.946 35.2256C25.946 34.3424 27.0456 33.6274 28.4014 33.6274C29.7571 33.6274 30.8567 34.3424 30.8567 35.2256Z" fill="#BFCDC9"/>
<path d="M26.1938 32.9601V34.9443C26.1938 35.7379 27.1824 36.3813 28.4011 36.3813C29.6205 36.3813 30.6084 35.7379 30.6084 34.9443V32.8885L26.1938 32.9601Z" fill="url(#paint30_linear)"/>
<path d="M25.946 31.5435V32.3427C25.946 33.2251 27.0456 33.9409 28.4014 33.9409C29.7571 33.9409 30.8567 33.2251 30.8567 32.3427V31.4635L25.946 31.5435Z" fill="url(#paint31_linear)"/>
<path d="M30.8567 31.5441C30.8567 32.4267 29.7571 33.1426 28.4014 33.1426C27.0456 33.1426 25.946 32.4267 25.946 31.5441C25.946 30.6616 27.0456 29.9458 28.4014 29.9458C29.7571 29.9458 30.8567 30.6616 30.8567 31.5441Z" fill="#BFCDC9"/>
<path d="M26.1938 30.6551V31.3736C26.1938 32.1672 27.1824 32.8101 28.4011 32.8101C29.6205 32.8101 30.6084 32.1672 30.6084 31.3736V30.5835L26.1938 30.6551Z" fill="url(#paint32_linear)"/>
<path d="M30.6086 30.6553C30.6086 31.4489 29.6207 32.0918 28.4013 32.0918C27.1826 32.0918 24.8169 31.6335 24.8169 30.8399C24.8169 30.0463 27.1826 29.2183 28.4013 29.2183C29.6207 29.2183 30.6086 29.8617 30.6086 30.6553Z" fill="#E4F4F1"/>
<path d="M18.1006 54.8221C18.1006 56.8523 19.7457 57.5477 21.7753 56.3766C23.8048 55.2046 25.4506 51.6165 25.4506 49.5864C25.4506 47.5567 23.8048 47.8544 21.7753 49.0263C22.0632 48.8595 21.2565 50.4241 20.3272 51.9879C19.2903 53.7309 18.1006 55.4745 18.1006 54.8221Z" fill="#ABD7B0"/>
<path d="M32.4873 46.08C31.8811 42.6505 30.508 40.9083 28.4103 40.8938C28.2918 40.8938 28.1657 40.9013 28.0403 40.915C27.8247 40.5391 25.5988 41.0192 25.2861 41.225C25.1297 41.3284 22.4973 44.7323 17.9835 52.7012L13.8562 50.4003C14.6574 46.1834 20.1157 38.0294 25.0642 38.0294H25.0993C25.6636 38.0294 26.2912 38.1341 26.9043 38.4269C27.6222 38.7684 30.8911 40.1973 31.498 41.1866L31.5049 41.1936C32.0416 42.0862 32.2014 44.4562 32.4873 46.08Z" fill="#9FDCFF"/>
<path d="M17.8014 49.4975V50.4254C17.8014 50.5901 17.7077 50.7225 17.5796 50.7884C17.4638 50.8485 16.8438 51.3129 16.7143 51.2392L14.6531 48.7464C14.3134 48.5529 14.104 48.1921 14.104 47.8013L13.0059 47.3494C13.0059 47.2082 13.6741 46.9189 13.7747 46.8465L13.8126 46.8217C13.9311 46.7551 14.0819 46.7459 14.2163 46.8231L17.2523 48.5524C17.592 48.7464 17.8014 49.1067 17.8014 49.4975Z" fill="url(#paint33_linear)"/>
<path d="M17.0451 49.9411V50.869C17.0451 51.1825 16.7062 51.3787 16.434 51.2237L13.398 49.4938C13.059 49.3004 12.8496 48.9392 12.8496 48.5488V47.6214C12.8496 47.3073 13.1879 47.1109 13.46 47.2667L16.4967 48.9965C16.8357 49.19 17.0451 49.5504 17.0451 49.9411Z" fill="#7C7D7F"/>
<path d="M14.7117 49.1792C14.7117 49.2908 14.6903 49.3818 14.6483 49.4512C14.5298 49.6671 14.2446 49.709 13.9167 49.5139C13.471 49.2632 13.1155 48.6983 13.1155 48.2518C13.1155 47.9386 13.2967 47.7642 13.5681 47.7992C13.6728 47.8062 13.7913 47.8482 13.9167 47.9178C14.3562 48.1687 14.7117 48.7335 14.7117 49.1792Z" fill="#BFCFE1"/>
<path d="M16.4893 50.2528C16.4893 50.3642 16.4679 50.4552 16.4266 50.5249C16.3005 50.7405 16.0222 50.7825 15.6874 50.5943C15.2486 50.3368 14.8931 49.772 14.8931 49.3331C14.8931 49.012 15.0742 48.8446 15.3388 48.8729C15.4435 48.8798 15.562 48.9218 15.6874 48.9913C16.1331 49.2491 16.4893 49.8139 16.4893 50.2528Z" fill="#BFCFE1"/>
<path d="M14.7117 49.1791C14.7117 49.2908 14.6903 49.3817 14.6483 49.4512C14.5442 49.4445 14.4258 49.4025 14.3004 49.3328C13.8608 49.0814 13.5054 48.5171 13.5054 48.0706C13.5054 47.959 13.5267 47.8689 13.5681 47.7991C13.6728 47.8061 13.7913 47.8481 13.9167 47.9178C14.3562 48.1686 14.7117 48.7335 14.7117 49.1791Z" fill="#E5ECEE"/>
<path d="M16.4891 50.2528C16.4891 50.3642 16.4677 50.4553 16.4264 50.5249C16.3217 50.5249 16.2032 50.4829 16.0778 50.4132C15.6382 50.1549 15.2759 49.5909 15.2759 49.152C15.2759 49.0403 15.2965 48.9426 15.3386 48.8729C15.4433 48.8798 15.5618 48.9219 15.6872 48.9913C16.1329 49.2491 16.4891 49.8139 16.4891 50.2528Z" fill="#E5ECEE"/>
<path d="M17.8965 53.042L59.8571 26.7267V20.2035L17.8965 46.5186V53.042Z" fill="#A95F1D"/>
<path d="M30.0527 43.8267L41.9531 37.9501V33.681L30.0527 40.5508V43.8267Z" fill="#75CFA3"/>
<path d="M42.2139 40.7324L59.8571 30.5475V23.8388L42.2139 34.0238V40.7324Z" fill="#75CFA3"/>
<path d="M59.8575 20.4843L42.9983 30.2166V32.0898L59.8575 22.3576V20.4843Z" fill="#75CFA3"/>
<path d="M73.9142 11.9308L63.5831 26.2873L42.9983 30.2168V12.7575C42.9983 11.3289 44.2976 8.40579 45.1608 7.26749C48.3897 3.00943 49.9136 1.58957 53.2583 0.000232697L73.9142 11.9308Z" fill="#9DDBFE"/>
<path d="M58.6017 23.1745C58.6017 21.7455 59.93 18.3114 60.7043 17.1107C63.6667 12.5202 66.1247 11.0439 69.4288 9.46558V8.68869L56.5074 2.00198C53.1627 3.592 50.5366 6.75889 48.7702 11.2597C48.248 12.5894 47.3248 15.0585 47.3248 16.4872L46.248 32.2192L59.2266 29.7418L58.6017 23.1745Z" fill="#7FB7E7"/>
<path d="M58.6017 22.3972C58.6017 20.9685 59.93 17.5341 60.7043 16.3334C63.6667 11.7432 66.1247 10.2668 69.4288 8.68852L56.5074 1.2254C53.1627 2.81473 50.5366 5.98183 48.7702 10.4824C48.248 11.8121 47.3248 14.2811 47.3248 15.7098L46.248 31.4419L59.2266 28.9647L58.6017 22.3972Z" fill="#C5EAFF"/>
<path d="M35.5288 66.0127L74.3369 43.2873V39.0036L35.5288 59.8737V66.0127Z" fill="#48484A"/>
<path d="M68.7613 50.1357L77.9287 44.7126C79.1495 44.0078 79.2611 41.9163 78.1781 40.0404C77.0951 38.165 75.2282 37.2163 74.0074 37.9212L64.7297 43.4078L68.7613 50.1357Z" fill="url(#paint34_linear)"/>
<path d="M64.8402 43.345C66.061 42.6402 67.9286 43.5888 69.0109 45.4648C70.0939 47.3399 69.9823 49.4314 68.7615 50.1363C67.5407 50.841 65.6731 49.8924 64.5901 48.0165C63.5078 46.1413 63.6194 44.0495 64.8402 43.345Z" fill="#898F94"/>
<path d="M64.7907 44.2766C65.7676 43.7126 67.2625 44.4723 68.1292 45.9737C68.9959 47.4747 68.9063 49.1486 67.9294 49.7129C66.9519 50.2772 65.4569 49.5181 64.5903 48.0162C63.7236 46.5151 63.8131 44.8409 64.7907 44.2766Z" fill="#7A8687"/>
<path d="M50.7083 58.9888L62.6086 52.1195V47.8504L50.7083 54.7194V58.9888Z" fill="#9BA8A7"/>
<path d="M61.9496 50.6705V48.7106L60.5415 49.4512V51.7976L61.9496 52.335V50.6705Z" fill="#7A8687"/>
<path d="M62.641 51.9351L51.5156 58.3584L52.8687 59.1396L63.9947 52.7163L62.641 51.9351Z" fill="#E0E4E8"/>
<path d="M61.2559 47.0588L50.1299 53.4824L51.4829 54.2637L62.6089 47.8403L61.2559 47.0588Z" fill="#BDC0C2"/>
<path d="M51.5158 58.359L51.5151 58.6738L52.8682 59.4551L52.8689 59.1402L51.5158 58.359Z" fill="#828484"/>
<path d="M63.9942 53.0317L52.8682 59.4551L52.8688 59.1402L63.9949 52.7169L63.9942 53.0317Z" fill="#BCBBBB"/>
<path d="M60.5956 49.8904L49.4702 56.3141L50.8233 57.0952L61.9493 50.6716L60.5956 49.8904Z" fill="#E0E4E8"/>
<path d="M61.9488 50.9861L50.8228 57.4097L50.8235 57.0948L61.9495 50.6712L61.9488 50.9861Z" fill="#BCBBBB"/>
<path d="M52.3716 52.7734L63.654 46.2602V24.4705L52.8855 30.872L53.199 34.3909L53.7798 33.3177L52.3716 42.3616V52.7734Z" fill="#7FB7E7"/>
<path d="M34.3052 60.3481L52.3713 52.773V42.3612C48.233 40.1628 34.3052 50.4684 34.3052 50.4684V60.3481Z" fill="#5AA7EA"/>
<path d="M55.6271 59.4673L52.3093 57.6479C52.0578 56.2541 51.6886 55.139 51.1802 54.3025C51.3056 54.288 51.4309 54.2813 51.5494 54.2813C53.6472 54.2956 55.0202 56.0378 55.6271 59.4673Z" fill="#353A3F"/>
<path d="M38.7061 63.6264C38.7061 65.0723 39.2076 66.1113 40.046 66.6749C41.1676 67.4286 43.574 68.7319 43.574 68.7319C46.9545 66.7803 53.5936 60.0021 53.5936 56.6215C53.5936 55.1506 50.4287 54.0394 49.5648 53.4826C48.4419 52.7601 46.7368 52.8704 44.8271 53.9727C41.4466 55.9237 38.7061 60.2459 38.7061 63.6264Z" fill="url(#paint35_linear)"/>
<path d="M42.0171 65.5553C42.0171 68.9359 44.7576 70.0946 48.1381 68.1428C51.518 66.1917 54.2585 61.8696 54.2585 58.4891C54.2585 55.1085 51.518 53.9506 48.1381 55.9016C44.7576 57.8531 42.0171 62.1755 42.0171 65.5553Z" fill="#3C414E"/>
<path d="M43.8252 64.1854C43.8252 66.4284 45.6432 67.1972 47.8871 65.9023C50.1302 64.6071 51.9489 61.7392 51.9489 59.4954C51.9489 57.2521 50.1302 56.4833 47.8871 57.7784C45.6432 59.0728 43.8252 61.9416 43.8252 64.1854Z" fill="url(#paint36_linear)"/>
<path d="M44.0752 64.3668C44.0752 66.6106 45.894 67.3795 48.1378 66.0843C50.3809 64.7891 52.1996 61.9203 52.1996 59.6774C52.1996 57.4343 50.3809 56.6655 48.1378 57.9599C45.894 59.2551 44.0752 62.1238 44.0752 64.3668Z" fill="#D9DADB"/>
<path d="M51.7818 59.9171C51.7818 61.9317 50.1504 64.5041 48.136 65.6677C46.1292 66.8251 44.491 66.1349 44.491 64.1273C44.491 63.9048 44.5116 63.6747 44.5536 63.4446C44.8533 61.5692 46.3517 59.4158 48.136 58.3768C48.2827 58.2936 48.4288 58.2169 48.5687 58.1542C50.3805 57.3181 51.7818 58.0496 51.7818 59.9171Z" fill="url(#paint37_linear)"/>
<path d="M50.0111 59.7094V59.7368C50.0111 61.2635 48.7772 63.2083 47.2513 64.0867C46.9723 64.254 46.7002 64.365 46.4425 64.4352C45.5924 64.6647 44.9159 64.4002 44.6444 63.7167C44.6024 63.6335 44.5741 63.5425 44.5535 63.4454C44.5955 63.1731 44.6651 62.8948 44.7553 62.6157C45.23 61.1588 46.3171 59.6604 47.6205 58.7193C47.7879 58.5939 47.9622 58.4822 48.1358 58.3776C48.2619 58.3081 48.3804 58.2454 48.4989 58.1894L48.5685 58.155C49.4186 58.12 49.9973 58.6779 50.0111 59.7094Z" fill="#E6E8E7"/>
<path d="M49.7603 59.3258C49.7603 60.8172 47.8713 63.5427 46.3729 64.4278L46.3515 64.4424L46.2889 64.4211C46.2193 64.4071 46.1566 64.3934 46.0939 64.3584L46.0174 64.3307C45.6895 64.2123 45.1528 64.0029 44.6444 63.7169C44.6024 63.6337 44.5741 63.5427 44.5535 63.4456C44.5955 63.1733 44.6651 62.895 44.7553 62.6159C45.23 61.159 46.3171 59.6606 47.6205 58.7195C47.7879 58.5941 47.9622 58.4824 48.1358 58.3778C48.2619 58.3083 48.3804 58.2456 48.4989 58.1896C48.9798 58.5384 49.3842 58.9359 49.5998 59.1522L49.6067 59.1589C49.7045 59.2631 49.7603 59.3258 49.7603 59.3258Z" fill="url(#paint38_linear)"/>
<path d="M50.1091 60.3283C50.1091 61.6421 49.0454 63.3203 47.7309 64.0794C46.4213 64.8346 45.3528 64.3849 45.3528 63.0751C45.3528 62.929 45.3666 62.7797 45.3935 62.6295C45.5891 61.4059 46.5667 60.0006 47.7309 59.3232C47.8267 59.268 47.9217 59.2186 48.0127 59.1771C49.1956 58.6316 50.1091 59.109 50.1091 60.3283Z" fill="#DCDDDD"/>
<path d="M48.9798 61.113C48.9798 61.7537 48.4611 62.5715 47.8211 62.9413C47.1832 63.3091 46.6624 63.0896 46.6624 62.4515C46.6624 62.3805 46.6686 62.3075 46.6823 62.2346C46.7774 61.6385 47.2541 60.9539 47.8211 60.624L47.9582 60.553C48.5348 60.2871 48.9798 60.519 48.9798 61.113Z" fill="url(#paint39_linear)"/>
<path d="M47.9883 61.2681C47.9883 61.5242 47.7809 61.8523 47.5246 62.0002C47.2691 62.1477 47.0603 62.0598 47.0603 61.8041L47.0686 61.7172C47.1065 61.4782 47.2973 61.204 47.5246 61.0724L47.5797 61.0436C47.8105 60.9373 47.9883 61.0304 47.9883 61.2681Z" fill="#E6E8E7"/>
<path d="M54.4013 40.2207C54.1485 40.2207 53.9018 40.1017 53.7413 39.9026C53.5815 39.704 53.5215 39.4473 53.5767 39.1957L54.4681 33.2868C54.65 32.4491 55.1577 31.7204 55.8653 31.2683L58.8813 29.3436C59.0377 29.2443 59.2154 29.1913 59.3973 29.1913C59.9285 29.1913 60.3611 29.6232 60.3611 30.1549V35.4755C60.3611 36.3601 59.8851 37.1841 59.119 37.6265L54.8236 40.1063C54.6934 40.1816 54.5474 40.2207 54.4013 40.2207Z" fill="#E0E4E8"/>
<path d="M54.6832 39.8647L58.9793 37.3846C59.6613 36.9912 60.0815 36.263 60.0815 35.4755V30.155C60.0815 29.6157 59.4856 29.2884 59.0309 29.5791L56.0148 31.5032C55.3645 31.9179 54.9071 32.5746 54.7431 33.3283L53.8482 39.2549C53.7435 39.7344 54.2581 40.1098 54.6832 39.8647Z" fill="#6BABAE"/>
<path d="M54.6357 48.1318C54.1982 48.1318 53.842 47.7755 53.842 47.3382V43.2741C53.842 42.8589 54.0659 42.4703 54.4262 42.2628L56.0638 41.3169C56.1857 41.2475 56.3222 41.2103 56.4593 41.2103C56.8967 41.2103 57.2529 41.5658 57.2529 42.004V46.0672C57.2529 46.4838 57.029 46.871 56.6687 47.0791L55.0311 48.025C54.9099 48.0947 54.7735 48.1318 54.6357 48.1318Z" fill="#E0E4E8"/>
<path d="M56.5295 46.8377L54.8913 47.7836C54.5489 47.9811 54.1211 47.7338 54.1211 47.3385V43.2744C54.1211 42.9569 54.2905 42.6635 54.5654 42.505L56.2037 41.5591C56.5461 41.3613 56.9746 41.6086 56.9746 42.0042V46.0675C56.9746 46.3855 56.8051 46.6792 56.5295 46.8377Z" fill="#529AA1"/>
<path d="M73.8884 37.9039L61.3887 45.1707V47.0437L61.8372 47.3228L74.3369 38.1827L73.8884 37.9039Z" fill="#E0E4E8"/>
<path d="M74.3366 38.1827L61.8369 45.4494V47.3228L74.3366 40.056V38.1827Z" fill="#A4A7A8"/>
<path d="M64.7947 44.618L64.7906 44.917C64.7892 45.0499 64.7155 45.174 64.5991 45.2415L63.3294 45.9808C63.2267 46.0405 63.1007 45.9668 63.1021 45.8497L63.1034 45.7657L64.1665 45.1471C64.2822 45.0795 64.3566 44.9554 64.358 44.8225L64.3607 44.6077L64.5674 44.4886C64.67 44.4294 64.7961 44.5023 64.7947 44.618Z" fill="#7A8687"/>
<path d="M64.3605 44.6076L64.3578 44.8224C64.3564 44.9553 64.282 45.0794 64.1663 45.147L63.1033 45.7656L63.106 45.5527C63.1074 45.4171 63.1811 45.2936 63.2975 45.2255L64.3605 44.6076Z" fill="#E4C517"/>
<path d="M73.7462 39.3252L73.7427 39.6241C73.7407 39.757 73.667 39.8808 73.5512 39.9484L72.2808 40.6876C72.1789 40.7476 72.0528 40.6739 72.0542 40.5569L72.0549 40.4721L73.1179 39.8542C73.2343 39.7867 73.308 39.6626 73.3101 39.5296L73.3128 39.3146L73.5195 39.1963C73.6215 39.1363 73.7475 39.2091 73.7462 39.3252Z" fill="#7A8687"/>
<path d="M73.3131 39.3152L73.3104 39.5302C73.3083 39.6632 73.2346 39.7873 73.1182 39.8548L72.0552 40.4727L72.0579 40.2603C72.06 40.1255 72.1337 40.0014 72.2494 39.9331L73.3131 39.3152Z" fill="#E4C517"/>
<path d="M70.7628 41.0898L70.7586 41.3888C70.7573 41.5217 70.6835 41.6457 70.5671 41.713L69.2974 42.4523C69.1948 42.5123 69.0687 42.4385 69.0701 42.3215L69.0715 42.2375L70.1345 41.6189C70.2509 41.5513 70.3246 41.4273 70.326 41.2943L70.3287 41.0793L70.5354 40.9601C70.6381 40.9009 70.7642 40.974 70.7628 41.0898Z" fill="#7A8687"/>
<path d="M70.3286 41.0791L70.3258 41.2941C70.3244 41.4271 70.2507 41.5511 70.1343 41.6187L69.0713 42.2373L69.074 42.0244C69.0754 41.8893 69.1491 41.7653 69.2656 41.6972L70.3286 41.0791Z" fill="#E4C517"/>
<path d="M67.7782 42.8544L67.7747 43.1534C67.7727 43.2863 67.699 43.4104 67.5825 43.4779L66.3128 44.2169C66.2109 44.2769 66.0848 44.2032 66.0862 44.0861L66.0869 44.0014L67.1499 43.3835C67.2663 43.316 67.34 43.1919 67.3421 43.0589L67.3442 42.8439L67.5515 42.725C67.6535 42.6655 67.7796 42.7387 67.7782 42.8544Z" fill="#7A8687"/>
<path d="M67.3444 42.844L67.3423 43.059C67.3403 43.192 67.2666 43.3161 67.1501 43.3836L66.0872 44.0015L66.0899 43.7894C66.0913 43.6535 66.1657 43.5297 66.2814 43.4622L67.3444 42.844Z" fill="#E4C517"/>
<path d="M32.5916 19.9252C32.8637 25.883 54.8361 37.604 53.2474 31.8558C52.781 30.1685 63.7024 24.4699 63.7024 24.4699C63.7024 24.4699 51.8958 20.3841 43.0466 12.5392C43.0466 12.5392 32.4455 16.7284 32.5916 19.9252Z" fill="#9DDBFE"/>
<path d="M59.1283 22.913C55.2566 21.1678 49.5262 18.565 44.4564 14.4331C40.7376 16.2862 33.6066 20.153 33.7141 22.5182C33.7286 22.8274 33.7968 23.1423 33.8946 23.4593C36.3699 26.6143 41.7937 30.2341 46.2827 32.3229C48.3247 32.6997 49.6378 32.2223 49.1383 30.4152C48.7304 28.9375 57.2923 24.4698 59.1283 22.913Z" fill="#7FB7E7"/>
<path d="M59.1283 22.9132C55.2566 21.168 49.5262 18.2022 44.4564 14.07C40.7376 15.9234 33.6066 19.7902 33.7141 22.1554C33.7286 22.4647 33.7968 22.7795 33.8946 23.0965C36.3699 26.2515 41.7937 29.8713 46.2827 31.9601C48.3247 32.3368 49.6378 31.8595 49.1383 30.0524C48.7304 28.5747 57.0505 24.0235 59.1283 22.9132Z" fill="#D6EEFB"/>
<path d="M52.163 42.4018C47.9916 43.5778 35.7068 49.3726 35.7068 49.3726L19.8252 39.8496C19.8252 39.8496 25.6514 35.5568 31.7132 30.4273C36.2387 26.5982 51.4452 41.4677 52.3304 42.3187L52.163 42.4018Z" fill="#9DDBFE"/>
<path d="M47.9272 40.2139L32.543 49.6206L21.1262 40.9594L35.6913 29.1762L47.9272 40.2139Z" fill="#7FB7E7"/>
<path d="M49.5713 38.9003L32.5916 48.7373L21.1748 40.0763L35.7399 28.2928L49.5713 38.9003Z" fill="#9DDBFE"/>
<path d="M48.0514 35.9342L31.0186 47.4189L21.0527 42.8942L37.8589 30.1583L48.0514 35.9342Z" fill="#D6EEFB"/>
<path d="M25.4505 43.9282L28.0215 41.9185C25.8459 40.4519 23.082 39.8036 21.4527 39.5315C20.6149 39.3924 19.7703 39.7135 19.2261 40.365L18.2712 41.5074L25.4505 43.9282Z" fill="#C8D7D3"/>
<path d="M36.48 50.5892V59.0893L34.3051 60.3506L33.929 50.7773L33.9152 50.4218L25.4504 43.9282L28.018 41.9185C29.8306 42.7267 33.2524 45.7733 35.1414 47.5222C35.7553 48.094 36.1803 48.8257 36.3615 49.6201C36.438 49.9342 36.48 50.2614 36.48 50.5892Z" fill="#E4F4F1"/>
<path d="M36.4803 50.5892V59.0893L34.3053 60.3506L33.9292 50.7773L36.3618 49.6201C36.4382 49.9342 36.4803 50.2614 36.4803 50.5892Z" fill="#D0DFDB"/>
<path d="M19.4417 41.1408L21.4203 41.5136C24.4632 42.5415 27.305 44.0903 29.8182 46.0894L33.4667 49.5015C34.002 50.001 34.3051 50.7009 34.3051 51.4334V65.4424L17.8965 56.0064V42.4223C17.8965 41.6053 18.6391 40.9893 19.4417 41.1408Z" fill="#97AFB9"/>
<path d="M12.7873 49.6068L38.9035 64.6782L40.5218 64.3999L41.3189 64.8601L39.414 66.0312L11.8704 50.1358L12.7873 49.6068Z" fill="#E4F4F1"/>
<path d="M41.3171 64.86L40.7323 71.0286L40.2507 71.3214C39.9655 71.4949 39.6445 71.5792 39.3241 71.5584C39.0589 71.5509 38.7943 71.4812 38.5642 71.3491L12.4749 56.2865C12.0987 56.0777 11.8687 55.6802 11.8687 55.2483V50.1392L38.5642 65.5428C38.7943 65.6749 39.0589 65.7452 39.3241 65.7521C39.6445 65.7729 39.9655 65.6894 40.2507 65.5151L41.3171 64.86Z" fill="#97AFB9"/>
<path d="M41.3172 64.86L40.7324 71.0285L40.2508 71.3213C39.9656 71.4957 39.6446 71.5791 39.3242 71.5584V65.7521C39.6446 65.7728 39.9656 65.6894 40.2508 65.515L41.3172 64.86Z" fill="#D0DFDB"/>
<path d="M40.7305 70.0928L40.2517 70.387C39.7357 70.7045 39.0875 70.7137 38.5625 70.4112L11.8704 55.0069V55.248C11.8704 55.678 12.0991 56.0755 12.4718 56.2905L38.5625 71.3466C39.0875 71.6499 39.7357 71.6407 40.2517 71.3232L40.7305 71.0291L40.8242 70.0433L40.7305 70.0928Z" fill="#9FDCFF"/>
<path d="M16.423 58.5542L13.8691 57.0867V56.1602L16.423 57.6274V58.5542Z" fill="#E4F4F1"/>
<path d="M48.8281 50.3466V51.0654C48.8281 51.859 49.8167 52.5024 51.0354 52.5024C52.2548 52.5024 53.2427 51.859 53.2427 51.0654V50.275L48.8281 50.3466Z" fill="url(#paint40_linear)"/>
<path d="M48.5803 49.2094V50.0087C48.5803 50.8911 49.6798 51.6069 51.0356 51.6069C52.3921 51.6069 53.4909 50.8911 53.4909 50.0087V49.1295L48.5803 49.2094Z" fill="url(#paint41_linear)"/>
<path d="M53.4909 49.2101C53.4909 50.0928 52.3914 50.8086 51.0356 50.8086C49.6798 50.8086 48.5803 50.0928 48.5803 49.2101C48.5803 48.3277 49.6798 47.6119 51.0356 47.6119C52.3914 47.6119 53.4909 48.3277 53.4909 49.2101Z" fill="#BFCDC9"/>
<path d="M48.8281 46.9446V48.9287C48.8281 49.7223 49.8167 50.3652 51.0354 50.3652C52.2548 50.3652 53.2427 49.7223 53.2427 48.9287V46.873L48.8281 46.9446Z" fill="url(#paint42_linear)"/>
<path d="M48.5803 45.5288V46.328C48.5803 47.2105 49.6798 47.9263 51.0356 47.9263C52.3921 47.9263 53.4909 47.2105 53.4909 46.328V45.4489L48.5803 45.5288Z" fill="url(#paint43_linear)"/>
<path d="M53.4909 45.5289C53.4909 46.4116 52.3914 47.1274 51.0356 47.1274C49.6798 47.1274 48.5803 46.4116 48.5803 45.5289C48.5803 44.6465 49.6798 43.9307 51.0356 43.9307C52.3914 43.9307 53.4909 44.6465 53.4909 45.5289Z" fill="#BFCDC9"/>
<path d="M48.8281 44.6396V45.3581C48.8281 46.152 49.8167 46.7954 51.0354 46.7954C52.2548 46.7954 53.2427 46.152 53.2427 45.3581V44.568L48.8281 44.6396Z" fill="url(#paint44_linear)"/>
<path d="M53.2427 44.6396C53.2427 45.4332 52.2548 46.0767 51.0354 46.0767C49.8167 46.0767 48.8281 45.4332 48.8281 44.6396C48.8281 43.8468 49.8167 43.2034 51.0354 43.2034C52.2548 43.2034 53.2427 43.8468 53.2427 44.6396Z" fill="#E4F4F1"/>
<path d="M55.6273 59.4652C55.3827 58.1127 55.0272 57.0188 54.5463 56.196C53.8285 54.9272 52.8179 54.2857 51.5496 54.2789C51.4311 54.2789 51.3057 54.2857 51.1803 54.3002C50.964 53.9234 48.7408 54.4049 48.4267 54.6137C48.3151 54.6834 46.2311 55.7567 43.4851 58.9421C42.2023 60.4407 40.7666 62.406 39.324 64.9502L34.0896 62.0368C34.4375 60.2104 36.1874 57.9872 38.4732 56.0424C41.4776 53.4845 45.3947 51.4143 48.2035 51.4143H48.2386C48.8035 51.4143 49.4304 51.5193 50.0443 51.812C50.7621 52.1535 54.031 53.5825 54.6373 54.5717L54.6442 54.5785C54.7909 54.8155 54.9018 55.1503 54.9997 55.5548C55.2718 56.6702 55.4178 58.2663 55.6273 59.4652Z" fill="#9FDCFF"/>
<path d="M54.9996 55.5551C54.846 55.7639 54.6999 55.98 54.5463 56.1964C53.8284 54.9275 52.8178 54.286 51.5495 54.2792C51.431 54.2792 51.3056 54.286 51.1803 54.3005C50.9639 53.9238 48.7408 54.4052 48.4266 54.614C48.315 54.6837 46.2311 55.757 43.485 58.9424L38.4731 56.0427C41.4775 53.4848 45.3947 51.4146 48.2034 51.4146H48.2386C48.8035 51.4146 49.4304 51.5196 50.0442 51.8124C50.7621 52.1539 54.031 53.5828 54.6372 54.572L54.6441 54.5788C54.7909 54.8158 54.9018 55.1506 54.9996 55.5551Z" fill="#C5EAFF"/>
<path d="M46.9103 52.8604L45.839 53.4756L44.9834 52.9837L46.0554 52.3671L46.9103 52.8604Z" fill="#AF2F24"/>
<path d="M56.6587 59.2858L55.6275 59.4669C55.0205 56.0374 53.6475 54.2952 51.5498 54.2809C51.4313 54.2809 51.3059 54.2876 51.1805 54.3022C46.9423 54.6784 41.2256 60.7126 40.5222 64.3996L39.3242 64.9521C40.0696 61.0417 45.6808 54.2952 50.4413 53.3474C50.8105 53.2777 51.1736 53.2357 51.5291 53.2357H51.5567C52.5322 53.2427 53.6613 53.5422 54.6375 54.5735L54.6444 54.5804C55.509 55.487 56.2406 56.958 56.6587 59.2858Z" fill="#7FB7E7"/>
<path d="M53.7794 33.3174L52.3712 42.3613L40.6934 36.7152L39.4664 36.1433L39.2715 36.0532L31.7126 30.4275L33.3571 20.9677L41.2962 26.6548L42.488 27.345L53.7794 33.3174Z" fill="#9FDCFF"/>
<path d="M53.2154 33.5278L51.8844 41.3643L40.6916 35.9465L39.4646 35.3747L39.437 35.361L32.4934 30.1492L33.8175 22.3267L34.8075 22.8983L39.2055 25.4424L41.2964 26.648L42.4882 27.3377L53.2154 33.5278Z" fill="#528B94"/>
<path d="M42.0825 34.3179L40.8555 33.7461L40.828 33.7323L33.8843 28.5205L32.6422 29.2715L32.4934 30.1492L39.4363 35.361L39.4646 35.3747L40.6916 35.9465L51.8844 41.3643L52.2454 39.2367L42.0825 34.3179Z" fill="#73A2A7"/>
<path d="M39.2054 25.4423C39.1007 25.5328 38.9891 25.6167 38.8637 25.6864L34.5635 28.1671C34.1377 28.4117 33.6224 28.0417 33.7264 27.5607L34.6262 23.4488C34.6675 23.2606 34.7233 23.0726 34.8074 22.8982L39.2054 25.4423Z" fill="#B5DDC1"/>
<path d="M47.4454 52.566L46.3749 53.1807L45.5186 52.6887L46.5905 52.0727L47.4454 52.566Z" fill="#CB8D19"/>
<path d="M47.4469 52.5653V53.173L46.375 53.7876V53.18L47.4455 52.5653H47.4469Z" fill="#E4C517"/>
<path d="M46.3749 53.18V53.7876L45.5186 53.2957V52.688L46.3749 53.18Z" fill="#AB611D"/>
<path d="M39.1682 61.8387V62.766C39.1682 62.9304 39.0745 63.0628 38.9463 63.129C38.8306 63.1887 38.2106 63.6533 38.0817 63.5795L36.0198 61.087C35.6802 60.8933 35.4714 60.5332 35.4714 60.1425L34.3733 59.6898C34.3733 59.5493 35.0408 59.2592 35.1414 59.1876L35.1793 59.1629C35.2978 59.0959 35.4487 59.0865 35.583 59.1634L38.6198 60.8933C38.9587 61.087 39.1682 61.4479 39.1682 61.8387Z" fill="url(#paint45_linear)"/>
<path d="M38.4116 62.2819V63.2092C38.4116 63.5236 38.0733 63.7197 37.8005 63.5642L34.7644 61.8341C34.4255 61.6406 34.2161 61.2803 34.2161 60.8898V59.9617C34.2161 59.6484 34.555 59.4511 34.8271 59.607L37.8632 61.3368C38.2021 61.5303 38.4116 61.8914 38.4116 62.2819Z" fill="#7C7D7F"/>
<path d="M36.0784 61.5197C36.0784 61.6314 36.0577 61.7224 36.0157 61.7921C35.8972 62.0082 35.6113 62.0496 35.2834 61.8548C34.8377 61.604 34.4822 61.0391 34.4822 60.5932C34.4822 60.28 34.6634 60.1056 34.9355 60.1401C35.0395 60.1467 35.158 60.189 35.2834 60.2584C35.7229 60.5101 36.0784 61.0741 36.0784 61.5197Z" fill="#BFCFE1"/>
<path d="M37.856 62.5939C37.856 62.7052 37.8346 62.7956 37.7933 62.8651C37.6679 63.0815 37.3889 63.1234 37.0541 62.9348C36.6152 62.677 36.2598 62.1129 36.2598 61.6732C36.2598 61.353 36.4409 61.1856 36.7055 61.2131C36.8102 61.22 36.9287 61.262 37.0541 61.3317C37.5005 61.59 37.856 62.1541 37.856 62.5939Z" fill="#BFCFE1"/>
<path d="M36.0787 61.5197C36.0787 61.6313 36.058 61.7223 36.016 61.792C35.9113 61.785 35.7928 61.743 35.6674 61.6733C35.2278 61.4228 34.873 60.8577 34.873 60.412C34.873 60.3003 34.8937 60.2102 34.9357 60.14C35.0398 60.1466 35.1583 60.1889 35.2836 60.2583C35.7232 60.51 36.0787 61.074 36.0787 61.5197Z" fill="#E5ECEE"/>
<path d="M37.856 62.5935C37.856 62.7049 37.8346 62.7953 37.7933 62.8647C37.6886 62.8647 37.5701 62.8236 37.4447 62.7531C37.0052 62.4956 36.6428 61.9307 36.6428 61.4918C36.6428 61.3801 36.6642 61.2829 36.7055 61.2127C36.8102 61.2197 36.9287 61.2617 37.0541 61.3314C37.5005 61.5897 37.856 62.1538 37.856 62.5935Z" fill="#E5ECEE"/>
<path d="M42.4884 27.3375V27.345L40.6917 35.9463L40.496 36.6221L39.2698 36.051L39.4647 35.3744L41.2966 26.6548V26.6478L42.4884 27.3375Z" fill="#9FDCFF"/>
<path d="M61.3887 24.9502V45.3319C61.3887 45.85 62.0342 46.2695 62.8299 46.2695C63.6263 46.2695 64.2711 45.85 64.2711 45.3319V24.9034L61.3887 24.9502Z" fill="url(#paint46_linear)"/>
<path d="M64.2711 24.9498C64.2711 25.4678 63.6263 25.8882 62.8299 25.8882C62.0342 25.8882 61.3887 25.4678 61.3887 24.9498C61.3887 24.4317 62.0342 24.0114 62.8299 24.0114C63.6263 24.0114 64.2711 24.4317 64.2711 24.9498Z" fill="#E4F4F1"/>
<path d="M65.2036 17.0594C65.2945 18.0838 64.4926 18.6487 64.4926 18.6487L64.1096 18.9619C63.7748 19.2273 63.5798 19.6385 63.5798 20.0637V24.7192C63.5027 24.9426 63.1961 25.103 62.8268 25.103C62.4782 25.103 62.1855 24.9564 62.0952 24.7475V19.6869C62.0952 18.9415 62.4293 18.2442 63.0011 17.7771L64.5905 16.3414C64.5905 16.3414 65.134 16.2092 65.2036 17.0594Z" fill="#B9C7C4"/>
<path d="M62.3997 24.9859V19.9256C62.3997 19.1796 62.7345 18.4824 63.3056 18.0154L64.895 16.5798C64.895 16.5798 64.9742 16.5609 65.0762 16.5843C64.8936 16.2676 64.5905 16.3405 64.5905 16.3405L63.0011 17.7762C62.4293 18.2434 62.0952 18.9406 62.0952 19.6861V24.7466C62.1469 24.8667 62.2702 24.9617 62.4279 25.0244L62.3997 24.9859Z" fill="#E0E4E8"/>
<path d="M64.9546 18.1186L64.1051 18.886C63.5333 19.353 63.1992 20.0502 63.1992 20.7956V25.0352C63.3873 24.9692 63.532 24.8589 63.5802 24.7189V20.0634C63.5802 19.6382 63.7751 19.227 64.1099 18.9617L64.493 18.6484C64.493 18.6484 64.7486 18.4616 64.9546 18.1186Z" fill="#A4A7A8"/>
<path d="M32.5427 20.2204C32.5427 20.2204 32.8369 21.0374 33.1235 21.3867C36.9063 25.9968 53.7793 33.3174 53.7793 33.3174L53.1986 32.151C53.1986 32.151 37.0496 24.7651 32.5427 20.2204Z" fill="#C5EAFF"/>
<path d="M39.7001 19.0407L39.1428 19.3962C38.9898 19.4907 38.9795 19.6594 38.8211 19.5679L38.5724 19.3714C38.4008 19.2721 38.2155 18.9091 38.3802 18.8079L38.9403 18.4538C39.0932 18.3593 39.6995 18.0915 39.8579 18.183L39.922 18.2113C40.0928 18.3098 39.8641 18.9395 39.7001 19.0407Z" fill="#A83034"/>
<path d="M40.491 19.1175L39.5996 19.6851C39.4273 19.7914 39.2117 19.7932 39.034 19.6899L38.8211 19.5675C38.6296 19.4566 38.8803 18.6671 39.0657 18.5526L39.7015 18.4961C39.8731 18.3907 40.1349 18.1164 40.3126 18.2193L40.4593 18.3309C40.6509 18.441 40.6757 19.0039 40.491 19.1175Z" fill="#ED7324"/>
<path d="M40.2664 18.6211L39.7091 18.9766C39.5562 19.071 39.364 19.0731 39.2055 18.9814L39.1387 18.9518C38.9672 18.8525 38.9603 18.6033 39.1249 18.5013L39.685 18.1472C39.8379 18.0535 40.0295 18.0522 40.1879 18.1431L40.2527 18.1714C40.4228 18.2699 40.4311 18.5199 40.2664 18.6211Z" fill="#EAB839"/>
<path d="M44.7959 21.9953L44.2386 22.3507C44.0857 22.4452 44.076 22.614 43.9169 22.5225L43.6682 22.3252C43.4974 22.2267 43.3113 21.8631 43.476 21.7617L44.0361 21.4075C44.189 21.3139 44.7953 21.0459 44.9537 21.1376L45.0178 21.165C45.1886 21.2644 44.9606 21.8933 44.7959 21.9953Z" fill="#A83034"/>
<path d="M45.5877 22.0726L44.6955 22.6402C44.524 22.7456 44.3083 22.7478 44.1299 22.645L43.917 22.5226C43.7255 22.4114 43.9763 21.6213 44.1616 21.5077L44.7975 21.4512C44.969 21.3458 45.2308 21.0715 45.4085 21.1743L45.556 21.2852C45.7475 21.3961 45.7723 21.9582 45.5877 22.0726Z" fill="#ED7324"/>
<path d="M45.3626 21.5746L44.806 21.9301C44.6524 22.0251 44.4602 22.0264 44.3017 21.9347L44.2349 21.905C44.064 21.8066 44.0565 21.5566 44.2211 21.4554L44.7812 21.1012C44.9341 21.0068 45.1263 21.0054 45.2848 21.0972L45.3488 21.1252C45.5197 21.2237 45.5273 21.4732 45.3626 21.5746Z" fill="#EAB839"/>
<path d="M49.8921 24.9484L49.3355 25.3039C49.1825 25.3984 49.1722 25.5671 49.0138 25.4756L48.7644 25.2792C48.5935 25.1801 48.4075 24.8168 48.5729 24.7156L49.1329 24.361C49.2859 24.2673 49.8914 23.9993 50.0499 24.0908L50.1147 24.119C50.2848 24.2175 50.0568 24.8472 49.8921 24.9484Z" fill="#A83034"/>
<path d="M50.6832 25.0263L49.7911 25.5941C49.6195 25.7002 49.4039 25.7015 49.2262 25.599L49.0133 25.4763C48.8211 25.3654 49.0725 24.575 49.2572 24.4615L49.8937 24.405C50.0653 24.2995 50.3271 24.0255 50.5048 24.1281L50.6515 24.2397C50.843 24.3498 50.8678 24.9128 50.6832 25.0263Z" fill="#ED7324"/>
<path d="M50.4587 24.5291L49.9014 24.8846C49.7484 24.9791 49.5562 24.9804 49.397 24.8889L49.3302 24.8599C49.1594 24.7609 49.1518 24.5106 49.3172 24.4094L49.8772 24.0552C50.0302 23.9616 50.2217 23.9595 50.3801 24.0512L50.4442 24.0795C50.6151 24.178 50.6226 24.4274 50.4587 24.5291Z" fill="#EAB839"/>
<path d="M27.0156 45.5679C27.0156 45.6793 26.9826 45.7654 26.9164 45.8268C26.718 46.0171 26.2771 46.0017 25.748 45.7455C25.0536 45.3975 24.4915 44.7603 24.4915 44.3209C24.4915 44.0006 24.7787 43.8704 25.1969 43.9522C25.3622 43.9804 25.5496 44.0466 25.748 44.1425C26.4535 44.4918 27.0156 45.129 27.0156 45.5679Z" fill="#D6EEFB"/>
<path d="M19.8671 52.8983L31.9349 59.8391C32.3166 60.0581 32.7919 59.7834 32.7919 59.3436V51.8649C32.7919 51.36 32.5219 50.8928 32.0837 50.6407L20.016 43.6998C19.6343 43.4807 19.1589 43.7563 19.1589 44.1958V51.674C19.1589 52.1797 19.429 52.6469 19.8671 52.8983Z" fill="#7594A4"/>
<path d="M32.2257 59.7084L20.1572 52.7681C19.719 52.516 19.449 52.049 19.449 51.5439V44.0651C19.449 43.8853 19.531 43.7358 19.6508 43.6337C19.3856 43.6725 19.1589 43.8929 19.1589 44.1959V51.6742C19.1589 52.1798 19.429 52.647 19.8671 52.8984L31.9349 59.8392C32.1602 59.9686 32.4165 59.9226 32.5901 59.7752C32.4709 59.7924 32.3442 59.7765 32.2257 59.7084Z" fill="#D0DFDB"/>
<path d="M73.9136 38.4763L63.6536 44.3872V27.0954C63.6536 25.5481 63.945 23.7797 64.5382 22.3502C65.7114 19.5213 70.6661 12.8348 73.9136 11.9308V38.4763Z" fill="#7FB7E7"/>
<path d="M21.5304 61.4888L18.9766 60.0216V59.0955L21.5304 60.563V61.4888Z" fill="#E4F4F1"/>
<path d="M26.6381 64.4238L24.0842 62.9559V62.0298L26.6381 63.4973V64.4238Z" fill="#E4F4F1"/>
<path d="M31.7464 67.3594L29.1919 65.8919V64.9654L31.7464 66.4328V67.3594Z" fill="#E4F4F1"/>
<path d="M36.8541 70.2939L34.3003 68.8265V67.9005L36.8541 69.3679V70.2939Z" fill="#E4F4F1"/>
<path d="M26.8463 63.6489L26.6383 63.5292V63.4974L24.0844 62.03V62.0555L21.5306 60.5814V60.5628L20.5455 59.9964C20.5234 59.911 20.5117 59.8276 20.5117 59.7471V57.6699C20.5117 57.3881 20.6564 57.2283 20.8693 57.2283C20.9643 57.2283 21.0725 57.26 21.1869 57.3268L26.196 60.2533C26.5687 60.471 26.8718 60.9794 26.8718 61.386V63.463C26.8718 63.5327 26.8629 63.5946 26.8463 63.6489Z" fill="#4C5961"/>
<path d="M26.6381 63.8843V63.5288L26.8462 63.6485C26.8097 63.7678 26.7367 63.8485 26.6381 63.8843ZM24.0843 62.5726L21.5305 61.0804V60.581L24.0843 62.0551V62.5726Z" fill="#722323"/>
<path d="M21.5308 61.0806L21.1877 60.8801C20.888 60.7052 20.6338 60.3427 20.5457 59.9961L21.5308 60.5625V60.5811V61.0806Z" fill="#757F7F"/>
<path d="M26.5134 63.9058C26.419 63.9058 26.3108 63.874 26.1965 63.8072L24.0842 62.5734V62.0559V62.0303L26.6381 63.4978V63.5295V63.885C26.6002 63.8987 26.5581 63.9058 26.5134 63.9058Z" fill="#757F7F"/>
<path d="M21.3839 60.5318C21.0119 60.3135 20.7087 59.8057 20.7087 59.3986V57.3215C20.7087 56.9144 21.0112 56.7608 21.3839 56.9785L26.393 59.905C26.765 60.1227 27.0688 60.6303 27.0688 61.0374V63.1146C27.0688 63.5218 26.7657 63.676 26.393 63.4584L21.3839 60.5318Z" fill="#FBFEFE"/>
<path d="M21.1875 60.5974C20.8148 60.3797 20.5117 59.871 20.5117 59.4639V57.3869C20.5117 56.9798 20.8148 56.8261 21.1869 57.0438L26.196 59.9704C26.5687 60.1881 26.8718 60.6964 26.8718 61.103V63.18C26.8718 63.5872 26.5687 63.7414 26.1967 63.5239L21.1875 60.5974Z" fill="#E3E2E0"/>
<path d="M26.1966 63.3853L21.1875 60.4588C20.8844 60.2811 20.6391 59.8697 20.6391 59.5384L20.6384 57.4614C20.6384 57.1299 20.8844 57.0053 21.1868 57.1824L26.1959 60.1094C26.4991 60.2857 26.745 60.6977 26.745 61.0293V63.1062C26.745 63.437 26.4991 63.5616 26.1966 63.3853Z" fill="#FBFEFE"/>
<path d="M26.7424 61.0137C26.7355 60.6859 26.4951 60.2836 26.1961 60.1092L21.187 57.1821C20.8887 57.0078 20.6482 57.1291 20.6414 57.4493L26.7424 61.0137Z" fill="#82B2E3"/>
<path d="M20.6414 59.5529C20.6482 59.8815 20.8894 60.2838 21.1877 60.458L26.1968 63.3845C26.4951 63.5597 26.7362 63.4384 26.7424 63.1181L20.6414 59.5529Z" fill="#82B2E3"/>
<path d="M67.8722 35.2012C67.4348 35.2012 67.0786 34.8451 67.0786 34.4076V26.08C67.0786 25.664 67.3025 25.2759 67.6628 25.0687L69.3011 24.122C69.4223 24.0531 69.5587 24.0154 69.6965 24.0154C70.1333 24.0154 70.4895 24.3714 70.4895 24.8091V33.1366C70.4895 33.5534 70.2663 33.9407 69.9053 34.1479L68.2677 35.0947C68.1465 35.164 68.01 35.2012 67.8722 35.2012Z" fill="#3A82C0"/>
<path d="M69.821 33.9068L68.1821 34.8528C67.8397 35.0506 67.4119 34.8032 67.4119 34.4077V26.0801C67.4119 25.7626 67.5813 25.4689 67.8562 25.3099L69.4945 24.3648C69.8369 24.167 70.2654 24.4135 70.2654 24.8091V33.1374C70.2654 33.455 70.0959 33.7478 69.821 33.9068Z" fill="#7FB7E7"/>
<path d="M39.8916 49.1748L39.388 49.3648C39.2523 49.4194 39.1682 49.5494 39.1682 49.7065V49.8947C39.1682 50.0642 39.3508 50.2025 39.4968 50.1441L40.0011 49.9512C40.1362 49.8968 40.2202 49.7665 40.2202 49.6094V49.4243C40.2202 49.2552 40.0376 49.1161 39.8916 49.1748Z" fill="#ED7324"/>
<path d="M40.0217 49.3123L39.5181 49.5023C39.3817 49.557 39.2983 49.6872 39.2983 49.8441V50.0322C39.2983 50.2018 39.4809 50.3409 39.627 50.2823L40.1312 50.0887C40.2663 50.0344 40.3496 49.9047 40.3496 49.747V49.5623C40.3496 49.3928 40.1678 49.2537 40.0217 49.3123Z" fill="#EAB839"/>
<path d="M32.7913 58.3209V58.9409C30.0033 57.6024 23.1513 54.0469 19.137 51.4476V50.8201C23.1513 53.4199 30.0033 56.9754 32.7913 58.3209Z" fill="#6D7D8E"/>
<path d="M32.7913 57.1421V57.769C30.0033 56.4243 23.1513 52.8689 19.137 50.2687V49.6412C23.1513 52.241 30.0033 55.7968 32.7913 57.1421Z" fill="#6D7D8E"/>
<path d="M32.7913 55.9575V56.5845C30.0033 55.2465 23.1513 51.691 19.137 49.0842V48.4566C23.1513 51.0635 30.0033 54.6189 32.7913 55.9575Z" fill="#6D7D8E"/>
<path d="M32.7913 54.744V55.3716C30.0033 54.033 23.1513 50.4776 19.137 47.8707V47.2857C23.1513 49.8782 30.0033 53.413 32.7913 54.744Z" fill="#6D7D8E"/>
<path d="M32.7913 58.6473V59.2749C29.7174 57.762 22.9212 54.1721 19.137 51.7396V51.112C22.9212 53.5445 29.7174 57.1352 32.7913 58.6473Z" fill="#97AFB9"/>
<path d="M32.7913 57.4627V58.0903C30.0033 56.7447 23.1513 53.1893 19.137 50.5892V49.9624C23.1513 52.5622 30.0033 56.1172 32.7913 57.4627Z" fill="#97AFB9"/>
<path d="M32.7913 56.2918V56.9194C29.7174 55.4065 22.9212 51.8165 19.137 49.3838V48.7562C22.9212 51.189 29.7174 54.7794 32.7913 56.2918Z" fill="#97AFB9"/>
<path d="M32.7913 55.0656V55.6924C30.0033 54.3546 23.1513 50.7992 19.137 48.1923V47.5648C23.1513 50.1716 30.0033 53.7271 32.7913 55.0656Z" fill="#97AFB9"/>
<path d="M32.7913 53.518V54.145C30.0033 52.807 23.1513 49.2516 19.137 46.6447V46.0172C23.1513 48.624 30.0033 52.1795 32.7913 53.518Z" fill="#6D7D8E"/>
<path d="M32.7913 52.3466V52.9741C30.0033 51.6289 23.1513 48.0731 19.137 45.4662V44.8387C23.1513 47.4456 30.0033 51.001 32.7913 52.3466Z" fill="#6D7D8E"/>
<path d="M32.7496 51.7681C29.9615 50.43 23.1516 46.8883 19.1648 44.3022C19.1924 44.212 19.2413 44.1353 19.3108 44.0721C19.388 44.0024 19.4782 43.9537 19.5692 43.9397C19.7641 44.0651 21.5416 45.1633 22.4199 45.7145L22.4964 45.7626C23.8908 46.5646 25.2913 47.3313 26.623 48.0355L26.7277 48.0912C28.5258 48.9758 32.206 51.0571 32.206 51.0571C32.3459 51.1411 32.4644 51.2452 32.5546 51.3781C32.6455 51.489 32.7151 51.629 32.7496 51.7681Z" fill="#6D7D8E"/>
<path d="M32.7913 53.852V54.4795C29.7174 52.9666 22.9212 49.3767 19.137 46.9442V46.3164C22.9212 48.7491 29.7174 52.3396 32.7913 53.852Z" fill="#97AFB9"/>
<path d="M32.7913 52.6671V53.2949C30.0033 51.9494 23.1513 48.394 19.137 45.7871V45.16C23.1513 47.7669 30.0033 51.3223 32.7913 52.6671Z" fill="#97AFB9"/>
<path d="M32.7913 52.0744V52.1094C29.7174 50.6042 22.9212 47.0135 19.137 44.5811V44.4487L19.1645 44.302C19.1921 44.2118 19.241 44.1351 19.3106 44.0719C20.3143 44.7132 21.3601 45.4043 22.4197 46.0173L22.4961 46.0663C23.8905 46.8682 25.2911 47.6349 26.6227 48.3384L26.7275 48.394C28.0095 49.0706 31.4948 50.8481 32.5543 51.378C32.6453 51.4888 32.7148 51.6288 32.7493 51.7679C32.7775 51.8656 32.7913 51.9697 32.7913 52.0744Z" fill="#97AFB9"/>
<path d="M44.6576 39.8597L44.3517 40.0637C44.196 40.1684 43.8763 40.1724 43.658 40.0734L40.4132 38.6197C40.0088 38.4364 39.9681 38.1374 40.3264 37.9762L40.624 37.8419C40.7934 37.7655 41.067 37.7722 41.2605 37.8578L44.4661 39.2626C44.8326 39.4243 44.9166 39.6861 44.6576 39.8597Z" fill="#443940"/>
<path d="M43.2495 40.0064L43.5092 40.0845L44.8767 39.3065L44.6618 39.1908L43.2495 40.0064Z" fill="#7FB7E7"/>
<path d="M42.5579 39.7445L42.8183 39.8223L44.1858 39.0445L43.9708 38.9288L42.5579 39.7445Z" fill="#7FB7E7"/>
<path d="M41.8667 39.4819L42.1264 39.5596L43.4939 38.7819L43.279 38.6662L41.8667 39.4819Z" fill="#7FB7E7"/>
<path d="M41.1753 39.2186L41.4357 39.2964L42.8032 38.5178L42.5883 38.4029L41.1753 39.2186Z" fill="#7FB7E7"/>
<path d="M40.5281 38.9323L40.7878 39.0103L42.1553 38.2323L41.9404 38.1166L40.5281 38.9323Z" fill="#7FB7E7"/>
<path d="M39.9819 38.5845L40.2424 38.6626L41.6098 37.8849L41.3949 37.7689L39.9819 38.5845Z" fill="#7FB7E7"/>
<path d="M33.1975 33.3597L33.5068 33.1632C33.6653 33.0634 33.9388 33.0833 34.1014 33.2068L36.5236 35.0179C36.8247 35.2458 36.7875 35.5704 36.443 35.7165L36.1564 35.8376C35.9938 35.9065 35.7617 35.8777 35.617 35.7714L33.2175 34.0155C32.9433 33.8128 32.9344 33.5257 33.1975 33.3597Z" fill="#443940"/>
<path d="M34.4346 33.31L34.2314 33.2059L32.877 33.9362L33.0326 34.0767L34.4346 33.31Z" fill="#7FB7E7"/>
<path d="M34.9619 33.6451L34.7587 33.5413L33.4043 34.2713L33.56 34.4126L34.9619 33.6451Z" fill="#7FB7E7"/>
<path d="M35.4885 33.9811L35.2853 33.8769L33.9309 34.6081L34.0866 34.7485L35.4885 33.9811Z" fill="#7FB7E7"/>
<path d="M36.0157 34.316L35.8124 34.2127L34.458 34.9428L34.6137 35.0835L36.0157 34.316Z" fill="#7FB7E7"/>
<path d="M36.5 34.6734L36.2968 34.5701L34.9424 35.3002L35.0981 35.4409L36.5 34.6734Z" fill="#7FB7E7"/>
<path d="M36.8833 35.0898L36.6801 34.9859L35.3257 35.716L35.4814 35.8564L36.8833 35.0898Z" fill="#7FB7E7"/>
<path d="M17.5558 37.3886C17.5558 37.6463 17.3471 37.9749 17.0894 38.1244C16.8332 38.2718 16.623 38.1836 16.623 37.9274L16.6313 37.8399C16.6699 37.6001 16.8614 37.3246 17.0894 37.1916L17.1452 37.1627C17.3767 37.0559 17.5558 37.1496 17.5558 37.3886Z" fill="#E6E8E7"/>
</g>
<defs>
<linearGradient id="paint0_linear" x1="35.3697" y1="70.9213" x2="74.2776" y2="3.53081" gradientUnits="userSpaceOnUse">
<stop stop-color="#8FB3E1"/>
<stop offset="1" stop-color="white"/>
</linearGradient>
<linearGradient id="paint1_linear" x1="85.1218" y1="3.75166" x2="76.953" y2="17.9006" gradientUnits="userSpaceOnUse">
<stop stop-color="#606E79"/>
<stop offset="0.126147" stop-color="#606E79"/>
<stop offset="0.127231" stop-color="#65747E"/>
<stop offset="0.43781" stop-color="#65747E"/>
<stop offset="0.440691" stop-color="#49515A"/>
<stop offset="0.836743" stop-color="#49515A"/>
<stop offset="0.838664" stop-color="#363B40"/>
<stop offset="1" stop-color="#363B40"/>
</linearGradient>
<linearGradient id="paint2_linear" x1="89.0308" y1="5.95925" x2="80.8619" y2="20.1082" gradientUnits="userSpaceOnUse">
<stop stop-color="#606E79"/>
<stop offset="0.126147" stop-color="#606E79"/>
<stop offset="0.127231" stop-color="#65747E"/>
<stop offset="0.43781" stop-color="#65747E"/>
<stop offset="0.440691" stop-color="#49515A"/>
<stop offset="0.836743" stop-color="#49515A"/>
<stop offset="0.838664" stop-color="#363B40"/>
<stop offset="1" stop-color="#363B40"/>
</linearGradient>
<linearGradient id="paint3_linear" x1="89.274" y1="16.877" x2="85.1825" y2="11.8604" gradientUnits="userSpaceOnUse">
<stop stop-color="#DDE2E4"/>
<stop offset="0.126147" stop-color="#DDE2E4"/>
<stop offset="0.127231" stop-color="#E3E8EA"/>
<stop offset="0.43781" stop-color="#E3E8EA"/>
<stop offset="0.440691" stop-color="#C0C2C3"/>
<stop offset="0.836743" stop-color="#C0C2C3"/>
<stop offset="0.838664" stop-color="#A5A9AA"/>
<stop offset="1" stop-color="#A5A9AA"/>
</linearGradient>
<linearGradient id="paint4_linear" x1="89.8506" y1="10.446" x2="85.0513" y2="18.7586" gradientUnits="userSpaceOnUse">
<stop stop-color="#72767A"/>
<stop offset="0.161336" stop-color="#72767A"/>
<stop offset="0.163257" stop-color="#8D9192"/>
<stop offset="0.559309" stop-color="#8D9192"/>
<stop offset="0.56219" stop-color="#B0B3B5"/>
<stop offset="0.872769" stop-color="#B0B3B5"/>
<stop offset="0.873853" stop-color="#ABAEB0"/>
<stop offset="1" stop-color="#ABAEB0"/>
</linearGradient>
<linearGradient id="paint5_linear" x1="88.2366" y1="10.947" x2="84.8796" y2="16.7616" gradientUnits="userSpaceOnUse">
<stop stop-color="#72767A"/>
<stop offset="0.161336" stop-color="#72767A"/>
<stop offset="0.163257" stop-color="#8D9192"/>
<stop offset="0.559309" stop-color="#8D9192"/>
<stop offset="0.56219" stop-color="#B0B3B5"/>
<stop offset="0.872769" stop-color="#B0B3B5"/>
<stop offset="0.873853" stop-color="#ABAEB0"/>
<stop offset="1" stop-color="#ABAEB0"/>
</linearGradient>
<linearGradient id="paint6_linear" x1="87.9299" y1="12.9837" x2="86.3971" y2="15.6385" gradientUnits="userSpaceOnUse">
<stop stop-color="#72767A"/>
<stop offset="0.161336" stop-color="#72767A"/>
<stop offset="0.163257" stop-color="#8D9192"/>
<stop offset="0.559309" stop-color="#8D9192"/>
<stop offset="0.56219" stop-color="#B0B3B5"/>
<stop offset="0.872769" stop-color="#B0B3B5"/>
<stop offset="0.873853" stop-color="#ABAEB0"/>
<stop offset="1" stop-color="#ABAEB0"/>
</linearGradient>
<linearGradient id="paint7_linear" x1="71.0649" y1="11.867" x2="62.8961" y2="26.0159" gradientUnits="userSpaceOnUse">
<stop stop-color="#606E79"/>
<stop offset="0.126147" stop-color="#606E79"/>
<stop offset="0.127231" stop-color="#65747E"/>
<stop offset="0.43781" stop-color="#65747E"/>
<stop offset="0.440691" stop-color="#49515A"/>
<stop offset="0.836743" stop-color="#49515A"/>
<stop offset="0.838664" stop-color="#363B40"/>
<stop offset="1" stop-color="#363B40"/>
</linearGradient>
<linearGradient id="paint8_linear" x1="74.9749" y1="14.073" x2="66.806" y2="28.2219" gradientUnits="userSpaceOnUse">
<stop stop-color="#606E79"/>
<stop offset="0.126147" stop-color="#606E79"/>
<stop offset="0.127231" stop-color="#65747E"/>
<stop offset="0.43781" stop-color="#65747E"/>
<stop offset="0.440691" stop-color="#49515A"/>
<stop offset="0.836743" stop-color="#49515A"/>
<stop offset="0.838664" stop-color="#363B40"/>
<stop offset="1" stop-color="#363B40"/>
</linearGradient>
<linearGradient id="paint9_linear" x1="75.2174" y1="24.9913" x2="71.1259" y2="19.9747" gradientUnits="userSpaceOnUse">
<stop stop-color="#DDE2E4"/>
<stop offset="0.126147" stop-color="#DDE2E4"/>
<stop offset="0.127231" stop-color="#E3E8EA"/>
<stop offset="0.43781" stop-color="#E3E8EA"/>
<stop offset="0.440691" stop-color="#C0C2C3"/>
<stop offset="0.836743" stop-color="#C0C2C3"/>
<stop offset="0.838664" stop-color="#A5A9AA"/>
<stop offset="1" stop-color="#A5A9AA"/>
</linearGradient>
<linearGradient id="paint10_linear" x1="75.7938" y1="18.5598" x2="70.9945" y2="26.8725" gradientUnits="userSpaceOnUse">
<stop stop-color="#72767A"/>
<stop offset="0.161336" stop-color="#72767A"/>
<stop offset="0.163257" stop-color="#8D9192"/>
<stop offset="0.559309" stop-color="#8D9192"/>
<stop offset="0.56219" stop-color="#B0B3B5"/>
<stop offset="0.872769" stop-color="#B0B3B5"/>
<stop offset="0.873853" stop-color="#ABAEB0"/>
<stop offset="1" stop-color="#ABAEB0"/>
</linearGradient>
<linearGradient id="paint11_linear" x1="74.1806" y1="19.0617" x2="70.8236" y2="24.8762" gradientUnits="userSpaceOnUse">
<stop stop-color="#72767A"/>
<stop offset="0.161336" stop-color="#72767A"/>
<stop offset="0.163257" stop-color="#8D9192"/>
<stop offset="0.559309" stop-color="#8D9192"/>
<stop offset="0.56219" stop-color="#B0B3B5"/>
<stop offset="0.872769" stop-color="#B0B3B5"/>
<stop offset="0.873853" stop-color="#ABAEB0"/>
<stop offset="1" stop-color="#ABAEB0"/>
</linearGradient>
<linearGradient id="paint12_linear" x1="73.873" y1="21.0973" x2="72.3402" y2="23.752" gradientUnits="userSpaceOnUse">
<stop stop-color="#72767A"/>
<stop offset="0.161336" stop-color="#72767A"/>
<stop offset="0.163257" stop-color="#8D9192"/>
<stop offset="0.559309" stop-color="#8D9192"/>
<stop offset="0.56219" stop-color="#B0B3B5"/>
<stop offset="0.872769" stop-color="#B0B3B5"/>
<stop offset="0.873853" stop-color="#ABAEB0"/>
<stop offset="1" stop-color="#ABAEB0"/>
</linearGradient>
<linearGradient id="paint13_linear" x1="105.777" y1="15.7597" x2="97.6085" y2="29.9087" gradientUnits="userSpaceOnUse">
<stop stop-color="#606E79"/>
<stop offset="0.126147" stop-color="#606E79"/>
<stop offset="0.127231" stop-color="#65747E"/>
<stop offset="0.43781" stop-color="#65747E"/>
<stop offset="0.440691" stop-color="#49515A"/>
<stop offset="0.836743" stop-color="#49515A"/>
<stop offset="0.838664" stop-color="#363B40"/>
<stop offset="1" stop-color="#363B40"/>
</linearGradient>
<linearGradient id="paint14_linear" x1="109.687" y1="17.9668" x2="101.518" y2="32.1158" gradientUnits="userSpaceOnUse">
<stop stop-color="#606E79"/>
<stop offset="0.126147" stop-color="#606E79"/>
<stop offset="0.127231" stop-color="#65747E"/>
<stop offset="0.43781" stop-color="#65747E"/>
<stop offset="0.440691" stop-color="#49515A"/>
<stop offset="0.836743" stop-color="#49515A"/>
<stop offset="0.838664" stop-color="#363B40"/>
<stop offset="1" stop-color="#363B40"/>
</linearGradient>
<linearGradient id="paint15_linear" x1="110.571" y1="21.7221" x2="105.197" y2="31.0292" gradientUnits="userSpaceOnUse">
<stop stop-color="#DDE2E4"/>
<stop offset="0.126147" stop-color="#DDE2E4"/>
<stop offset="0.127231" stop-color="#E3E8EA"/>
<stop offset="0.43781" stop-color="#E3E8EA"/>
<stop offset="0.440691" stop-color="#C0C2C3"/>
<stop offset="0.836743" stop-color="#C0C2C3"/>
<stop offset="0.838664" stop-color="#A5A9AA"/>
<stop offset="1" stop-color="#A5A9AA"/>
</linearGradient>
<linearGradient id="paint16_linear" x1="110.506" y1="22.4531" x2="105.706" y2="30.7657" gradientUnits="userSpaceOnUse">
<stop stop-color="#72767A"/>
<stop offset="0.161336" stop-color="#72767A"/>
<stop offset="0.163257" stop-color="#8D9192"/>
<stop offset="0.559309" stop-color="#8D9192"/>
<stop offset="0.56219" stop-color="#B0B3B5"/>
<stop offset="0.872769" stop-color="#B0B3B5"/>
<stop offset="0.873853" stop-color="#ABAEB0"/>
<stop offset="1" stop-color="#ABAEB0"/>
</linearGradient>
<linearGradient id="paint17_linear" x1="108.892" y1="22.9549" x2="105.535" y2="28.7694" gradientUnits="userSpaceOnUse">
<stop stop-color="#ABAEB0"/>
<stop offset="0.126147" stop-color="#ABAEB0"/>
<stop offset="0.127231" stop-color="#B0B3B5"/>
<stop offset="0.43781" stop-color="#B0B3B5"/>
<stop offset="0.440691" stop-color="#8D9192"/>
<stop offset="0.836743" stop-color="#8D9192"/>
<stop offset="0.838664" stop-color="#72767A"/>
<stop offset="1" stop-color="#72767A"/>
</linearGradient>
<linearGradient id="paint18_linear" x1="108.585" y1="24.9914" x2="107.052" y2="27.6462" gradientUnits="userSpaceOnUse">
<stop stop-color="#72767A"/>
<stop offset="0.161336" stop-color="#72767A"/>
<stop offset="0.163257" stop-color="#8D9192"/>
<stop offset="0.559309" stop-color="#8D9192"/>
<stop offset="0.56219" stop-color="#B0B3B5"/>
<stop offset="0.872769" stop-color="#B0B3B5"/>
<stop offset="0.873853" stop-color="#ABAEB0"/>
<stop offset="1" stop-color="#ABAEB0"/>
</linearGradient>
<linearGradient id="paint19_linear" x1="91.721" y1="23.8739" x2="83.5521" y2="38.0228" gradientUnits="userSpaceOnUse">
<stop stop-color="#606E79"/>
<stop offset="0.126147" stop-color="#606E79"/>
<stop offset="0.127231" stop-color="#65747E"/>
<stop offset="0.43781" stop-color="#65747E"/>
<stop offset="0.440691" stop-color="#49515A"/>
<stop offset="0.836743" stop-color="#49515A"/>
<stop offset="0.838664" stop-color="#363B40"/>
<stop offset="1" stop-color="#363B40"/>
</linearGradient>
<linearGradient id="paint20_linear" x1="95.6299" y1="26.081" x2="87.461" y2="40.23" gradientUnits="userSpaceOnUse">
<stop stop-color="#606E79"/>
<stop offset="0.126147" stop-color="#606E79"/>
<stop offset="0.127231" stop-color="#65747E"/>
<stop offset="0.43781" stop-color="#65747E"/>
<stop offset="0.440691" stop-color="#49515A"/>
<stop offset="0.836743" stop-color="#49515A"/>
<stop offset="0.838664" stop-color="#363B40"/>
<stop offset="1" stop-color="#363B40"/>
</linearGradient>
<linearGradient id="paint21_linear" x1="96.5138" y1="29.8371" x2="91.1403" y2="39.1442" gradientUnits="userSpaceOnUse">
<stop stop-color="#DDE2E4"/>
<stop offset="0.126147" stop-color="#DDE2E4"/>
<stop offset="0.127231" stop-color="#E3E8EA"/>
<stop offset="0.43781" stop-color="#E3E8EA"/>
<stop offset="0.440691" stop-color="#C0C2C3"/>
<stop offset="0.836743" stop-color="#C0C2C3"/>
<stop offset="0.838664" stop-color="#A5A9AA"/>
<stop offset="1" stop-color="#A5A9AA"/>
</linearGradient>
<linearGradient id="paint22_linear" x1="96.4491" y1="30.5684" x2="91.6498" y2="38.881" gradientUnits="userSpaceOnUse">
<stop stop-color="#72767A"/>
<stop offset="0.161336" stop-color="#72767A"/>
<stop offset="0.163257" stop-color="#8D9192"/>
<stop offset="0.559309" stop-color="#8D9192"/>
<stop offset="0.56219" stop-color="#B0B3B5"/>
<stop offset="0.872769" stop-color="#B0B3B5"/>
<stop offset="0.873853" stop-color="#ABAEB0"/>
<stop offset="1" stop-color="#ABAEB0"/>
</linearGradient>
<linearGradient id="paint23_linear" x1="94.8357" y1="31.0686" x2="91.4787" y2="36.8831" gradientUnits="userSpaceOnUse">
<stop stop-color="#ABAEB0"/>
<stop offset="0.126147" stop-color="#ABAEB0"/>
<stop offset="0.127231" stop-color="#B0B3B5"/>
<stop offset="0.43781" stop-color="#B0B3B5"/>
<stop offset="0.440691" stop-color="#8D9192"/>
<stop offset="0.836743" stop-color="#8D9192"/>
<stop offset="0.838664" stop-color="#72767A"/>
<stop offset="1" stop-color="#72767A"/>
</linearGradient>
<linearGradient id="paint24_linear" x1="94.5292" y1="33.1057" x2="92.9965" y2="35.7605" gradientUnits="userSpaceOnUse">
<stop stop-color="#72767A"/>
<stop offset="0.161336" stop-color="#72767A"/>
<stop offset="0.163257" stop-color="#8D9192"/>
<stop offset="0.559309" stop-color="#8D9192"/>
<stop offset="0.56219" stop-color="#B0B3B5"/>
<stop offset="0.872769" stop-color="#B0B3B5"/>
<stop offset="0.873853" stop-color="#ABAEB0"/>
<stop offset="1" stop-color="#ABAEB0"/>
</linearGradient>
<linearGradient id="paint25_linear" x1="84.1968" y1="16.5407" x2="89.7729" y2="16.5407" gradientUnits="userSpaceOnUse">
<stop stop-color="#464749"/>
<stop offset="0.161336" stop-color="#464749"/>
<stop offset="0.163257" stop-color="#5C6064"/>
<stop offset="0.559309" stop-color="#5C6064"/>
<stop offset="0.56219" stop-color="#7F8487"/>
<stop offset="0.872769" stop-color="#7F8487"/>
<stop offset="0.873853" stop-color="#7A7F82"/>
<stop offset="1" stop-color="#7A7F82"/>
</linearGradient>
<linearGradient id="paint26_linear" x1="88.6271" y1="11.326" x2="85.0255" y2="17.5642" gradientUnits="userSpaceOnUse">
<stop stop-color="#72767A"/>
<stop offset="0.161336" stop-color="#72767A"/>
<stop offset="0.163257" stop-color="#8D9192"/>
<stop offset="0.559309" stop-color="#8D9192"/>
<stop offset="0.56219" stop-color="#B0B3B5"/>
<stop offset="0.872769" stop-color="#B0B3B5"/>
<stop offset="0.873853" stop-color="#ABAEB0"/>
<stop offset="1" stop-color="#ABAEB0"/>
</linearGradient>
<linearGradient id="paint27_linear" x1="39.9805" y1="21.8748" x2="42.8629" y2="21.8748" gradientUnits="userSpaceOnUse">
<stop stop-color="#A4A8A9"/>
<stop offset="0.161336" stop-color="#A4A8A9"/>
<stop offset="0.163257" stop-color="#BEC1C3"/>
<stop offset="0.559309" stop-color="#BEC1C3"/>
<stop offset="0.56219" stop-color="#E1E5E9"/>
<stop offset="0.872769" stop-color="#E1E5E9"/>
<stop offset="0.873853" stop-color="#DCE1E4"/>
<stop offset="1" stop-color="#DCE1E4"/>
</linearGradient>
<linearGradient id="paint28_linear" x1="26.1938" y1="37.4042" x2="30.6086" y2="37.4042" gradientUnits="userSpaceOnUse">
<stop stop-color="#A4A8A9"/>
<stop offset="0.161336" stop-color="#A4A8A9"/>
<stop offset="0.163257" stop-color="#BEC1C3"/>
<stop offset="0.559309" stop-color="#BEC1C3"/>
<stop offset="0.56219" stop-color="#E1E5E9"/>
<stop offset="0.872769" stop-color="#E1E5E9"/>
<stop offset="0.873853" stop-color="#DCE1E4"/>
<stop offset="1" stop-color="#DCE1E4"/>
</linearGradient>
<linearGradient id="paint29_linear" x1="25.946" y1="36.384" x2="30.8564" y2="36.384" gradientUnits="userSpaceOnUse">
<stop stop-color="#BCBFC0"/>
<stop offset="0.161336" stop-color="#BCBFC0"/>
<stop offset="0.163257" stop-color="#D5D8DB"/>
<stop offset="0.559309" stop-color="#D5D8DB"/>
<stop offset="0.56219" stop-color="#F6FAFE"/>
<stop offset="0.872769" stop-color="#F6FAFE"/>
<stop offset="0.873853" stop-color="#F2F6FA"/>
<stop offset="1" stop-color="#F2F6FA"/>
</linearGradient>
<linearGradient id="paint30_linear" x1="26.1938" y1="34.6349" x2="30.6086" y2="34.6349" gradientUnits="userSpaceOnUse">
<stop stop-color="#A4A8A9"/>
<stop offset="0.161336" stop-color="#A4A8A9"/>
<stop offset="0.163257" stop-color="#BEC1C3"/>
<stop offset="0.559309" stop-color="#BEC1C3"/>
<stop offset="0.56219" stop-color="#E1E5E9"/>
<stop offset="0.872769" stop-color="#E1E5E9"/>
<stop offset="0.873853" stop-color="#DCE1E4"/>
<stop offset="1" stop-color="#DCE1E4"/>
</linearGradient>
<linearGradient id="paint31_linear" x1="25.946" y1="32.7023" x2="30.8564" y2="32.7023" gradientUnits="userSpaceOnUse">
<stop stop-color="#BCBFC0"/>
<stop offset="0.161336" stop-color="#BCBFC0"/>
<stop offset="0.163257" stop-color="#D5D8DB"/>
<stop offset="0.559309" stop-color="#D5D8DB"/>
<stop offset="0.56219" stop-color="#F6FAFE"/>
<stop offset="0.872769" stop-color="#F6FAFE"/>
<stop offset="0.873853" stop-color="#F2F6FA"/>
<stop offset="1" stop-color="#F2F6FA"/>
</linearGradient>
<linearGradient id="paint32_linear" x1="26.1938" y1="31.6967" x2="30.6086" y2="31.6967" gradientUnits="userSpaceOnUse">
<stop stop-color="#A4A8A9"/>
<stop offset="0.161336" stop-color="#A4A8A9"/>
<stop offset="0.163257" stop-color="#BEC1C3"/>
<stop offset="0.559309" stop-color="#BEC1C3"/>
<stop offset="0.56219" stop-color="#E1E5E9"/>
<stop offset="0.872769" stop-color="#E1E5E9"/>
<stop offset="0.873853" stop-color="#DCE1E4"/>
<stop offset="1" stop-color="#DCE1E4"/>
</linearGradient>
<linearGradient id="paint33_linear" x1="15.4866" y1="48.4214" x2="17.0914" y2="51.201" gradientUnits="userSpaceOnUse">
<stop stop-color="#DCE1E4"/>
<stop offset="0.126147" stop-color="#DCE1E4"/>
<stop offset="0.127231" stop-color="#E1E5E9"/>
<stop offset="0.43781" stop-color="#E1E5E9"/>
<stop offset="0.440691" stop-color="#BEC1C3"/>
<stop offset="0.836743" stop-color="#BEC1C3"/>
<stop offset="0.838664" stop-color="#A4A8A9"/>
<stop offset="1" stop-color="#A4A8A9"/>
</linearGradient>
<linearGradient id="paint34_linear" x1="74.4228" y1="46.8668" x2="70.4452" y2="39.9774" gradientUnits="userSpaceOnUse">
<stop stop-color="#A4A8A9"/>
<stop offset="0.161336" stop-color="#A4A8A9"/>
<stop offset="0.163257" stop-color="#BEC1C3"/>
<stop offset="0.559309" stop-color="#BEC1C3"/>
<stop offset="0.56219" stop-color="#E1E5E9"/>
<stop offset="0.872769" stop-color="#E1E5E9"/>
<stop offset="0.873853" stop-color="#DCE1E4"/>
<stop offset="1" stop-color="#DCE1E4"/>
</linearGradient>
<linearGradient id="paint35_linear" x1="49.6902" y1="53.4304" x2="41.5213" y2="67.5794" gradientUnits="userSpaceOnUse">
<stop stop-color="#606E79"/>
<stop offset="0.126147" stop-color="#606E79"/>
<stop offset="0.127231" stop-color="#65747E"/>
<stop offset="0.43781" stop-color="#65747E"/>
<stop offset="0.440691" stop-color="#49515A"/>
<stop offset="0.836743" stop-color="#49515A"/>
<stop offset="0.838664" stop-color="#363B40"/>
<stop offset="1" stop-color="#363B40"/>
</linearGradient>
<linearGradient id="paint36_linear" x1="50.5738" y1="57.1867" x2="45.2004" y2="66.4938" gradientUnits="userSpaceOnUse">
<stop stop-color="#DDE2E4"/>
<stop offset="0.126147" stop-color="#DDE2E4"/>
<stop offset="0.127231" stop-color="#E3E8EA"/>
<stop offset="0.43781" stop-color="#E3E8EA"/>
<stop offset="0.440691" stop-color="#C0C2C3"/>
<stop offset="0.836743" stop-color="#C0C2C3"/>
<stop offset="0.838664" stop-color="#A5A9AA"/>
<stop offset="1" stop-color="#A5A9AA"/>
</linearGradient>
<linearGradient id="paint37_linear" x1="50.5094" y1="57.9167" x2="45.7101" y2="66.2292" gradientUnits="userSpaceOnUse">
<stop stop-color="#72767A"/>
<stop offset="0.161336" stop-color="#72767A"/>
<stop offset="0.163257" stop-color="#8D9192"/>
<stop offset="0.559309" stop-color="#8D9192"/>
<stop offset="0.56219" stop-color="#B0B3B5"/>
<stop offset="0.872769" stop-color="#B0B3B5"/>
<stop offset="0.873853" stop-color="#ABAEB0"/>
<stop offset="1" stop-color="#ABAEB0"/>
</linearGradient>
<linearGradient id="paint38_linear" x1="48.895" y1="58.4192" x2="45.538" y2="64.2337" gradientUnits="userSpaceOnUse">
<stop stop-color="#ABAEB0"/>
<stop offset="0.126147" stop-color="#ABAEB0"/>
<stop offset="0.127231" stop-color="#B0B3B5"/>
<stop offset="0.43781" stop-color="#B0B3B5"/>
<stop offset="0.440691" stop-color="#8D9192"/>
<stop offset="0.836743" stop-color="#8D9192"/>
<stop offset="0.838664" stop-color="#72767A"/>
<stop offset="1" stop-color="#72767A"/>
</linearGradient>
<linearGradient id="paint39_linear" x1="48.5885" y1="60.4544" x2="47.0558" y2="63.1092" gradientUnits="userSpaceOnUse">
<stop stop-color="#72767A"/>
<stop offset="0.161336" stop-color="#72767A"/>
<stop offset="0.163257" stop-color="#8D9192"/>
<stop offset="0.559309" stop-color="#8D9192"/>
<stop offset="0.56219" stop-color="#B0B3B5"/>
<stop offset="0.872769" stop-color="#B0B3B5"/>
<stop offset="0.873853" stop-color="#ABAEB0"/>
<stop offset="1" stop-color="#ABAEB0"/>
</linearGradient>
<linearGradient id="paint40_linear" x1="48.8281" y1="51.3884" x2="53.2429" y2="51.3884" gradientUnits="userSpaceOnUse">
<stop stop-color="#A4A8A9"/>
<stop offset="0.161336" stop-color="#A4A8A9"/>
<stop offset="0.163257" stop-color="#BEC1C3"/>
<stop offset="0.559309" stop-color="#BEC1C3"/>
<stop offset="0.56219" stop-color="#E1E5E9"/>
<stop offset="0.872769" stop-color="#E1E5E9"/>
<stop offset="0.873853" stop-color="#DCE1E4"/>
<stop offset="1" stop-color="#DCE1E4"/>
</linearGradient>
<linearGradient id="paint41_linear" x1="48.5803" y1="50.3683" x2="53.4908" y2="50.3683" gradientUnits="userSpaceOnUse">
<stop stop-color="#BCBFC0"/>
<stop offset="0.161336" stop-color="#BCBFC0"/>
<stop offset="0.163257" stop-color="#D5D8DB"/>
<stop offset="0.559309" stop-color="#D5D8DB"/>
<stop offset="0.56219" stop-color="#F6FAFE"/>
<stop offset="0.872769" stop-color="#F6FAFE"/>
<stop offset="0.873853" stop-color="#F2F6FA"/>
<stop offset="1" stop-color="#F2F6FA"/>
</linearGradient>
<linearGradient id="paint42_linear" x1="48.8281" y1="48.6194" x2="53.2429" y2="48.6194" gradientUnits="userSpaceOnUse">
<stop stop-color="#A4A8A9"/>
<stop offset="0.161336" stop-color="#A4A8A9"/>
<stop offset="0.163257" stop-color="#BEC1C3"/>
<stop offset="0.559309" stop-color="#BEC1C3"/>
<stop offset="0.56219" stop-color="#E1E5E9"/>
<stop offset="0.872769" stop-color="#E1E5E9"/>
<stop offset="0.873853" stop-color="#DCE1E4"/>
<stop offset="1" stop-color="#DCE1E4"/>
</linearGradient>
<linearGradient id="paint43_linear" x1="48.5803" y1="46.6877" x2="53.4908" y2="46.6877" gradientUnits="userSpaceOnUse">
<stop stop-color="#BCBFC0"/>
<stop offset="0.161336" stop-color="#BCBFC0"/>
<stop offset="0.163257" stop-color="#D5D8DB"/>
<stop offset="0.559309" stop-color="#D5D8DB"/>
<stop offset="0.56219" stop-color="#F6FAFE"/>
<stop offset="0.872769" stop-color="#F6FAFE"/>
<stop offset="0.873853" stop-color="#F2F6FA"/>
<stop offset="1" stop-color="#F2F6FA"/>
</linearGradient>
<linearGradient id="paint44_linear" x1="48.8281" y1="45.682" x2="53.2429" y2="45.682" gradientUnits="userSpaceOnUse">
<stop stop-color="#A4A8A9"/>
<stop offset="0.161336" stop-color="#A4A8A9"/>
<stop offset="0.163257" stop-color="#BEC1C3"/>
<stop offset="0.559309" stop-color="#BEC1C3"/>
<stop offset="0.56219" stop-color="#E1E5E9"/>
<stop offset="0.872769" stop-color="#E1E5E9"/>
<stop offset="0.873853" stop-color="#DCE1E4"/>
<stop offset="1" stop-color="#DCE1E4"/>
</linearGradient>
<linearGradient id="paint45_linear" x1="36.8534" y1="60.7618" x2="38.4582" y2="63.5414" gradientUnits="userSpaceOnUse">
<stop stop-color="#DCE1E4"/>
<stop offset="0.126147" stop-color="#DCE1E4"/>
<stop offset="0.127231" stop-color="#E1E5E9"/>
<stop offset="0.43781" stop-color="#E1E5E9"/>
<stop offset="0.440691" stop-color="#BEC1C3"/>
<stop offset="0.836743" stop-color="#BEC1C3"/>
<stop offset="0.838664" stop-color="#A4A8A9"/>
<stop offset="1" stop-color="#A4A8A9"/>
</linearGradient>
<linearGradient id="paint46_linear" x1="61.3887" y1="35.5864" x2="64.2711" y2="35.5864" gradientUnits="userSpaceOnUse">
<stop stop-color="#A4A8A9"/>
<stop offset="0.161336" stop-color="#A4A8A9"/>
<stop offset="0.163257" stop-color="#BEC1C3"/>
<stop offset="0.559309" stop-color="#BEC1C3"/>
<stop offset="0.56219" stop-color="#E1E5E9"/>
<stop offset="0.872769" stop-color="#E1E5E9"/>
<stop offset="0.873853" stop-color="#DCE1E4"/>
<stop offset="1" stop-color="#DCE1E4"/>
</linearGradient>
</defs>
</svg>
