<svg width="35" height="48" viewBox="0 0 35 48" fill="none" xmlns="http://www.w3.org/2000/svg">
<path d="M8.58789 37.7144H25.7307V41.1429H8.58789V37.7144Z" fill="#4662B7"/>
<path d="M12.0166 44.5713H22.3023V47.9999H12.0166V44.5713Z" fill="#4662B7"/>
<path d="M17.1599 0C12.6133 0 8.25297 1.80612 5.03806 5.02103C1.82315 8.23594 0.0170294 12.5963 0.0170294 17.1429C-0.0989004 19.6343 0.378356 22.1176 1.40954 24.3886C2.44072 26.6596 3.99635 28.6533 5.94846 30.2057C7.66274 31.8 8.58846 32.7086 8.58846 34.2857H12.017C12.017 31.1314 10.1142 29.3657 8.26274 27.6686C6.6605 26.4416 5.38355 24.8405 4.54374 23.0054C3.70393 21.1704 3.32687 19.1574 3.4456 17.1429C3.4456 13.5056 4.89049 10.0173 7.46242 7.44539C10.0343 4.87347 13.5226 3.42857 17.1599 3.42857C20.7971 3.42857 24.2854 4.87347 26.8574 7.44539C29.4293 10.0173 30.8742 13.5056 30.8742 17.1429C30.9909 19.1589 30.6112 21.1728 29.7684 23.008C28.9255 24.8431 27.6453 26.4435 26.0399 27.6686C24.2056 29.3829 22.3027 31.0971 22.3027 34.2857H25.7313C25.7313 32.7086 26.6399 31.8 28.3713 30.1886C30.3221 28.6388 31.877 26.6481 32.9082 24.3801C33.9394 22.1121 34.4173 19.6316 34.3027 17.1429C34.3027 14.8916 33.8593 12.6624 32.9978 10.5826C32.1363 8.5027 30.8736 6.61289 29.2817 5.02103C27.6899 3.42916 25.8 2.16643 23.7202 1.30492C21.6403 0.443413 19.4111 0 17.1599 0Z" fill="#4662B7"/>
</svg>
