<svg width="54" height="48" viewBox="0 0 54 48" fill="none" xmlns="http://www.w3.org/2000/svg">
<path d="M20.158 9.08849e-07C16.7944 -0.00101308 13.485 0.846464 10.5359 2.464C7.58679 4.08153 5.09338 6.41685 3.28641 9.25383C1.47945 12.0908 0.417318 15.3378 0.198323 18.6942C-0.0206718 22.0506 0.610546 25.408 2.03356 28.4558L0.103269 36.0329C-0.0386082 36.5895 -0.0342268 37.1733 0.115987 37.7277C0.266202 38.2821 0.55715 38.7883 0.960607 39.1971C1.36406 39.6059 1.86633 39.9035 2.41869 40.061C2.97105 40.2186 3.55474 40.2307 4.11315 40.0961C6.11276 39.6162 9.18682 38.8777 11.925 38.2245C14.6437 39.4505 17.6022 40.0528 20.5838 39.9874C23.5655 39.9219 26.4947 39.1903 29.157 37.8462C31.8193 36.5021 34.1472 34.5794 35.9702 32.2191C37.7932 29.8588 39.0652 27.1207 39.693 24.2051C40.3208 21.2896 40.2884 18.2705 39.5983 15.3691C38.9082 12.4677 37.5779 9.75741 35.7047 7.43672C33.8315 5.11603 31.4629 3.24374 28.7724 1.95697C26.0819 0.670205 23.1377 0.00155745 20.1553 9.08849e-07H20.158ZM4.16114 19.9961C4.16219 16.5176 5.29706 13.1342 7.39379 10.3586C9.49052 7.58302 12.4348 5.56651 15.7806 4.61464C19.1263 3.66277 22.6912 3.8274 25.935 5.0836C29.1787 6.3398 31.9246 8.61909 33.7566 11.5761C35.5886 14.5331 36.4068 18.0067 36.0872 21.4705C35.7677 24.9343 34.3278 28.1996 31.9857 30.7715C29.6436 33.3435 26.527 35.0819 23.1082 35.7234C19.6893 36.3649 16.1545 35.8746 13.0394 34.3266L12.3889 34.004L11.685 34.172C9.22415 34.7585 6.37937 35.4384 4.25179 35.9503L6.09143 28.7304L6.27806 27.9945L5.93146 27.32C4.76379 25.0555 4.15668 22.5439 4.16114 19.9961ZM33.4887 47.9906C28.2364 47.9906 23.4587 45.967 19.8914 42.6583H20.158C22.0723 42.6583 23.9306 42.421 25.7036 41.9731C28.0098 43.2582 30.6626 43.9914 33.4887 43.9914C36.0482 43.9914 38.4638 43.3915 40.6073 42.3251L41.2552 42.0024L41.9591 42.1704C44.4173 42.757 47.2007 43.3568 49.2643 43.7968C48.7977 41.7945 48.1605 39.115 47.5527 36.7288L47.366 35.993L47.7126 35.3184C48.8812 33.0542 49.4892 30.5425 49.4856 27.9945C49.487 25.32 48.8172 22.6879 47.5377 20.3393C46.2581 17.9908 44.4097 16.0008 42.1617 14.5518C41.6916 12.6474 40.9746 10.8127 40.0288 9.09422C42.6756 10.0107 45.1004 11.4728 47.1462 13.3859C49.1921 15.299 50.8134 17.6203 51.9051 20.1998C52.9969 22.7792 53.5349 25.5591 53.4841 28.3596C53.4333 31.1601 52.795 33.9187 51.6105 36.4569C52.2851 39.1443 52.9676 42.0558 53.3995 43.9301C53.5261 44.4731 53.5138 45.0392 53.3637 45.5762C53.2136 46.1132 52.9305 46.6037 52.5407 47.0023C52.1508 47.401 51.6668 47.6949 51.1332 47.8569C50.5997 48.0189 50.034 48.0438 49.4883 47.9293C46.8931 47.3896 44.3041 46.8208 41.7218 46.223C39.1346 47.3918 36.3277 47.9944 33.4887 47.9906Z" fill="#4662B7"/>
</svg>
