<svg width="59" height="64" viewBox="0 0 59 64" fill="none" xmlns="http://www.w3.org/2000/svg">
<path d="M35.1882 43.522C35.5477 43.4515 35.9454 43.3702 36.3661 43.2788C37.9907 42.9258 40.077 42.3973 41.595 41.7233C43.0834 41.0624 44.8212 39.9849 46.1413 39.1108C46.4584 38.9008 46.7558 38.6997 47.0251 38.5148L55.3425 55.2586L45.3432 53.0558L44.1771 52.799L43.6653 53.8777L41.0566 59.3759L35.1882 43.522Z" stroke="#4662B7" stroke-width="3"/>
<path d="M24.6714 43.1152C24.3431 43.0049 23.9823 42.8805 23.6024 42.7445C22.0749 42.1975 20.1201 41.4215 18.7331 40.5755C17.3738 39.7463 15.8268 38.4825 14.6597 37.4698C14.3915 37.237 14.1398 37.0143 13.9107 36.809L3.81317 51.8599L13.6904 50.999L14.8799 50.8953L15.2477 52.0313L17.0502 57.5984L24.6714 43.1152Z" stroke="#4662B7" stroke-width="3"/>
<circle cx="31.4275" cy="20.2014" r="18.0721" fill="white" stroke="#4662B7" stroke-width="3"/>
<path d="M21 20.5L30 28L42 13" stroke="#4662B7" stroke-width="3" stroke-linecap="round"/>
</svg>
