<svg width="21" height="28" viewBox="0 0 21 28" fill="none" xmlns="http://www.w3.org/2000/svg">
<path d="M12.2651 9.63958L12.2655 9.64051C12.2683 9.64624 12.2725 9.6512 12.2776 9.65497C12.2827 9.65871 12.2887 9.66115 12.2949 9.6621C12.295 9.66211 12.295 9.66211 12.2951 9.66212L14.602 9.99679L14.6021 9.9968L14.5662 10.2442C14.8018 10.2783 14.8977 10.5692 14.7254 10.7366L12.2651 9.63958ZM12.2651 9.63958L11.2353 7.55247C11.2352 7.55225 11.2351 7.55203 11.235 7.55182C11.1907 7.46125 11.1219 7.38492 11.0364 7.33148C10.9507 7.27791 10.8517 7.24951 10.7506 7.24951C10.6495 7.24951 10.5505 7.27791 10.4648 7.33148C10.3793 7.38492 10.3105 7.46125 10.2662 7.5518C10.2661 7.55202 10.266 7.55225 10.2659 7.55247L9.23455 9.63944L9.23455 9.63944L9.23403 9.64051C9.23123 9.64624 9.22707 9.6512 9.22192 9.65497L9.3695 9.85676L9.22192 9.65497C9.21681 9.65871 9.21087 9.66115 9.20462 9.6621C9.20457 9.66211 9.20452 9.66211 9.20447 9.66212L6.89747 9.9968L6.89747 9.99679L6.89585 9.99704C6.79682 10.0121 6.70393 10.0544 6.62759 10.1192L6.78774 10.3077L6.62759 10.1192C6.55126 10.1841 6.49449 10.2689 6.46367 10.3642C6.43284 10.4596 6.42917 10.5616 6.45307 10.6588C6.47697 10.7561 6.52748 10.8448 6.59896 10.915L6.59987 10.9159L8.27249 12.5414C8.2768 12.5458 8.28002 12.5512 8.28188 12.557C8.2838 12.5631 8.28422 12.5696 8.28308 12.5758L8.28274 12.5778L7.88947 14.8757L7.88947 14.8757L7.88915 14.8776C7.87308 14.9761 7.88466 15.0771 7.92261 15.1694C7.96056 15.2618 8.02339 15.3417 8.1041 15.4005C8.18481 15.4592 8.28023 15.4944 8.37974 15.5021C8.47926 15.5098 8.57896 15.4897 8.66774 15.4441L8.66775 15.4441L8.66991 15.443L10.7332 14.3577C10.7332 14.3577 10.7333 14.3577 10.7333 14.3577C10.7389 14.3548 10.7451 14.3532 10.7514 14.3532C10.7577 14.3532 10.7639 14.3548 10.7695 14.3576C10.7695 14.3577 10.7696 14.3577 10.7696 14.3577L12.8329 15.443L12.8335 15.4433C12.9224 15.4897 13.0225 15.5105 13.1225 15.5032C13.2225 15.4959 13.3185 15.4608 13.3997 15.402L13.253 15.1995L13.3997 15.402C13.4809 15.3431 13.544 15.2628 13.5821 15.17C13.6202 15.0772 13.6316 14.9757 13.6151 14.8768L13.6149 14.8757L13.2217 12.5778L13.2215 12.577C13.2204 12.5707 13.2209 12.5643 13.2229 12.5582L12.9849 12.4814L13.2229 12.5582C13.2248 12.5521 13.2282 12.5466 13.2328 12.5422L14.8997 10.9159L12.2651 9.63958Z" fill="#7FB7E7" stroke="#7FB7E7" stroke-width="0.5"/>
<path d="M20.7505 26.1878V26.1877V4.2496C20.7505 3.32132 20.3818 2.43106 19.7254 1.77466C19.069 1.11827 18.1787 0.749512 17.2504 0.749512H4.25008C3.3218 0.749512 2.43154 1.11827 1.77515 1.77466C1.11876 2.43106 0.75 3.32132 0.75 4.2496L0.75 26.1877L0.75 26.1878C0.750099 26.38 0.802327 26.5686 0.90112 26.7334C0.999914 26.8983 1.14157 27.0332 1.31101 27.124L1.42901 26.9036L1.31101 27.124C1.48045 27.2147 1.67132 27.2577 1.86329 27.2486C2.05114 27.2396 2.23316 27.1809 2.39081 27.0786L10.7503 22.5732L19.1097 27.0786C19.2674 27.1809 19.4494 27.2396 19.6372 27.2486C19.8292 27.2577 20.0201 27.2147 20.1895 27.124C20.3589 27.0333 20.5006 26.8983 20.5994 26.7334C20.6982 26.5686 20.7504 26.38 20.7505 26.1878ZM3.27778 3.27729C3.53565 3.01942 3.8854 2.87455 4.25008 2.87455H17.2504C17.6151 2.87455 17.9649 3.01942 18.2227 3.27729C18.4806 3.53517 18.6255 3.88491 18.6255 4.2496V24.2561L11.3274 20.4208C11.1555 20.3097 10.9551 20.2504 10.7503 20.2504C10.5454 20.2504 10.345 20.3097 10.1731 20.4208L2.87504 24.2561V4.2496C2.87504 3.88491 3.01991 3.53517 3.27778 3.27729Z" fill="#7FB7E7" stroke="#7FB7E7" stroke-width="0.5"/>
</svg>
