<svg width="42" height="48" viewBox="0 0 42 48" fill="none" xmlns="http://www.w3.org/2000/svg">
<path d="M21.0591 23.835C27.2723 23.835 32.3091 18.7982 32.3091 12.585C32.3091 6.37176 27.2723 1.33496 21.0591 1.33496C14.8459 1.33496 9.80908 6.37176 9.80908 12.585C9.80908 18.7982 14.8459 23.835 21.0591 23.835Z" stroke="#232D32" stroke-width="2"/>
<path d="M32.3092 28.335H33.1012C34.7461 28.3354 36.3343 28.9365 37.5673 30.0253C38.8003 31.1142 39.5933 32.6157 39.7972 34.248L40.677 41.277C40.7561 41.9102 40.6997 42.553 40.5114 43.1627C40.3231 43.7724 40.0073 44.3352 39.5849 44.8135C39.1625 45.2918 38.6432 45.6749 38.0615 45.9372C37.4797 46.1995 36.8489 46.3351 36.2107 46.335H5.90772C5.26958 46.3351 4.63871 46.1995 4.05697 45.9372C3.47524 45.6749 2.95595 45.2918 2.53356 44.8135C2.11118 44.3352 1.79537 43.7724 1.60708 43.1627C1.41879 42.553 1.36234 41.9102 1.44147 41.277L2.31897 34.248C2.52304 32.615 3.31665 31.1128 4.55059 30.0239C5.78453 28.9349 7.37377 28.3343 9.01947 28.335H9.80922" stroke="#232D32" stroke-width="2" stroke-linecap="round" stroke-linejoin="round"/>
</svg>
